  0
SECTION
  2
HEADER
  9
$ACADVER
  1
AC1009
  9
$DWGCODEPAGE
  3
undefined
  9
$INSBASE
 10
0.0
 20
0.0
 30
0.0
  9
$EXTMIN
 10
1.000000000000000E+20
 20
1.000000000000000E+20
 30
1.000000000000000E+20
  9
$EXTMAX
 10
-1.000000000000000E+20
 20
-1.000000000000000E+20
 30
-1.000000000000000E+20
  9
$LIMMIN
 10
0.0
 20
0.0
  9
$LIMMAX
 10
12.0
 20
9.0
  9
$ORTHOMODE
 70
     0
  9
$REGENMODE
 70
     1
  9
$FILLMODE
 70
     1
  9
$QTEXTMODE
 70
     0
  9
$MIRRTEXT
 70
     1
  9
$DRAGMODE
 70
     2
  9
$LTSCALE
 40
1.0
  9
$OSMODE
 70
    37
  9
$ATTMODE
 70
     1
  9
$TEXTSIZE
 40
0.2
  9
$TRACEWID
 40
0.05
  9
$TEXTSTYLE
  7
STANDARD
  9
$CLAYER
  8
0
  9
$CELTYPE
  6
BYLAYER
  9
$CECOLOR
 62
   256
  9
$DIMSCALE
 40
1.0
  9
$DIMASZ
 40
0.18
  9
$DIMEXO
 40
0.0625
  9
$DIMDLI
 40
0.38
  9
$DIMRND
 40
0.0
  9
$DIMDLE
 40
0.0
  9
$DIMEXE
 40
0.18
  9
$DIMTP
 40
0.0
  9
$DIMTM
 40
0.0
  9
$DIMTXT
 40
0.18
  9
$DIMCEN
 40
0.09
  9
$DIMTSZ
 40
0.0
  9
$DIMTOL
 70
     0
  9
$DIMLIM
 70
     0
  9
$DIMTIH
 70
     1
  9
$DIMTOH
 70
     1
  9
$DIMSE1
 70
     0
  9
$DIMSE2
 70
     0
  9
$DIMTAD
 70
     0
  9
$DIMZIN
 70
     0
  9
$DIMBLK
  1

  9
$DIMASO
 70
     1
  9
$DIMSHO
 70
     1
  9
$DIMPOST
  1

  9
$DIMAPOST
  1

  9
$DIMALT
 70
     0
  9
$DIMALTD
 70
     2
  9
$DIMALTF
 40
25.4
  9
$DIMLFAC
 40
1.0
  9
$DIMTOFL
 70
     0
  9
$DIMTVP
 40
0.0
  9
$DIMTIX
 70
     0
  9
$DIMSOXD
 70
     0
  9
$DIMSAH
 70
     0
  9
$DIMBLK1
  1

  9
$DIMBLK2
  1

  9
$DIMSTYLE
  2
STANDARD
  9
$DIMCLRD
 70
     0
  9
$DIMCLRE
 70
     0
  9
$DIMCLRT
 70
     0
  9
$DIMTFAC
 40
1.0
  9
$DIMGAP
 40
0.09
  9
$LUNITS
 70
     2
  9
$LUPREC
 70
     4
  9
$SKETCHINC
 40
0.1
  9
$FILLETRAD
 40
0.5
  9
$AUNITS
 70
     0
  9
$AUPREC
 70
     0
  9
$MENU
  1
.
  9
$ELEVATION
 40
0.0
  9
$PELEVATION
 40
0.0
  9
$THICKNESS
 40
0.0
  9
$LIMCHECK
 70
     0
  9
$CHAMFERA
 40
0.0
  9
$CHAMFERB
 40
0.0
  9
$SKPOLY
 70
     0
  9
$TDCREATE
 40
2457169.908703704
  9
$TDUPDATE
 40
2457169.908703704
  9
$TDINDWG
 40
0.0000000116
  9
$TDUSRTIMER
 40
0.0000000116
  9
$USRTIMER
 70
     1
  9
$ANGBASE
 50
0.0
  9
$ANGDIR
 70
     0
  9
$PDMODE
 70
     0
  9
$PDSIZE
 40
0.0
  9
$PLINEWID
 40
0.0
  9
$COORDS
 70
     1
  9
$SPLFRAME
 70
     0
  9
$SPLINETYPE
 70
     6
  9
$SPLINESEGS
 70
     8
  9
$ATTDIA
 70
     0
  9
$ATTREQ
 70
     1
  9
$HANDLING
 70
     1
  9
$HANDSEED
  5
10000185
  9
$SURFTAB1
 70
     6
  9
$SURFTAB2
 70
     6
  9
$SURFTYPE
 70
     6
  9
$SURFU
 70
     6
  9
$SURFV
 70
     6
  9
$UCSNAME
  2

  9
$UCSORG
 10
0.0
 20
0.0
 30
0.0
  9
$UCSXDIR
 10
1.0
 20
0.0
 30
0.0
  9
$UCSYDIR
 10
0.0
 20
1.0
 30
0.0
  9
$PUCSNAME
  2

  9
$PUCSORG
 10
0.0
 20
0.0
 30
0.0
  9
$PUCSXDIR
 10
1.0
 20
0.0
 30
0.0
  9
$PUCSYDIR
 10
0.0
 20
1.0
 30
0.0
  9
$USERI1
 70
     0
  9
$USERI2
 70
     0
  9
$USERI3
 70
     0
  9
$USERI4
 70
     0
  9
$USERI5
 70
     0
  9
$USERR1
 40
0.0
  9
$USERR2
 40
0.0
  9
$USERR3
 40
0.0
  9
$USERR4
 40
0.0
  9
$USERR5
 40
0.0
  9
$WORLDVIEW
 70
     1
  9
$SHADEDGE
 70
     3
  9
$SHADEDIF
 70
    70
  9
$TILEMODE
 70
     1
  9
$MAXACTVP
 70
    64
  9
$PLIMCHECK
 70
     0
  9
$PEXTMIN
 10
1.000000000000000E+20
 20
1.000000000000000E+20
 30
1.000000000000000E+20
  9
$PEXTMAX
 10
-1.000000000000000E+20
 20
-1.000000000000000E+20
 30
-1.000000000000000E+20
  9
$PLIMMIN
 10
0.0
 20
0.0
  9
$PLIMMAX
 10
12.0
 20
9.0
  9
$UNITMODE
 70
     0
  9
$VISRETAIN
 70
     1
  9
$PLINEGEN
 70
     0
  9
$PSLTSCALE
 70
     1
  0
ENDSEC
  0
SECTION
  2
TABLES
  0
TABLE
  2
VPORT
 70
     1
  0
VPORT
  2
*ACTIVE
 70
     0
 10
0.0
 20
0.0
 11
1.0
 21
1.0
 12
10.42990654205607
 22
4.5
 13
0.0
 23
0.0
 14
0.5
 24
0.5
 15
0.5
 25
0.5
 16
0.0
 26
0.0
 36
1.0
 17
0.0
 27
0.0
 37
0.0
 40
9.0
 41
1.972972972850329
 42
50.0
 43
0.0
 44
0.0
 50
0.0
 51
0.0
 71
     0
 72
   100
 73
     1
 74
     3
 75
     0
 76
     0
 77
     0
 78
     0
  0
ENDTAB
  0
TABLE
  2
LTYPE
 70
     5
  0
LTYPE
  2
CONTINUOUS
 70
     0
  3
Solid line
 72
    65
 73
     0
 40
0.0
  0
LTYPE
  2
HIDDEN
 70
     0
  3
Hidden line ____ ____ ____ ____ 
 72
    83
 73
     2
 40
0.125
 49
0.25
 49
-0.125
  0
LTYPE
  2
PHANTOM
 70
     0
  3
Phantom line ______  __  __  ______  __  __
 72
    83
 73
     6
 40
0.5
 49
0.625
 49
-0.125
 49
0.125
 49
-0.125
 49
0.125
 49
-0.125
  0
LTYPE
  2
CENTER
 70
     0
  3
Center line ____ _ ____ _ ____ _
 72
    83
 73
     4
 40
0.5
 49
0.625
 49
-0.125
 49
0.125
 49
-0.125
  0
LTYPE
  2
DASHED
 70
     0
  3
Dashed line __ __ __ __
 72
    83
 73
     2
 40
0.25
 49
0.5
 49
-0.25
  0
ENDTAB
  0
TABLE
  2
LAYER
 70
     5
  0
LAYER
  2
0
 70
     0
 62
     7
  6
CONTINUOUS
  0
LAYER
  2
HIDDEN
 70
     0
 62
    -7
  6
HIDDEN
  0
LAYER
  2
VISIBLE
 70
     0
 62
     7
  6
CONTINUOUS
  0
LAYER
  2
TANGENT_LINES
 70
     0
 62
     7
  6
CONTINUOUS
  0
LAYER
  2
INVISIBLE_LINES
 70
     0
 62
    -7
  6
CONTINUOUS
  0
ENDTAB
  0
TABLE
  2
STYLE
 70
     2
  0
STYLE
  2
STANDARD
 70
     0
 40
0.0
 41
1.0
 50
0.0
 71
     0
 42
0.2
  3
txt
  4

  0
STYLE
  2
ODATTFSTYLE
 70
     0
 40
0.0
 41
1.0
 50
0.0
 71
     0
 42
0.2
  3
Verdana.ttf
  4

  0
ENDTAB
  0
TABLE
  2
VIEW
 70
     0
  0
ENDTAB
  0
TABLE
  2
UCS
 70
     0
  0
ENDTAB
  0
TABLE
  2
APPID
 70
     1
  0
APPID
  2
ACAD
 70
     0
  0
ENDTAB
  0
TABLE
  2
DIMSTYLE
 70
     1
  0
DIMSTYLE
  2
STANDARD
 70
     0
  3

  4

  5

  6

  7

 40
1.0
 41
0.18
 42
0.0625
 43
0.38
 44
0.18
 45
0.0
 46
0.0
 47
0.0
 48
0.0
140
0.18
141
0.09
142
0.0
143
25.4
144
1.0
145
0.0
146
1.0
147
0.09
 71
     0
 72
     0
 73
     1
 74
     1
 75
     0
 76
     0
 77
     0
 78
     0
170
     0
171
     2
172
     0
173
     0
174
     0
175
     0
176
     0
177
     0
178
     0
  0
ENDTAB
  0
ENDSEC
  0
SECTION
  2
BLOCKS
  0
BLOCK
  8
0
  2
$MODEL_SPACE
 70
     0
 10
0.0
 20
0.0
 30
0.0
  3
$MODEL_SPACE
  1

  0
ENDBLK
  5
21
  8
0
  0
BLOCK
 67
     1
  8
0
  2
$PAPER_SPACE
 70
     0
 10
0.0
 20
0.0
 30
0.0
  3
$PAPER_SPACE
  1

  0
ENDBLK
  5
1D
 67
     1
  8
0
  0
ENDSEC
  0
SECTION
  2
ENTITIES
  0
CIRCLE
  5
F48B2
  8
VISIBLE
 10
-0.3310000000000009
 20
2.7
 30
-0.125
 40
0.069
210
0.0
220
0.0
230
-1.0
  0
CIRCLE
  5
F48B3
  8
VISIBLE
 10
2.418000000000001
 20
1.3
 30
0.125
 40
0.069
  0
CIRCLE
  5
F48B4
  8
VISIBLE
 10
-2.418000000000001
 20
2.7
 30
-0.125
 40
0.069
210
0.0
220
0.0
230
-1.0
  0
CIRCLE
  5
F48B5
  8
VISIBLE
 10
0.3310000000000009
 20
1.3
 30
0.125
 40
0.069
  0
LINE
  5
F48B6
  8
VISIBLE
 10
0.0
 20
0.0
 30
0.125
 11
-0.0000000000000001
 21
0.5000000000000001
 31
0.125
  0
LINE
  5
F48B7
  8
VISIBLE
 10
0.0
 20
0.0
 30
0.125
 11
2.378000000000001
 21
-0.0000000000000005
 31
0.125
  0
LINE
  5
F48B8
  8
VISIBLE
 10
2.378000000000001
 20
-0.0000000000000005
 30
0.125
 11
2.378000000000001
 21
0.1249999999999995
 31
0.125
  0
LINE
  5
F48B9
  8
VISIBLE
 10
2.378000000000001
 20
0.1249999999999995
 30
0.125
 11
2.559000000000001
 21
0.1249999999999998
 31
0.125
  0
LINE
  5
F48BA
  8
VISIBLE
 10
2.559000000000001
 20
0.1249999999999998
 30
0.125
 11
2.559
 21
0.215625
 31
0.125
  0
LINE
  5
F48BB
  8
VISIBLE
 10
2.559
 20
0.215625
 30
0.125
 11
2.471750000000001
 21
0.215625
 31
0.125
  0
LINE
  5
F48BC
  8
VISIBLE
 10
2.471750000000001
 20
0.215625
 30
0.125
 11
2.471750000000001
 21
0.3249999999999998
 31
0.125
  0
LINE
  5
F48BD
  8
VISIBLE
 10
2.471750000000001
 20
0.3249999999999998
 30
0.125
 11
2.559
 21
0.3250000000000001
 31
0.125
  0
LINE
  5
F48BE
  8
VISIBLE
 10
2.559
 20
0.3250000000000001
 30
0.125
 11
2.559
 21
0.3749999999999998
 31
0.125
  0
LINE
  5
F48BF
  8
VISIBLE
 10
2.559
 20
0.3749999999999998
 30
0.125
 11
2.697000000000001
 21
0.3750000000000001
 31
0.125
  0
LINE
  5
F48C0
  8
VISIBLE
 10
2.697000000000001
 20
0.3249999999999999
 30
0.125
 11
2.697000000000001
 21
0.3750000000000001
 31
0.125
  0
LINE
  5
F48C1
  8
VISIBLE
 10
2.78425
 20
0.3250000000000002
 30
0.125
 11
2.697000000000001
 21
0.3249999999999999
 31
0.125
  0
LINE
  5
F48C2
  8
VISIBLE
 10
2.784250000000001
 20
0.215625
 30
0.125
 11
2.78425
 21
0.3250000000000002
 31
0.125
  0
LINE
  5
F48C3
  8
VISIBLE
 10
2.697000000000002
 20
0.2156250000000002
 30
0.125
 11
2.784250000000001
 21
0.215625
 31
0.125
  0
LINE
  5
F48C4
  8
VISIBLE
 10
2.697000000000001
 20
0.125
 30
0.125
 11
2.697000000000002
 21
0.2156250000000002
 31
0.125
  0
LINE
  5
F48C5
  8
VISIBLE
 10
2.878000000000001
 20
0.125
 30
0.125
 11
2.697000000000001
 21
0.125
 31
0.125
  0
LINE
  5
F48C6
  8
VISIBLE
 10
2.878000000000001
 20
-0.0000000000000002
 30
0.125
 11
2.878000000000001
 21
0.125
 31
0.125
  0
LINE
  5
F48C7
  8
VISIBLE
 10
2.878000000000001
 20
-0.0000000000000002
 30
0.125
 11
3.150000000000002
 21
0.0
 31
0.125
  0
LINE
  5
F48C8
  8
VISIBLE
 10
3.150000000000002
 20
0.0
 30
0.125
 11
3.150000000000002
 21
0.125
 31
0.125
  0
LINE
  5
F48C9
  8
VISIBLE
 10
3.150000000000002
 20
0.125
 30
0.125
 11
3.331000000000002
 21
0.1250000000000003
 31
0.125
  0
LINE
  5
F48CA
  8
VISIBLE
 10
3.331000000000002
 20
0.1250000000000003
 30
0.125
 11
3.331000000000001
 21
0.2156250000000002
 31
0.125
  0
LINE
  5
F48CB
  8
VISIBLE
 10
3.331000000000001
 20
0.2156250000000002
 30
0.125
 11
3.243750000000002
 21
0.2156250000000002
 31
0.125
  0
LINE
  5
F48CC
  8
VISIBLE
 10
3.243750000000002
 20
0.2156250000000002
 30
0.125
 11
3.243750000000002
 21
0.3250000000000002
 31
0.125
  0
LINE
  5
F48CD
  8
VISIBLE
 10
3.243750000000002
 20
0.3250000000000002
 30
0.125
 11
3.331000000000001
 21
0.3250000000000002
 31
0.125
  0
LINE
  5
F48CE
  8
VISIBLE
 10
3.331000000000001
 20
0.3250000000000002
 30
0.125
 11
3.331000000000001
 21
0.3750000000000001
 31
0.125
  0
LINE
  5
F48CF
  8
VISIBLE
 10
3.331000000000001
 20
0.3750000000000001
 30
0.125
 11
3.469000000000003
 21
0.3750000000000003
 31
0.125
  0
LINE
  5
F48D0
  8
VISIBLE
 10
3.469000000000003
 20
0.3250000000000002
 30
0.125
 11
3.469000000000003
 21
0.3750000000000003
 31
0.125
  0
LINE
  5
F48D1
  8
VISIBLE
 10
3.556250000000002
 20
0.3250000000000004
 30
0.125
 11
3.469000000000003
 21
0.3250000000000002
 31
0.125
  0
LINE
  5
F48D2
  8
VISIBLE
 10
3.556250000000002
 20
0.2156250000000003
 30
0.125
 11
3.556250000000002
 21
0.3250000000000004
 31
0.125
  0
LINE
  5
F48D3
  8
VISIBLE
 10
3.469000000000003
 20
0.2156250000000005
 30
0.125
 11
3.556250000000002
 21
0.2156250000000003
 31
0.125
  0
LINE
  5
F48D4
  8
VISIBLE
 10
3.469000000000002
 20
0.125
 30
0.125
 11
3.469000000000003
 21
0.2156250000000005
 31
0.125
  0
LINE
  5
F48D5
  8
VISIBLE
 10
3.650000000000002
 20
0.1250000000000002
 30
0.125
 11
3.469000000000002
 21
0.125
 31
0.125
  0
LINE
  5
F48D6
  8
VISIBLE
 10
3.650000000000002
 20
0.0
 30
0.125
 11
3.650000000000002
 21
0.1250000000000002
 31
0.125
  0
LINE
  5
F48D7
  8
VISIBLE
 10
3.650000000000002
 20
0.0
 30
0.125
 11
5.000000000000001
 21
0.0
 31
0.125
  0
LINE
  5
F48D8
  8
VISIBLE
 10
5.000000000000001
 20
0.0
 30
0.125
 11
4.999999999999999
 21
0.5000000000000007
 31
0.125
  0
LINE
  5
F48D9
  8
VISIBLE
 10
4.999999999999999
 20
0.5000000000000007
 30
0.125
 11
4.874999999999999
 21
0.5000000000000007
 31
0.125
  0
LINE
  5
F48DA
  8
VISIBLE
 10
4.874999999999999
 20
0.5000000000000007
 30
0.125
 11
4.874999999999999
 21
0.6809999999999996
 31
0.125
  0
LINE
  5
F48DB
  8
VISIBLE
 10
4.874999999999999
 20
0.6809999999999996
 30
0.125
 11
4.784374999999999
 21
0.681
 31
0.125
  0
LINE
  5
F48DC
  8
VISIBLE
 10
4.784374999999999
 20
0.5937500000000002
 30
0.125
 11
4.784374999999999
 21
0.681
 31
0.125
  0
LINE
  5
F48DD
  8
VISIBLE
 10
4.674999999999999
 20
0.5937500000000006
 30
0.125
 11
4.784374999999999
 21
0.5937500000000002
 31
0.125
  0
LINE
  5
F48DE
  8
VISIBLE
 10
4.675000000000001
 20
0.6809999999999996
 30
0.125
 11
4.674999999999999
 21
0.5937500000000006
 31
0.125
  0
LINE
  5
F48DF
  8
VISIBLE
 10
4.675000000000001
 20
0.6809999999999996
 30
0.125
 11
4.624999999999999
 21
0.681
 31
0.125
  0
LINE
  5
F48E0
  8
VISIBLE
 10
4.624999999999999
 20
0.681
 30
0.125
 11
4.624999999999999
 21
0.8190000000000002
 31
0.125
  0
LINE
  5
F48E1
  8
VISIBLE
 10
4.624999999999999
 20
0.8190000000000002
 30
0.125
 11
4.675
 21
0.8190000000000003
 31
0.125
  0
LINE
  5
F48E2
  8
VISIBLE
 10
4.675000000000002
 20
0.9062499999999997
 30
0.125
 11
4.675
 21
0.8190000000000003
 31
0.125
  0
LINE
  5
F48E3
  8
VISIBLE
 10
4.784375
 20
0.9062499999999997
 30
0.125
 11
4.675000000000002
 21
0.9062499999999997
 31
0.125
  0
LINE
  5
F48E4
  8
VISIBLE
 10
4.784374999999999
 20
0.8190000000000002
 30
0.125
 11
4.784375
 21
0.9062499999999997
 31
0.125
  0
LINE
  5
F48E5
  8
VISIBLE
 10
4.784374999999999
 20
0.8190000000000002
 30
0.125
 11
4.874999999999999
 21
0.8190000000000007
 31
0.125
  0
LINE
  5
F48E6
  8
VISIBLE
 10
4.874999999999999
 20
0.8190000000000007
 30
0.125
 11
4.874999999999999
 21
0.9999999999999997
 31
0.125
  0
LINE
  5
F48E7
  8
VISIBLE
 10
4.874999999999999
 20
0.9999999999999997
 30
0.125
 11
4.999999999999999
 21
1.0
 31
0.125
  0
LINE
  5
F48E8
  8
VISIBLE
 10
4.999999999999999
 20
1.0
 30
0.125
 11
4.999999999999999
 21
1.750000000000001
 31
0.125
  0
LINE
  5
F48E9
  8
VISIBLE
 10
4.999999999999999
 20
1.750000000000001
 30
0.125
 11
4.874999999999999
 21
1.750000000000001
 31
0.125
  0
LINE
  5
F48EA
  8
VISIBLE
 10
4.874999999999999
 20
1.750000000000001
 30
0.125
 11
4.874999999999999
 21
1.931
 31
0.125
  0
LINE
  5
F48EB
  8
VISIBLE
 10
4.874999999999999
 20
1.931
 30
0.125
 11
4.784374999999999
 21
1.931000000000001
 31
0.125
  0
LINE
  5
F48EC
  8
VISIBLE
 10
4.784374999999999
 20
1.843750000000001
 30
0.125
 11
4.784374999999999
 21
1.931000000000001
 31
0.125
  0
LINE
  5
F48ED
  8
VISIBLE
 10
4.674999999999999
 20
1.843750000000001
 30
0.125
 11
4.784374999999999
 21
1.843750000000001
 31
0.125
  0
LINE
  5
F48EE
  8
VISIBLE
 10
4.675
 20
1.931
 30
0.125
 11
4.674999999999999
 21
1.843750000000001
 31
0.125
  0
LINE
  5
F48EF
  8
VISIBLE
 10
4.675
 20
1.931
 30
0.125
 11
4.624999999999999
 21
1.931000000000001
 31
0.125
  0
LINE
  5
F48F0
  8
VISIBLE
 10
4.624999999999999
 20
1.931000000000001
 30
0.125
 11
4.624999999999999
 21
2.069000000000001
 31
0.125
  0
LINE
  5
F48F1
  8
VISIBLE
 10
4.624999999999999
 20
2.069000000000001
 30
0.125
 11
4.675
 21
2.069000000000001
 31
0.125
  0
LINE
  5
F48F2
  8
VISIBLE
 10
4.675000000000001
 20
2.15625
 30
0.125
 11
4.675
 21
2.069000000000001
 31
0.125
  0
LINE
  5
F48F3
  8
VISIBLE
 10
4.784375
 20
2.15625
 30
0.125
 11
4.675000000000001
 21
2.15625
 31
0.125
  0
LINE
  5
F48F4
  8
VISIBLE
 10
4.784374999999999
 20
2.069000000000001
 30
0.125
 11
4.784375
 21
2.15625
 31
0.125
  0
LINE
  5
F48F5
  8
VISIBLE
 10
4.784374999999999
 20
2.069000000000001
 30
0.125
 11
4.874999999999999
 21
2.069000000000001
 31
0.125
  0
LINE
  5
F48F6
  8
VISIBLE
 10
4.874999999999999
 20
2.069000000000001
 30
0.125
 11
4.874999999999999
 21
2.25
 31
0.125
  0
LINE
  5
F48F7
  8
VISIBLE
 10
4.874999999999999
 20
2.25
 30
0.125
 11
4.999999999999999
 21
2.250000000000001
 31
0.125
  0
LINE
  5
F48F8
  8
VISIBLE
 10
4.999999999999999
 20
2.250000000000001
 30
0.125
 11
4.999999999999999
 21
3.000000000000002
 31
0.125
  0
LINE
  5
F48F9
  8
VISIBLE
 10
4.874999999999999
 20
3.000000000000002
 30
0.125
 11
4.999999999999999
 21
3.000000000000002
 31
0.125
  0
LINE
  5
F48FA
  8
VISIBLE
 10
4.874999999999999
 20
3.181
 30
0.125
 11
4.874999999999999
 21
3.000000000000002
 31
0.125
  0
LINE
  5
F48FB
  8
VISIBLE
 10
4.784374999999999
 20
3.181
 30
0.125
 11
4.874999999999999
 21
3.181
 31
0.125
  0
LINE
  5
F48FC
  8
VISIBLE
 10
4.784374999999999
 20
3.181
 30
0.125
 11
4.784374999999998
 21
3.093750000000001
 31
0.125
  0
LINE
  5
F48FD
  8
VISIBLE
 10
4.784374999999998
 20
3.093750000000001
 30
0.125
 11
4.675
 21
3.093750000000002
 31
0.125
  0
LINE
  5
F48FE
  8
VISIBLE
 10
4.675
 20
3.093750000000002
 30
0.125
 11
4.675
 21
3.181
 31
0.125
  0
LINE
  5
F48FF
  8
VISIBLE
 10
4.624999999999999
 20
3.181000000000001
 30
0.125
 11
4.675
 21
3.181
 31
0.125
  0
LINE
  5
F4900
  8
VISIBLE
 10
4.624999999999999
 20
3.319000000000001
 30
0.125
 11
4.624999999999999
 21
3.181000000000001
 31
0.125
  0
LINE
  5
F4901
  8
VISIBLE
 10
4.674999999999999
 20
3.319000000000001
 30
0.125
 11
4.624999999999999
 21
3.319000000000001
 31
0.125
  0
LINE
  5
F4902
  8
VISIBLE
 10
4.674999999999999
 20
3.319000000000001
 30
0.125
 11
4.675
 21
3.40625
 31
0.125
  0
LINE
  5
F4903
  8
VISIBLE
 10
4.675
 20
3.40625
 30
0.125
 11
4.784374999999999
 21
3.406250000000001
 31
0.125
  0
LINE
  5
F4904
  8
VISIBLE
 10
4.784374999999999
 20
3.406250000000001
 30
0.125
 11
4.784374999999998
 21
3.319000000000001
 31
0.125
  0
LINE
  5
F4905
  8
VISIBLE
 10
4.874999999999999
 20
3.319000000000001
 30
0.125
 11
4.784374999999998
 21
3.319000000000001
 31
0.125
  0
LINE
  5
F4906
  8
VISIBLE
 10
4.874999999999999
 20
3.5
 30
0.125
 11
4.874999999999999
 21
3.319000000000001
 31
0.125
  0
LINE
  5
F4907
  8
VISIBLE
 10
4.999999999999999
 20
3.500000000000001
 30
0.125
 11
4.874999999999999
 21
3.5
 31
0.125
  0
LINE
  5
F4908
  8
VISIBLE
 10
4.999999999999999
 20
3.500000000000001
 30
0.125
 11
5.0
 21
4.000000000000001
 31
0.125
  0
LINE
  5
F4909
  8
VISIBLE
 10
3.649999999999999
 20
4.000000000000002
 30
0.125
 11
5.0
 21
4.000000000000001
 31
0.125
  0
LINE
  5
F490A
  8
VISIBLE
 10
3.649999999999999
 20
4.000000000000002
 30
0.125
 11
3.649999999999999
 21
3.875000000000001
 31
0.125
  0
LINE
  5
F490B
  8
VISIBLE
 10
3.649999999999999
 20
3.875000000000001
 30
0.125
 11
3.469000000000003
 21
3.875
 31
0.125
  0
LINE
  5
F490C
  8
VISIBLE
 10
3.469000000000003
 20
3.875
 30
0.125
 11
3.469000000000001
 21
3.784375000000001
 31
0.125
  0
LINE
  5
F490D
  8
VISIBLE
 10
3.469000000000001
 20
3.784375000000001
 30
0.125
 11
3.556250000000002
 21
3.784375
 31
0.125
  0
LINE
  5
F490E
  8
VISIBLE
 10
3.556250000000002
 20
3.784375
 30
0.125
 11
3.556249999999999
 21
3.675000000000001
 31
0.125
  0
LINE
  5
F490F
  8
VISIBLE
 10
3.556249999999999
 20
3.675000000000001
 30
0.125
 11
3.469000000000002
 21
3.675000000000001
 31
0.125
  0
LINE
  5
F4910
  8
VISIBLE
 10
3.469000000000002
 20
3.675000000000001
 30
0.125
 11
3.469000000000001
 21
3.625000000000001
 31
0.125
  0
LINE
  5
F4911
  8
VISIBLE
 10
3.469000000000001
 20
3.625000000000001
 30
0.125
 11
3.331000000000001
 21
3.625000000000001
 31
0.125
  0
LINE
  5
F4912
  8
VISIBLE
 10
3.330999999999998
 20
3.675000000000001
 30
0.125
 11
3.331000000000001
 21
3.625000000000001
 31
0.125
  0
LINE
  5
F4913
  8
VISIBLE
 10
3.243749999999999
 20
3.675000000000001
 30
0.125
 11
3.330999999999998
 21
3.675000000000001
 31
0.125
  0
LINE
  5
F4914
  8
VISIBLE
 10
3.243749999999998
 20
3.784375
 30
0.125
 11
3.243749999999999
 21
3.675000000000001
 31
0.125
  0
LINE
  5
F4915
  8
VISIBLE
 10
3.331000000000001
 20
3.784375000000001
 30
0.125
 11
3.243749999999998
 21
3.784375
 31
0.125
  0
LINE
  5
F4916
  8
VISIBLE
 10
3.330999999999997
 20
3.875
 30
0.125
 11
3.331000000000001
 21
3.784375000000001
 31
0.125
  0
LINE
  5
F4917
  8
VISIBLE
 10
3.149999999999999
 20
3.875
 30
0.125
 11
3.330999999999997
 21
3.875
 31
0.125
  0
LINE
  5
F4918
  8
VISIBLE
 10
3.149999999999999
 20
4.000000000000001
 30
0.125
 11
3.149999999999999
 21
3.875
 31
0.125
  0
LINE
  5
F4919
  8
VISIBLE
 10
2.877999999999998
 20
4.000000000000001
 30
0.125
 11
3.149999999999999
 21
4.000000000000001
 31
0.125
  0
LINE
  5
F491A
  8
VISIBLE
 10
2.877999999999998
 20
4.000000000000001
 30
0.125
 11
2.877999999999998
 21
3.875
 31
0.125
  0
LINE
  5
F491B
  8
VISIBLE
 10
2.877999999999998
 20
3.875
 30
0.125
 11
2.697000000000001
 21
3.875
 31
0.125
  0
LINE
  5
F491C
  8
VISIBLE
 10
2.697000000000001
 20
3.875
 30
0.125
 11
2.696999999999999
 21
3.784375000000001
 31
0.125
  0
LINE
  5
F491D
  8
VISIBLE
 10
2.696999999999999
 20
3.784375000000001
 30
0.125
 11
2.784250000000001
 21
3.784375
 31
0.125
  0
LINE
  5
F491E
  8
VISIBLE
 10
2.784250000000001
 20
3.784375
 30
0.125
 11
2.784249999999999
 21
3.675000000000001
 31
0.125
  0
LINE
  5
F491F
  8
VISIBLE
 10
2.784249999999999
 20
3.675000000000001
 30
0.125
 11
2.697000000000001
 21
3.675000000000001
 31
0.125
  0
LINE
  5
F4920
  8
VISIBLE
 10
2.697000000000001
 20
3.675000000000001
 30
0.125
 11
2.696999999999999
 21
3.625
 31
0.125
  0
LINE
  5
F4921
  8
VISIBLE
 10
2.696999999999999
 20
3.625
 30
0.125
 11
2.558999999999997
 21
3.625
 31
0.125
  0
LINE
  5
F4922
  8
VISIBLE
 10
2.558999999999997
 20
3.675000000000001
 30
0.125
 11
2.558999999999997
 21
3.625
 31
0.125
  0
LINE
  5
F4923
  8
VISIBLE
 10
2.471749999999998
 20
3.675000000000001
 30
0.125
 11
2.558999999999997
 21
3.675000000000001
 31
0.125
  0
LINE
  5
F4924
  8
VISIBLE
 10
2.471749999999999
 20
3.784375
 30
0.125
 11
2.471749999999998
 21
3.675000000000001
 31
0.125
  0
LINE
  5
F4925
  8
VISIBLE
 10
2.558999999999995
 20
3.784375
 30
0.125
 11
2.471749999999999
 21
3.784375
 31
0.125
  0
LINE
  5
F4926
  8
VISIBLE
 10
2.558999999999997
 20
3.875
 30
0.125
 11
2.558999999999995
 21
3.784375
 31
0.125
  0
LINE
  5
F4927
  8
VISIBLE
 10
2.377999999999997
 20
3.875
 30
0.125
 11
2.558999999999997
 21
3.875
 31
0.125
  0
LINE
  5
F4928
  8
VISIBLE
 10
2.377999999999998
 20
4.000000000000001
 30
0.125
 11
2.377999999999997
 21
3.875
 31
0.125
  0
LINE
  5
F4929
  8
VISIBLE
 10
0.0
 20
4.000000000000001
 30
0.125
 11
2.377999999999998
 21
4.000000000000001
 31
0.125
  0
LINE
  5
F492A
  8
VISIBLE
 10
-0.0000000000000001
 20
3.5
 30
0.125
 11
0.0
 21
4.000000000000001
 31
0.125
  0
LINE
  5
F492B
  8
VISIBLE
 10
-0.0000000000000001
 20
3.5
 30
0.125
 11
0.1249999999999999
 21
3.5
 31
0.125
  0
LINE
  5
F492C
  8
VISIBLE
 10
0.1249999999999999
 20
3.5
 30
0.125
 11
0.1249999999999999
 21
3.319000000000001
 31
0.125
  0
LINE
  5
F492D
  8
VISIBLE
 10
0.1249999999999999
 20
3.319000000000001
 30
0.125
 11
0.215625
 21
3.319000000000001
 31
0.125
  0
LINE
  5
F492E
  8
VISIBLE
 10
0.215625
 20
3.40625
 30
0.125
 11
0.215625
 21
3.319000000000001
 31
0.125
  0
LINE
  5
F492F
  8
VISIBLE
 10
0.325
 20
3.40625
 30
0.125
 11
0.215625
 21
3.40625
 31
0.125
  0
LINE
  5
F4930
  8
VISIBLE
 10
0.325
 20
3.319000000000001
 30
0.125
 11
0.325
 21
3.40625
 31
0.125
  0
LINE
  5
F4931
  8
VISIBLE
 10
0.325
 20
3.319000000000001
 30
0.125
 11
0.3750000000000001
 21
3.319000000000001
 31
0.125
  0
LINE
  5
F4932
  8
VISIBLE
 10
0.3750000000000001
 20
3.319000000000001
 30
0.125
 11
0.3750000000000001
 21
3.181
 31
0.125
  0
LINE
  5
F4933
  8
VISIBLE
 10
0.3750000000000001
 20
3.181
 30
0.125
 11
0.3250000000000001
 21
3.181
 31
0.125
  0
LINE
  5
F4934
  8
VISIBLE
 10
0.3250000000000001
 20
3.093750000000001
 30
0.125
 11
0.3250000000000001
 21
3.181
 31
0.125
  0
LINE
  5
F4935
  8
VISIBLE
 10
0.2156250000000001
 20
3.093750000000001
 30
0.125
 11
0.3250000000000001
 21
3.093750000000001
 31
0.125
  0
LINE
  5
F4936
  8
VISIBLE
 10
0.2156250000000001
 20
3.181
 30
0.125
 11
0.2156250000000001
 21
3.093750000000001
 31
0.125
  0
LINE
  5
F4937
  8
VISIBLE
 10
0.2156250000000001
 20
3.181
 30
0.125
 11
0.125
 21
3.181
 31
0.125
  0
LINE
  5
F4938
  8
VISIBLE
 10
0.125
 20
3.181
 30
0.125
 11
0.125
 21
3.000000000000001
 31
0.125
  0
LINE
  5
F4939
  8
VISIBLE
 10
0.125
 20
3.000000000000001
 30
0.125
 11
0.0
 21
3.000000000000001
 31
0.125
  0
LINE
  5
F493A
  8
VISIBLE
 10
0.0
 20
2.25
 30
0.125
 11
0.0
 21
3.000000000000001
 31
0.125
  0
LINE
  5
F493B
  8
VISIBLE
 10
0.125
 20
2.25
 30
0.125
 11
0.0
 21
2.25
 31
0.125
  0
LINE
  5
F493C
  8
VISIBLE
 10
0.125
 20
2.069000000000001
 30
0.125
 11
0.125
 21
2.25
 31
0.125
  0
LINE
  5
F493D
  8
VISIBLE
 10
0.2156250000000001
 20
2.069000000000001
 30
0.125
 11
0.125
 21
2.069000000000001
 31
0.125
  0
LINE
  5
F493E
  8
VISIBLE
 10
0.2156250000000001
 20
2.069000000000001
 30
0.125
 11
0.2156250000000001
 21
2.15625
 31
0.125
  0
LINE
  5
F493F
  8
VISIBLE
 10
0.2156250000000001
 20
2.15625
 30
0.125
 11
0.3250000000000001
 21
2.15625
 31
0.125
  0
LINE
  5
F4940
  8
VISIBLE
 10
0.3250000000000001
 20
2.15625
 30
0.125
 11
0.3250000000000001
 21
2.069000000000001
 31
0.125
  0
LINE
  5
F4941
  8
VISIBLE
 10
0.3750000000000001
 20
2.069000000000001
 30
0.125
 11
0.3250000000000001
 21
2.069000000000001
 31
0.125
  0
LINE
  5
F4942
  8
VISIBLE
 10
0.3750000000000001
 20
1.931
 30
0.125
 11
0.3750000000000001
 21
2.069000000000001
 31
0.125
  0
LINE
  5
F4943
  8
VISIBLE
 10
0.325
 20
1.931
 30
0.125
 11
0.3750000000000001
 21
1.931
 31
0.125
  0
LINE
  5
F4944
  8
VISIBLE
 10
0.325
 20
1.931
 30
0.125
 11
0.325
 21
1.843750000000001
 31
0.125
  0
LINE
  5
F4945
  8
VISIBLE
 10
0.325
 20
1.843750000000001
 30
0.125
 11
0.215625
 21
1.843750000000001
 31
0.125
  0
LINE
  5
F4946
  8
VISIBLE
 10
0.215625
 20
1.843750000000001
 30
0.125
 11
0.215625
 21
1.931
 31
0.125
  0
LINE
  5
F4947
  8
VISIBLE
 10
0.1249999999999999
 20
1.931
 30
0.125
 11
0.215625
 21
1.931
 31
0.125
  0
LINE
  5
F4948
  8
VISIBLE
 10
0.1249999999999999
 20
1.750000000000001
 30
0.125
 11
0.1249999999999999
 21
1.931
 31
0.125
  0
LINE
  5
F4949
  8
VISIBLE
 10
-0.0000000000000001
 20
1.750000000000001
 30
0.125
 11
0.1249999999999999
 21
1.750000000000001
 31
0.125
  0
LINE
  5
F494A
  8
VISIBLE
 10
0.0
 20
0.9999999999999997
 30
0.125
 11
-0.0000000000000001
 21
1.750000000000001
 31
0.125
  0
LINE
  5
F494B
  8
VISIBLE
 10
0.125
 20
0.9999999999999997
 30
0.125
 11
0.0
 21
0.9999999999999997
 31
0.125
  0
LINE
  5
F494C
  8
VISIBLE
 10
0.125
 20
0.8190000000000002
 30
0.125
 11
0.125
 21
0.9999999999999997
 31
0.125
  0
LINE
  5
F494D
  8
VISIBLE
 10
0.2156250000000001
 20
0.8190000000000002
 30
0.125
 11
0.125
 21
0.8190000000000002
 31
0.125
  0
LINE
  5
F494E
  8
VISIBLE
 10
0.2156250000000001
 20
0.8190000000000002
 30
0.125
 11
0.2156250000000001
 21
0.9062499999999997
 31
0.125
  0
LINE
  5
F494F
  8
VISIBLE
 10
0.2156250000000001
 20
0.9062499999999997
 30
0.125
 11
0.3250000000000001
 21
0.9062499999999997
 31
0.125
  0
LINE
  5
F4950
  8
VISIBLE
 10
0.3250000000000001
 20
0.9062499999999997
 30
0.125
 11
0.3250000000000001
 21
0.8190000000000002
 31
0.125
  0
LINE
  5
F4951
  8
VISIBLE
 10
0.3750000000000001
 20
0.8190000000000002
 30
0.125
 11
0.3250000000000001
 21
0.8190000000000002
 31
0.125
  0
LINE
  5
F4952
  8
VISIBLE
 10
0.3750000000000001
 20
0.6809999999999996
 30
0.125
 11
0.3750000000000001
 21
0.8190000000000002
 31
0.125
  0
LINE
  5
F4953
  8
VISIBLE
 10
0.325
 20
0.6809999999999996
 30
0.125
 11
0.3750000000000001
 21
0.6809999999999996
 31
0.125
  0
LINE
  5
F4954
  8
VISIBLE
 10
0.325
 20
0.6809999999999996
 30
0.125
 11
0.325
 21
0.5937500000000002
 31
0.125
  0
LINE
  5
F4955
  8
VISIBLE
 10
0.325
 20
0.5937500000000002
 30
0.125
 11
0.215625
 21
0.5937500000000002
 31
0.125
  0
LINE
  5
F4956
  8
VISIBLE
 10
0.215625
 20
0.5937500000000002
 30
0.125
 11
0.215625
 21
0.6809999999999996
 31
0.125
  0
LINE
  5
F4957
  8
VISIBLE
 10
0.1249999999999999
 20
0.6809999999999996
 30
0.125
 11
0.215625
 21
0.6809999999999996
 31
0.125
  0
LINE
  5
F4958
  8
VISIBLE
 10
0.1249999999999999
 20
0.5000000000000001
 30
0.125
 11
0.1249999999999999
 21
0.6809999999999996
 31
0.125
  0
LINE
  5
F4959
  8
VISIBLE
 10
-0.0000000000000001
 20
0.5000000000000001
 30
0.125
 11
0.1249999999999999
 21
0.5000000000000001
 31
0.125
  0
ENDSEC
  0
EOF
