  0
SECTION
  2
HEADER
  9
$ACADVER
  1
AC1009
  9
$DWGCODEPAGE
  3
undefined
  9
$INSBASE
 10
0.0
 20
0.0
 30
0.0
  9
$EXTMIN
 10
1.000000000000000E+20
 20
1.000000000000000E+20
 30
1.000000000000000E+20
  9
$EXTMAX
 10
-1.000000000000000E+20
 20
-1.000000000000000E+20
 30
-1.000000000000000E+20
  9
$LIMMIN
 10
0.0
 20
0.0
  9
$LIMMAX
 10
12.0
 20
9.0
  9
$ORTHOMODE
 70
     0
  9
$REGENMODE
 70
     1
  9
$FILLMODE
 70
     1
  9
$QTEXTMODE
 70
     0
  9
$MIRRTEXT
 70
     1
  9
$DRAGMODE
 70
     2
  9
$LTSCALE
 40
1.0
  9
$OSMODE
 70
    37
  9
$ATTMODE
 70
     1
  9
$TEXTSIZE
 40
0.2
  9
$TRACEWID
 40
0.05
  9
$TEXTSTYLE
  7
STANDARD
  9
$CLAYER
  8
0
  9
$CELTYPE
  6
BYLAYER
  9
$CECOLOR
 62
   256
  9
$DIMSCALE
 40
1.0
  9
$DIMASZ
 40
0.18
  9
$DIMEXO
 40
0.0625
  9
$DIMDLI
 40
0.38
  9
$DIMRND
 40
0.0
  9
$DIMDLE
 40
0.0
  9
$DIMEXE
 40
0.18
  9
$DIMTP
 40
0.0
  9
$DIMTM
 40
0.0
  9
$DIMTXT
 40
0.18
  9
$DIMCEN
 40
0.09
  9
$DIMTSZ
 40
0.0
  9
$DIMTOL
 70
     0
  9
$DIMLIM
 70
     0
  9
$DIMTIH
 70
     1
  9
$DIMTOH
 70
     1
  9
$DIMSE1
 70
     0
  9
$DIMSE2
 70
     0
  9
$DIMTAD
 70
     0
  9
$DIMZIN
 70
     0
  9
$DIMBLK
  1

  9
$DIMASO
 70
     1
  9
$DIMSHO
 70
     1
  9
$DIMPOST
  1

  9
$DIMAPOST
  1

  9
$DIMALT
 70
     0
  9
$DIMALTD
 70
     2
  9
$DIMALTF
 40
25.4
  9
$DIMLFAC
 40
1.0
  9
$DIMTOFL
 70
     0
  9
$DIMTVP
 40
0.0
  9
$DIMTIX
 70
     0
  9
$DIMSOXD
 70
     0
  9
$DIMSAH
 70
     0
  9
$DIMBLK1
  1

  9
$DIMBLK2
  1

  9
$DIMSTYLE
  2
STANDARD
  9
$DIMCLRD
 70
     0
  9
$DIMCLRE
 70
     0
  9
$DIMCLRT
 70
     0
  9
$DIMTFAC
 40
1.0
  9
$DIMGAP
 40
0.09
  9
$LUNITS
 70
     2
  9
$LUPREC
 70
     4
  9
$SKETCHINC
 40
0.1
  9
$FILLETRAD
 40
0.5
  9
$AUNITS
 70
     0
  9
$AUPREC
 70
     0
  9
$MENU
  1
.
  9
$ELEVATION
 40
0.0
  9
$PELEVATION
 40
0.0
  9
$THICKNESS
 40
0.0
  9
$LIMCHECK
 70
     0
  9
$CHAMFERA
 40
0.0
  9
$CHAMFERB
 40
0.0
  9
$SKPOLY
 70
     0
  9
$TDCREATE
 40
2457147.219965278
  9
$TDUPDATE
 40
2457147.219965278
  9
$TDINDWG
 40
0.0000000116
  9
$TDUSRTIMER
 40
0.0000000116
  9
$USRTIMER
 70
     1
  9
$ANGBASE
 50
0.0
  9
$ANGDIR
 70
     0
  9
$PDMODE
 70
     0
  9
$PDSIZE
 40
0.0
  9
$PLINEWID
 40
0.0
  9
$COORDS
 70
     1
  9
$SPLFRAME
 70
     0
  9
$SPLINETYPE
 70
     6
  9
$SPLINESEGS
 70
     8
  9
$ATTDIA
 70
     0
  9
$ATTREQ
 70
     1
  9
$HANDLING
 70
     1
  9
$HANDSEED
  5
100004DB
  9
$SURFTAB1
 70
     6
  9
$SURFTAB2
 70
     6
  9
$SURFTYPE
 70
     6
  9
$SURFU
 70
     6
  9
$SURFV
 70
     6
  9
$UCSNAME
  2

  9
$UCSORG
 10
0.0
 20
0.0
 30
0.0
  9
$UCSXDIR
 10
1.0
 20
0.0
 30
0.0
  9
$UCSYDIR
 10
0.0
 20
1.0
 30
0.0
  9
$PUCSNAME
  2

  9
$PUCSORG
 10
0.0
 20
0.0
 30
0.0
  9
$PUCSXDIR
 10
1.0
 20
0.0
 30
0.0
  9
$PUCSYDIR
 10
0.0
 20
1.0
 30
0.0
  9
$USERI1
 70
     0
  9
$USERI2
 70
     0
  9
$USERI3
 70
     0
  9
$USERI4
 70
     0
  9
$USERI5
 70
     0
  9
$USERR1
 40
0.0
  9
$USERR2
 40
0.0
  9
$USERR3
 40
0.0
  9
$USERR4
 40
0.0
  9
$USERR5
 40
0.0
  9
$WORLDVIEW
 70
     1
  9
$SHADEDGE
 70
     3
  9
$SHADEDIF
 70
    70
  9
$TILEMODE
 70
     1
  9
$MAXACTVP
 70
    64
  9
$PLIMCHECK
 70
     0
  9
$PEXTMIN
 10
1.000000000000000E+20
 20
1.000000000000000E+20
 30
1.000000000000000E+20
  9
$PEXTMAX
 10
-1.000000000000000E+20
 20
-1.000000000000000E+20
 30
-1.000000000000000E+20
  9
$PLIMMIN
 10
0.0
 20
0.0
  9
$PLIMMAX
 10
12.0
 20
9.0
  9
$UNITMODE
 70
     0
  9
$VISRETAIN
 70
     1
  9
$PLINEGEN
 70
     0
  9
$PSLTSCALE
 70
     1
  0
ENDSEC
  0
SECTION
  2
TABLES
  0
TABLE
  2
VPORT
 70
     1
  0
VPORT
  2
*ACTIVE
 70
     0
 10
0.0
 20
0.0
 11
1.0
 21
1.0
 12
10.42990654205607
 22
4.5
 13
0.0
 23
0.0
 14
0.5
 24
0.5
 15
0.5
 25
0.5
 16
0.0
 26
0.0
 36
1.0
 17
0.0
 27
0.0
 37
0.0
 40
9.0
 41
1.972972972850329
 42
50.0
 43
0.0
 44
0.0
 50
0.0
 51
0.0
 71
     0
 72
   100
 73
     1
 74
     3
 75
     0
 76
     0
 77
     0
 78
     0
  0
ENDTAB
  0
TABLE
  2
LTYPE
 70
     5
  0
LTYPE
  2
CONTINUOUS
 70
     0
  3
Solid line
 72
    65
 73
     0
 40
0.0
  0
LTYPE
  2
HIDDEN
 70
     0
  3
Hidden line ____ ____ ____ ____ 
 72
    83
 73
     2
 40
0.125
 49
0.25
 49
-0.125
  0
LTYPE
  2
PHANTOM
 70
     0
  3
Phantom line ______  __  __  ______  __  __
 72
    83
 73
     6
 40
0.5
 49
0.625
 49
-0.125
 49
0.125
 49
-0.125
 49
0.125
 49
-0.125
  0
LTYPE
  2
CENTER
 70
     0
  3
Center line ____ _ ____ _ ____ _
 72
    83
 73
     4
 40
0.5
 49
0.625
 49
-0.125
 49
0.125
 49
-0.125
  0
LTYPE
  2
DASHED
 70
     0
  3
Dashed line __ __ __ __
 72
    83
 73
     2
 40
0.25
 49
0.5
 49
-0.25
  0
ENDTAB
  0
TABLE
  2
LAYER
 70
     3
  0
LAYER
  2
0
 70
     0
 62
     7
  6
CONTINUOUS
  0
LAYER
  2
HIDDEN
 70
     0
 62
    -7
  6
HIDDEN
  0
LAYER
  2
VISIBLE
 70
     0
 62
     7
  6
CONTINUOUS
  0
ENDTAB
  0
TABLE
  2
STYLE
 70
     2
  0
STYLE
  2
STANDARD
 70
     0
 40
0.0
 41
1.0
 50
0.0
 71
     0
 42
0.2
  3
txt
  4

  0
STYLE
  2
ODATTFSTYLE
 70
     0
 40
0.0
 41
1.0
 50
0.0
 71
     0
 42
0.2
  3
Verdana.ttf
  4

  0
ENDTAB
  0
TABLE
  2
VIEW
 70
     0
  0
ENDTAB
  0
TABLE
  2
UCS
 70
     0
  0
ENDTAB
  0
TABLE
  2
APPID
 70
     1
  0
APPID
  2
ACAD
 70
     0
  0
ENDTAB
  0
TABLE
  2
DIMSTYLE
 70
     1
  0
DIMSTYLE
  2
STANDARD
 70
     0
  3

  4

  5

  6

  7

 40
1.0
 41
0.18
 42
0.0625
 43
0.38
 44
0.18
 45
0.0
 46
0.0
 47
0.0
 48
0.0
140
0.18
141
0.09
142
0.0
143
25.4
144
1.0
145
0.0
146
1.0
147
0.09
 71
     0
 72
     0
 73
     1
 74
     1
 75
     0
 76
     0
 77
     0
 78
     0
170
     0
171
     2
172
     0
173
     0
174
     0
175
     0
176
     0
177
     0
178
     0
  0
ENDTAB
  0
ENDSEC
  0
SECTION
  2
BLOCKS
  0
BLOCK
  8
0
  2
$MODEL_SPACE
 70
     0
 10
0.0
 20
0.0
 30
0.0
  3
$MODEL_SPACE
  1

  0
ENDBLK
  5
21
  8
0
  0
BLOCK
 67
     1
  8
0
  2
$PAPER_SPACE
 70
     0
 10
0.0
 20
0.0
 30
0.0
  3
$PAPER_SPACE
  1

  0
ENDBLK
  5
1D
 67
     1
  8
0
  0
ENDSEC
  0
SECTION
  2
ENTITIES
  0
POLYLINE
  5
F4A45
  8
VISIBLE
 10
0.0
 20
0.0
 30
0.0
 66
     1
 70
     8
  0
VERTEX
  5
10000028
  8
VISIBLE
 10
1.825000000000001
 20
0.0750000000000005
 30
0.125
 70
    32
  0
VERTEX
  5
10000029
  8
VISIBLE
 10
1.823828506469727
 20
0.0756160736083989
 30
0.125
 70
    32
  0
VERTEX
  5
1000002A
  8
VISIBLE
 10
1.822659301757813
 20
0.077438354492188
 30
0.125
 70
    32
  0
VERTEX
  5
1000002B
  8
VISIBLE
 10
1.8203369140625
 20
0.0845458984375005
 30
0.125
 70
    32
  0
VERTEX
  5
1000002C
  8
VISIBLE
 10
1.8158203125
 20
0.1115234375000005
 30
0.125
 70
    32
  0
VERTEX
  5
1000002D
  8
VISIBLE
 10
1.8115966796875
 20
0.1534423828125005
 30
0.125
 70
    32
  0
VERTEX
  5
1000002E
  8
VISIBLE
 10
1.8078125
 20
0.2078125000000006
 30
0.125
 70
    32
  0
VERTEX
  5
1000002F
  8
VISIBLE
 10
1.803703703703704
 20
0.2953703703703709
 30
0.125
 70
    32
  0
VERTEX
  5
10000030
  8
VISIBLE
 10
1.800983796296297
 20
0.3947337962962968
 30
0.125
 70
    32
  0
VERTEX
  5
10000031
  8
VISIBLE
 10
1.8
 20
0.5000000000000006
 30
0.125
 70
    32
  0
VERTEX
  5
10000032
  8
VISIBLE
 10
1.800983796296297
 20
0.6052662037037044
 30
0.125
 70
    32
  0
VERTEX
  5
10000033
  8
VISIBLE
 10
1.803703703703704
 20
0.7046296296296304
 30
0.125
 70
    32
  0
VERTEX
  5
10000034
  8
VISIBLE
 10
1.8078125
 20
0.7921875000000005
 30
0.125
 70
    32
  0
VERTEX
  5
10000035
  8
VISIBLE
 10
1.8115966796875
 20
0.8465576171875006
 30
0.125
 70
    32
  0
VERTEX
  5
10000036
  8
VISIBLE
 10
1.8158203125
 20
0.8884765625000005
 30
0.125
 70
    32
  0
VERTEX
  5
10000037
  8
VISIBLE
 10
1.8203369140625
 20
0.9154541015625005
 30
0.125
 70
    32
  0
VERTEX
  5
10000038
  8
VISIBLE
 10
1.822659301757813
 20
0.922561645507813
 30
0.125
 70
    32
  0
VERTEX
  5
10000039
  8
VISIBLE
 10
1.823828506469726
 20
0.924383926391602
 30
0.125
 70
    32
  0
VERTEX
  5
1000003A
  8
VISIBLE
 10
1.825
 20
0.9250000000000004
 30
0.125
 70
    32
  0
VERTEX
  5
1000003B
  8
VISIBLE
 10
1.826171493530274
 20
0.924383926391602
 30
0.125
 70
    32
  0
VERTEX
  5
1000003C
  8
VISIBLE
 10
1.827340698242188
 20
0.922561645507813
 30
0.125
 70
    32
  0
VERTEX
  5
1000003D
  8
VISIBLE
 10
1.8296630859375
 20
0.9154541015625004
 30
0.125
 70
    32
  0
VERTEX
  5
1000003E
  8
VISIBLE
 10
1.8341796875
 20
0.8884765625000005
 30
0.125
 70
    32
  0
VERTEX
  5
1000003F
  8
VISIBLE
 10
1.8384033203125
 20
0.8465576171875006
 30
0.125
 70
    32
  0
VERTEX
  5
10000040
  8
VISIBLE
 10
1.8421875
 20
0.7921875000000004
 30
0.125
 70
    32
  0
VERTEX
  5
10000041
  8
VISIBLE
 10
1.846296296296297
 20
0.7046296296296304
 30
0.125
 70
    32
  0
VERTEX
  5
10000042
  8
VISIBLE
 10
1.849016203703704
 20
0.6052662037037043
 30
0.125
 70
    32
  0
VERTEX
  5
10000043
  8
VISIBLE
 10
1.850000000000001
 20
0.5000000000000004
 30
0.125
 70
    32
  0
VERTEX
  5
10000044
  8
VISIBLE
 10
1.849016203703704
 20
0.3947337962962968
 30
0.125
 70
    32
  0
VERTEX
  5
10000045
  8
VISIBLE
 10
1.846296296296297
 20
0.295370370370371
 30
0.125
 70
    32
  0
VERTEX
  5
10000046
  8
VISIBLE
 10
1.842187500000001
 20
0.2078125000000005
 30
0.125
 70
    32
  0
VERTEX
  5
10000047
  8
VISIBLE
 10
1.838403320312501
 20
0.1534423828125005
 30
0.125
 70
    32
  0
VERTEX
  5
10000048
  8
VISIBLE
 10
1.8341796875
 20
0.1115234375000005
 30
0.125
 70
    32
  0
VERTEX
  5
10000049
  8
VISIBLE
 10
1.829663085937501
 20
0.0845458984375005
 30
0.125
 70
    32
  0
VERTEX
  5
1000004A
  8
VISIBLE
 10
1.827340698242188
 20
0.077438354492188
 30
0.125
 70
    32
  0
VERTEX
  5
1000004B
  8
VISIBLE
 10
1.826171493530274
 20
0.0756160736083989
 30
0.125
 70
    32
  0
VERTEX
  5
1000004C
  8
VISIBLE
 10
1.825000000000001
 20
0.0750000000000005
 30
0.125
 70
    32
  0
SEQEND
  5
100004AE
  8
VISIBLE
  0
POLYLINE
  5
F4A46
  8
VISIBLE
 10
0.0
 20
0.0
 30
0.0
 66
     1
 70
     8
  0
VERTEX
  5
1000004F
  8
VISIBLE
 10
1.725000000000001
 20
0.0750000000000005
 30
0.125
 70
    32
  0
VERTEX
  5
10000050
  8
VISIBLE
 10
1.723828506469727
 20
0.0756160736083989
 30
0.125
 70
    32
  0
VERTEX
  5
10000051
  8
VISIBLE
 10
1.722659301757813
 20
0.077438354492188
 30
0.125
 70
    32
  0
VERTEX
  5
10000052
  8
VISIBLE
 10
1.720336914062501
 20
0.0845458984375004
 30
0.125
 70
    32
  0
VERTEX
  5
10000053
  8
VISIBLE
 10
1.715820312500001
 20
0.1115234375000005
 30
0.125
 70
    32
  0
VERTEX
  5
10000054
  8
VISIBLE
 10
1.7115966796875
 20
0.1534423828125005
 30
0.125
 70
    32
  0
VERTEX
  5
10000055
  8
VISIBLE
 10
1.7078125
 20
0.2078125000000005
 30
0.125
 70
    32
  0
VERTEX
  5
10000056
  8
VISIBLE
 10
1.703703703703704
 20
0.2953703703703708
 30
0.125
 70
    32
  0
VERTEX
  5
10000057
  8
VISIBLE
 10
1.700983796296297
 20
0.3947337962962968
 30
0.125
 70
    32
  0
VERTEX
  5
10000058
  8
VISIBLE
 10
1.7
 20
0.5000000000000006
 30
0.125
 70
    32
  0
VERTEX
  5
10000059
  8
VISIBLE
 10
1.700983796296297
 20
0.6052662037037042
 30
0.125
 70
    32
  0
VERTEX
  5
1000005A
  8
VISIBLE
 10
1.703703703703704
 20
0.7046296296296304
 30
0.125
 70
    32
  0
VERTEX
  5
1000005B
  8
VISIBLE
 10
1.7078125
 20
0.7921875000000005
 30
0.125
 70
    32
  0
VERTEX
  5
1000005C
  8
VISIBLE
 10
1.7115966796875
 20
0.8465576171875006
 30
0.125
 70
    32
  0
VERTEX
  5
1000005D
  8
VISIBLE
 10
1.7158203125
 20
0.8884765625000005
 30
0.125
 70
    32
  0
VERTEX
  5
1000005E
  8
VISIBLE
 10
1.7203369140625
 20
0.9154541015625004
 30
0.125
 70
    32
  0
VERTEX
  5
1000005F
  8
VISIBLE
 10
1.722659301757812
 20
0.922561645507813
 30
0.125
 70
    32
  0
VERTEX
  5
10000060
  8
VISIBLE
 10
1.723828506469726
 20
0.924383926391602
 30
0.125
 70
    32
  0
VERTEX
  5
10000061
  8
VISIBLE
 10
1.725
 20
0.9250000000000004
 30
0.125
 70
    32
  0
VERTEX
  5
10000062
  8
VISIBLE
 10
1.726171493530273
 20
0.924383926391602
 30
0.125
 70
    32
  0
VERTEX
  5
10000063
  8
VISIBLE
 10
1.727340698242187
 20
0.9225616455078129
 30
0.125
 70
    32
  0
VERTEX
  5
10000064
  8
VISIBLE
 10
1.7296630859375
 20
0.9154541015625004
 30
0.125
 70
    32
  0
VERTEX
  5
10000065
  8
VISIBLE
 10
1.7341796875
 20
0.8884765625000005
 30
0.125
 70
    32
  0
VERTEX
  5
10000066
  8
VISIBLE
 10
1.7384033203125
 20
0.8465576171875004
 30
0.125
 70
    32
  0
VERTEX
  5
10000067
  8
VISIBLE
 10
1.7421875
 20
0.7921875000000004
 30
0.125
 70
    32
  0
VERTEX
  5
10000068
  8
VISIBLE
 10
1.746296296296297
 20
0.70462962962963
 30
0.125
 70
    32
  0
VERTEX
  5
10000069
  8
VISIBLE
 10
1.749016203703704
 20
0.6052662037037043
 30
0.125
 70
    32
  0
VERTEX
  5
1000006A
  8
VISIBLE
 10
1.750000000000001
 20
0.5000000000000004
 30
0.125
 70
    32
  0
VERTEX
  5
1000006B
  8
VISIBLE
 10
1.749016203703704
 20
0.3947337962962968
 30
0.125
 70
    32
  0
VERTEX
  5
1000006C
  8
VISIBLE
 10
1.746296296296297
 20
0.2953703703703709
 30
0.125
 70
    32
  0
VERTEX
  5
1000006D
  8
VISIBLE
 10
1.742187500000001
 20
0.2078125000000004
 30
0.125
 70
    32
  0
VERTEX
  5
1000006E
  8
VISIBLE
 10
1.738403320312501
 20
0.1534423828125004
 30
0.125
 70
    32
  0
VERTEX
  5
1000006F
  8
VISIBLE
 10
1.734179687500001
 20
0.1115234375000005
 30
0.125
 70
    32
  0
VERTEX
  5
10000070
  8
VISIBLE
 10
1.7296630859375
 20
0.0845458984375004
 30
0.125
 70
    32
  0
VERTEX
  5
10000071
  8
VISIBLE
 10
1.727340698242188
 20
0.0774383544921879
 30
0.125
 70
    32
  0
VERTEX
  5
10000072
  8
VISIBLE
 10
1.726171493530274
 20
0.0756160736083989
 30
0.125
 70
    32
  0
VERTEX
  5
10000073
  8
VISIBLE
 10
1.725000000000001
 20
0.0750000000000005
 30
0.125
 70
    32
  0
SEQEND
  5
100004AF
  8
VISIBLE
  0
POLYLINE
  5
F4A47
  8
VISIBLE
 10
0.0
 20
0.0
 30
0.0
 66
     1
 70
     8
  0
VERTEX
  5
10000076
  8
VISIBLE
 10
1.625000000000001
 20
0.0750000000000004
 30
0.125
 70
    32
  0
VERTEX
  5
10000077
  8
VISIBLE
 10
1.623828506469727
 20
0.0756160736083988
 30
0.125
 70
    32
  0
VERTEX
  5
10000078
  8
VISIBLE
 10
1.622659301757813
 20
0.0774383544921879
 30
0.125
 70
    32
  0
VERTEX
  5
10000079
  8
VISIBLE
 10
1.620336914062501
 20
0.0845458984375004
 30
0.125
 70
    32
  0
VERTEX
  5
1000007A
  8
VISIBLE
 10
1.615820312500001
 20
0.1115234375000004
 30
0.125
 70
    32
  0
VERTEX
  5
1000007B
  8
VISIBLE
 10
1.611596679687501
 20
0.1534423828125004
 30
0.125
 70
    32
  0
VERTEX
  5
1000007C
  8
VISIBLE
 10
1.6078125
 20
0.2078125000000005
 30
0.125
 70
    32
  0
VERTEX
  5
1000007D
  8
VISIBLE
 10
1.603703703703704
 20
0.2953703703703708
 30
0.125
 70
    32
  0
VERTEX
  5
1000007E
  8
VISIBLE
 10
1.600983796296297
 20
0.3947337962962968
 30
0.125
 70
    32
  0
VERTEX
  5
1000007F
  8
VISIBLE
 10
1.6
 20
0.5000000000000006
 30
0.125
 70
    32
  0
VERTEX
  5
10000080
  8
VISIBLE
 10
1.600983796296297
 20
0.6052662037037042
 30
0.125
 70
    32
  0
VERTEX
  5
10000081
  8
VISIBLE
 10
1.603703703703704
 20
0.7046296296296304
 30
0.125
 70
    32
  0
VERTEX
  5
10000082
  8
VISIBLE
 10
1.6078125
 20
0.7921875000000005
 30
0.125
 70
    32
  0
VERTEX
  5
10000083
  8
VISIBLE
 10
1.6115966796875
 20
0.8465576171875006
 30
0.125
 70
    32
  0
VERTEX
  5
10000084
  8
VISIBLE
 10
1.6158203125
 20
0.8884765625000005
 30
0.125
 70
    32
  0
VERTEX
  5
10000085
  8
VISIBLE
 10
1.6203369140625
 20
0.9154541015625004
 30
0.125
 70
    32
  0
VERTEX
  5
10000086
  8
VISIBLE
 10
1.622659301757812
 20
0.922561645507813
 30
0.125
 70
    32
  0
VERTEX
  5
10000087
  8
VISIBLE
 10
1.623828506469726
 20
0.924383926391602
 30
0.125
 70
    32
  0
VERTEX
  5
10000088
  8
VISIBLE
 10
1.625
 20
0.9250000000000004
 30
0.125
 70
    32
  0
VERTEX
  5
10000089
  8
VISIBLE
 10
1.626171493530274
 20
0.924383926391602
 30
0.125
 70
    32
  0
VERTEX
  5
1000008A
  8
VISIBLE
 10
1.627340698242188
 20
0.9225616455078129
 30
0.125
 70
    32
  0
VERTEX
  5
1000008B
  8
VISIBLE
 10
1.6296630859375
 20
0.9154541015625004
 30
0.125
 70
    32
  0
VERTEX
  5
1000008C
  8
VISIBLE
 10
1.6341796875
 20
0.8884765625000005
 30
0.125
 70
    32
  0
VERTEX
  5
1000008D
  8
VISIBLE
 10
1.6384033203125
 20
0.8465576171875004
 30
0.125
 70
    32
  0
VERTEX
  5
1000008E
  8
VISIBLE
 10
1.6421875
 20
0.7921875000000004
 30
0.125
 70
    32
  0
VERTEX
  5
1000008F
  8
VISIBLE
 10
1.646296296296297
 20
0.70462962962963
 30
0.125
 70
    32
  0
VERTEX
  5
10000090
  8
VISIBLE
 10
1.649016203703704
 20
0.6052662037037043
 30
0.125
 70
    32
  0
VERTEX
  5
10000091
  8
VISIBLE
 10
1.650000000000001
 20
0.5000000000000004
 30
0.125
 70
    32
  0
VERTEX
  5
10000092
  8
VISIBLE
 10
1.649016203703705
 20
0.3947337962962968
 30
0.125
 70
    32
  0
VERTEX
  5
10000093
  8
VISIBLE
 10
1.646296296296297
 20
0.2953703703703709
 30
0.125
 70
    32
  0
VERTEX
  5
10000094
  8
VISIBLE
 10
1.642187500000001
 20
0.2078125000000004
 30
0.125
 70
    32
  0
VERTEX
  5
10000095
  8
VISIBLE
 10
1.638403320312501
 20
0.1534423828125004
 30
0.125
 70
    32
  0
VERTEX
  5
10000096
  8
VISIBLE
 10
1.6341796875
 20
0.1115234375000004
 30
0.125
 70
    32
  0
VERTEX
  5
10000097
  8
VISIBLE
 10
1.629663085937501
 20
0.0845458984375004
 30
0.125
 70
    32
  0
VERTEX
  5
10000098
  8
VISIBLE
 10
1.627340698242188
 20
0.0774383544921879
 30
0.125
 70
    32
  0
VERTEX
  5
10000099
  8
VISIBLE
 10
1.626171493530274
 20
0.0756160736083988
 30
0.125
 70
    32
  0
VERTEX
  5
1000009A
  8
VISIBLE
 10
1.625000000000001
 20
0.0750000000000004
 30
0.125
 70
    32
  0
SEQEND
  5
100004B0
  8
VISIBLE
  0
POLYLINE
  5
F4A48
  8
VISIBLE
 10
0.0
 20
0.0
 30
0.0
 66
     1
 70
     8
  0
VERTEX
  5
1000009D
  8
VISIBLE
 10
1.525000000000001
 20
0.0750000000000004
 30
0.125
 70
    32
  0
VERTEX
  5
1000009E
  8
VISIBLE
 10
1.523828506469727
 20
0.0756160736083988
 30
0.125
 70
    32
  0
VERTEX
  5
1000009F
  8
VISIBLE
 10
1.522659301757813
 20
0.0774383544921879
 30
0.125
 70
    32
  0
VERTEX
  5
100000A0
  8
VISIBLE
 10
1.5203369140625
 20
0.0845458984375004
 30
0.125
 70
    32
  0
VERTEX
  5
100000A1
  8
VISIBLE
 10
1.5158203125
 20
0.1115234375000004
 30
0.125
 70
    32
  0
VERTEX
  5
100000A2
  8
VISIBLE
 10
1.5115966796875
 20
0.1534423828125004
 30
0.125
 70
    32
  0
VERTEX
  5
100000A3
  8
VISIBLE
 10
1.5078125
 20
0.2078125000000004
 30
0.125
 70
    32
  0
VERTEX
  5
100000A4
  8
VISIBLE
 10
1.503703703703704
 20
0.2953703703703708
 30
0.125
 70
    32
  0
VERTEX
  5
100000A5
  8
VISIBLE
 10
1.500983796296297
 20
0.3947337962962967
 30
0.125
 70
    32
  0
VERTEX
  5
100000A6
  8
VISIBLE
 10
1.5
 20
0.5000000000000004
 30
0.125
 70
    32
  0
VERTEX
  5
100000A7
  8
VISIBLE
 10
1.500983796296297
 20
0.6052662037037041
 30
0.125
 70
    32
  0
VERTEX
  5
100000A8
  8
VISIBLE
 10
1.503703703703704
 20
0.70462962962963
 30
0.125
 70
    32
  0
VERTEX
  5
100000A9
  8
VISIBLE
 10
1.5078125
 20
0.7921875000000004
 30
0.125
 70
    32
  0
VERTEX
  5
100000AA
  8
VISIBLE
 10
1.5115966796875
 20
0.8465576171875004
 30
0.125
 70
    32
  0
VERTEX
  5
100000AB
  8
VISIBLE
 10
1.5158203125
 20
0.8884765625000005
 30
0.125
 70
    32
  0
VERTEX
  5
100000AC
  8
VISIBLE
 10
1.5203369140625
 20
0.9154541015625003
 30
0.125
 70
    32
  0
VERTEX
  5
100000AD
  8
VISIBLE
 10
1.522659301757812
 20
0.9225616455078127
 30
0.125
 70
    32
  0
VERTEX
  5
100000AE
  8
VISIBLE
 10
1.523828506469727
 20
0.9243839263916019
 30
0.125
 70
    32
  0
VERTEX
  5
100000AF
  8
VISIBLE
 10
1.525
 20
0.9250000000000004
 30
0.125
 70
    32
  0
VERTEX
  5
100000B0
  8
VISIBLE
 10
1.526171493530274
 20
0.9243839263916019
 30
0.125
 70
    32
  0
VERTEX
  5
100000B1
  8
VISIBLE
 10
1.527340698242188
 20
0.9225616455078127
 30
0.125
 70
    32
  0
VERTEX
  5
100000B2
  8
VISIBLE
 10
1.5296630859375
 20
0.9154541015625003
 30
0.125
 70
    32
  0
VERTEX
  5
100000B3
  8
VISIBLE
 10
1.5341796875
 20
0.8884765625000002
 30
0.125
 70
    32
  0
VERTEX
  5
100000B4
  8
VISIBLE
 10
1.5384033203125
 20
0.8465576171875004
 30
0.125
 70
    32
  0
VERTEX
  5
100000B5
  8
VISIBLE
 10
1.5421875
 20
0.7921875000000004
 30
0.125
 70
    32
  0
VERTEX
  5
100000B6
  8
VISIBLE
 10
1.546296296296297
 20
0.7046296296296299
 30
0.125
 70
    32
  0
VERTEX
  5
100000B7
  8
VISIBLE
 10
1.549016203703704
 20
0.6052662037037042
 30
0.125
 70
    32
  0
VERTEX
  5
100000B8
  8
VISIBLE
 10
1.55
 20
0.5000000000000004
 30
0.125
 70
    32
  0
VERTEX
  5
100000B9
  8
VISIBLE
 10
1.549016203703704
 20
0.3947337962962967
 30
0.125
 70
    32
  0
VERTEX
  5
100000BA
  8
VISIBLE
 10
1.546296296296297
 20
0.2953703703703708
 30
0.125
 70
    32
  0
VERTEX
  5
100000BB
  8
VISIBLE
 10
1.542187500000001
 20
0.2078125000000003
 30
0.125
 70
    32
  0
VERTEX
  5
100000BC
  8
VISIBLE
 10
1.538403320312501
 20
0.1534423828125003
 30
0.125
 70
    32
  0
VERTEX
  5
100000BD
  8
VISIBLE
 10
1.5341796875
 20
0.1115234375000004
 30
0.125
 70
    32
  0
VERTEX
  5
100000BE
  8
VISIBLE
 10
1.5296630859375
 20
0.0845458984375003
 30
0.125
 70
    32
  0
VERTEX
  5
100000BF
  8
VISIBLE
 10
1.527340698242188
 20
0.0774383544921879
 30
0.125
 70
    32
  0
VERTEX
  5
100000C0
  8
VISIBLE
 10
1.526171493530274
 20
0.0756160736083988
 30
0.125
 70
    32
  0
VERTEX
  5
100000C1
  8
VISIBLE
 10
1.525000000000001
 20
0.0750000000000004
 30
0.125
 70
    32
  0
SEQEND
  5
100004B1
  8
VISIBLE
  0
POLYLINE
  5
F4A49
  8
VISIBLE
 10
0.0
 20
0.0
 30
0.0
 66
     1
 70
     8
  0
VERTEX
  5
100000C4
  8
VISIBLE
 10
1.425
 20
0.0750000000000003
 30
0.125
 70
    32
  0
VERTEX
  5
100000C5
  8
VISIBLE
 10
1.423828506469727
 20
0.0756160736083987
 30
0.125
 70
    32
  0
VERTEX
  5
100000C6
  8
VISIBLE
 10
1.422659301757813
 20
0.0774383544921878
 30
0.125
 70
    32
  0
VERTEX
  5
100000C7
  8
VISIBLE
 10
1.420336914062501
 20
0.0845458984375003
 30
0.125
 70
    32
  0
VERTEX
  5
100000C8
  8
VISIBLE
 10
1.4158203125
 20
0.1115234375000003
 30
0.125
 70
    32
  0
VERTEX
  5
100000C9
  8
VISIBLE
 10
1.4115966796875
 20
0.1534423828125003
 30
0.125
 70
    32
  0
VERTEX
  5
100000CA
  8
VISIBLE
 10
1.4078125
 20
0.2078125000000003
 30
0.125
 70
    32
  0
VERTEX
  5
100000CB
  8
VISIBLE
 10
1.403703703703704
 20
0.2953703703703707
 30
0.125
 70
    32
  0
VERTEX
  5
100000CC
  8
VISIBLE
 10
1.400983796296297
 20
0.3947337962962967
 30
0.125
 70
    32
  0
VERTEX
  5
100000CD
  8
VISIBLE
 10
1.4
 20
0.5000000000000004
 30
0.125
 70
    32
  0
VERTEX
  5
100000CE
  8
VISIBLE
 10
1.400983796296297
 20
0.6052662037037041
 30
0.125
 70
    32
  0
VERTEX
  5
100000CF
  8
VISIBLE
 10
1.403703703703704
 20
0.70462962962963
 30
0.125
 70
    32
  0
VERTEX
  5
100000D0
  8
VISIBLE
 10
1.4078125
 20
0.7921875000000004
 30
0.125
 70
    32
  0
VERTEX
  5
100000D1
  8
VISIBLE
 10
1.4115966796875
 20
0.8465576171875004
 30
0.125
 70
    32
  0
VERTEX
  5
100000D2
  8
VISIBLE
 10
1.4158203125
 20
0.8884765625000002
 30
0.125
 70
    32
  0
VERTEX
  5
100000D3
  8
VISIBLE
 10
1.4203369140625
 20
0.9154541015625003
 30
0.125
 70
    32
  0
VERTEX
  5
100000D4
  8
VISIBLE
 10
1.422659301757812
 20
0.9225616455078127
 30
0.125
 70
    32
  0
VERTEX
  5
100000D5
  8
VISIBLE
 10
1.423828506469727
 20
0.9243839263916019
 30
0.125
 70
    32
  0
VERTEX
  5
100000D6
  8
VISIBLE
 10
1.425
 20
0.9250000000000004
 30
0.125
 70
    32
  0
VERTEX
  5
100000D7
  8
VISIBLE
 10
1.426171493530274
 20
0.9243839263916019
 30
0.125
 70
    32
  0
VERTEX
  5
100000D8
  8
VISIBLE
 10
1.427340698242188
 20
0.9225616455078127
 30
0.125
 70
    32
  0
VERTEX
  5
100000D9
  8
VISIBLE
 10
1.4296630859375
 20
0.9154541015625002
 30
0.125
 70
    32
  0
VERTEX
  5
100000DA
  8
VISIBLE
 10
1.4341796875
 20
0.8884765625000002
 30
0.125
 70
    32
  0
VERTEX
  5
100000DB
  8
VISIBLE
 10
1.4384033203125
 20
0.8465576171875004
 30
0.125
 70
    32
  0
VERTEX
  5
100000DC
  8
VISIBLE
 10
1.4421875
 20
0.7921875000000004
 30
0.125
 70
    32
  0
VERTEX
  5
100000DD
  8
VISIBLE
 10
1.446296296296296
 20
0.7046296296296299
 30
0.125
 70
    32
  0
VERTEX
  5
100000DE
  8
VISIBLE
 10
1.449016203703704
 20
0.6052662037037041
 30
0.125
 70
    32
  0
VERTEX
  5
100000DF
  8
VISIBLE
 10
1.450000000000001
 20
0.5000000000000004
 30
0.125
 70
    32
  0
VERTEX
  5
100000E0
  8
VISIBLE
 10
1.449016203703704
 20
0.3947337962962967
 30
0.125
 70
    32
  0
VERTEX
  5
100000E1
  8
VISIBLE
 10
1.446296296296297
 20
0.2953703703703708
 30
0.125
 70
    32
  0
VERTEX
  5
100000E2
  8
VISIBLE
 10
1.442187500000001
 20
0.2078125000000003
 30
0.125
 70
    32
  0
VERTEX
  5
100000E3
  8
VISIBLE
 10
1.438403320312501
 20
0.1534423828125003
 30
0.125
 70
    32
  0
VERTEX
  5
100000E4
  8
VISIBLE
 10
1.434179687500001
 20
0.1115234375000003
 30
0.125
 70
    32
  0
VERTEX
  5
100000E5
  8
VISIBLE
 10
1.429663085937501
 20
0.0845458984375003
 30
0.125
 70
    32
  0
VERTEX
  5
100000E6
  8
VISIBLE
 10
1.427340698242188
 20
0.0774383544921878
 30
0.125
 70
    32
  0
VERTEX
  5
100000E7
  8
VISIBLE
 10
1.426171493530274
 20
0.0756160736083987
 30
0.125
 70
    32
  0
VERTEX
  5
100000E8
  8
VISIBLE
 10
1.425
 20
0.0750000000000003
 30
0.125
 70
    32
  0
SEQEND
  5
100004B2
  8
VISIBLE
  0
POLYLINE
  5
F4A4A
  8
VISIBLE
 10
0.0
 20
0.0
 30
0.0
 66
     1
 70
     8
  0
VERTEX
  5
100000EB
  8
VISIBLE
 10
1.325000000000001
 20
0.0750000000000003
 30
0.125
 70
    32
  0
VERTEX
  5
100000EC
  8
VISIBLE
 10
1.323828506469727
 20
0.0756160736083987
 30
0.125
 70
    32
  0
VERTEX
  5
100000ED
  8
VISIBLE
 10
1.322659301757813
 20
0.0774383544921878
 30
0.125
 70
    32
  0
VERTEX
  5
100000EE
  8
VISIBLE
 10
1.320336914062501
 20
0.0845458984375003
 30
0.125
 70
    32
  0
VERTEX
  5
100000EF
  8
VISIBLE
 10
1.315820312500001
 20
0.1115234375000003
 30
0.125
 70
    32
  0
VERTEX
  5
100000F0
  8
VISIBLE
 10
1.3115966796875
 20
0.1534423828125003
 30
0.125
 70
    32
  0
VERTEX
  5
100000F1
  8
VISIBLE
 10
1.3078125
 20
0.2078125000000003
 30
0.125
 70
    32
  0
VERTEX
  5
100000F2
  8
VISIBLE
 10
1.303703703703704
 20
0.2953703703703707
 30
0.125
 70
    32
  0
VERTEX
  5
100000F3
  8
VISIBLE
 10
1.300983796296297
 20
0.3947337962962967
 30
0.125
 70
    32
  0
VERTEX
  5
100000F4
  8
VISIBLE
 10
1.3
 20
0.5000000000000004
 30
0.125
 70
    32
  0
VERTEX
  5
100000F5
  8
VISIBLE
 10
1.300983796296296
 20
0.6052662037037041
 30
0.125
 70
    32
  0
VERTEX
  5
100000F6
  8
VISIBLE
 10
1.303703703703704
 20
0.70462962962963
 30
0.125
 70
    32
  0
VERTEX
  5
100000F7
  8
VISIBLE
 10
1.3078125
 20
0.7921875000000004
 30
0.125
 70
    32
  0
VERTEX
  5
100000F8
  8
VISIBLE
 10
1.3115966796875
 20
0.8465576171875004
 30
0.125
 70
    32
  0
VERTEX
  5
100000F9
  8
VISIBLE
 10
1.3158203125
 20
0.8884765625000002
 30
0.125
 70
    32
  0
VERTEX
  5
100000FA
  8
VISIBLE
 10
1.3203369140625
 20
0.9154541015625003
 30
0.125
 70
    32
  0
VERTEX
  5
100000FB
  8
VISIBLE
 10
1.322659301757812
 20
0.9225616455078127
 30
0.125
 70
    32
  0
VERTEX
  5
100000FC
  8
VISIBLE
 10
1.323828506469727
 20
0.9243839263916019
 30
0.125
 70
    32
  0
VERTEX
  5
100000FD
  8
VISIBLE
 10
1.325
 20
0.9250000000000004
 30
0.125
 70
    32
  0
VERTEX
  5
100000FE
  8
VISIBLE
 10
1.326171493530273
 20
0.9243839263916019
 30
0.125
 70
    32
  0
VERTEX
  5
100000FF
  8
VISIBLE
 10
1.327340698242188
 20
0.9225616455078127
 30
0.125
 70
    32
  0
VERTEX
  5
10000100
  8
VISIBLE
 10
1.3296630859375
 20
0.9154541015625002
 30
0.125
 70
    32
  0
VERTEX
  5
10000101
  8
VISIBLE
 10
1.3341796875
 20
0.8884765625000002
 30
0.125
 70
    32
  0
VERTEX
  5
10000102
  8
VISIBLE
 10
1.3384033203125
 20
0.8465576171875004
 30
0.125
 70
    32
  0
VERTEX
  5
10000103
  8
VISIBLE
 10
1.3421875
 20
0.7921875000000004
 30
0.125
 70
    32
  0
VERTEX
  5
10000104
  8
VISIBLE
 10
1.346296296296297
 20
0.7046296296296299
 30
0.125
 70
    32
  0
VERTEX
  5
10000105
  8
VISIBLE
 10
1.349016203703704
 20
0.6052662037037041
 30
0.125
 70
    32
  0
VERTEX
  5
10000106
  8
VISIBLE
 10
1.350000000000001
 20
0.5000000000000003
 30
0.125
 70
    32
  0
VERTEX
  5
10000107
  8
VISIBLE
 10
1.349016203703704
 20
0.3947337962962967
 30
0.125
 70
    32
  0
VERTEX
  5
10000108
  8
VISIBLE
 10
1.346296296296297
 20
0.2953703703703708
 30
0.125
 70
    32
  0
VERTEX
  5
10000109
  8
VISIBLE
 10
1.342187500000001
 20
0.2078125000000003
 30
0.125
 70
    32
  0
VERTEX
  5
1000010A
  8
VISIBLE
 10
1.338403320312501
 20
0.1534423828125003
 30
0.125
 70
    32
  0
VERTEX
  5
1000010B
  8
VISIBLE
 10
1.3341796875
 20
0.1115234375000003
 30
0.125
 70
    32
  0
VERTEX
  5
1000010C
  8
VISIBLE
 10
1.3296630859375
 20
0.0845458984375003
 30
0.125
 70
    32
  0
VERTEX
  5
1000010D
  8
VISIBLE
 10
1.327340698242188
 20
0.0774383544921878
 30
0.125
 70
    32
  0
VERTEX
  5
1000010E
  8
VISIBLE
 10
1.326171493530274
 20
0.0756160736083987
 30
0.125
 70
    32
  0
VERTEX
  5
1000010F
  8
VISIBLE
 10
1.325000000000001
 20
0.0750000000000003
 30
0.125
 70
    32
  0
SEQEND
  5
100004B3
  8
VISIBLE
  0
POLYLINE
  5
F4A4B
  8
VISIBLE
 10
0.0
 20
0.0
 30
0.0
 66
     1
 70
     8
  0
VERTEX
  5
10000112
  8
VISIBLE
 10
1.225000000000001
 20
0.0750000000000002
 30
0.125
 70
    32
  0
VERTEX
  5
10000113
  8
VISIBLE
 10
1.223828506469727
 20
0.0756160736083987
 30
0.125
 70
    32
  0
VERTEX
  5
10000114
  8
VISIBLE
 10
1.222659301757813
 20
0.0774383544921877
 30
0.125
 70
    32
  0
VERTEX
  5
10000115
  8
VISIBLE
 10
1.2203369140625
 20
0.0845458984375002
 30
0.125
 70
    32
  0
VERTEX
  5
10000116
  8
VISIBLE
 10
1.2158203125
 20
0.1115234375000003
 30
0.125
 70
    32
  0
VERTEX
  5
10000117
  8
VISIBLE
 10
1.211596679687501
 20
0.1534423828125003
 30
0.125
 70
    32
  0
VERTEX
  5
10000118
  8
VISIBLE
 10
1.2078125
 20
0.2078125000000003
 30
0.125
 70
    32
  0
VERTEX
  5
10000119
  8
VISIBLE
 10
1.203703703703704
 20
0.2953703703703707
 30
0.125
 70
    32
  0
VERTEX
  5
1000011A
  8
VISIBLE
 10
1.200983796296297
 20
0.3947337962962966
 30
0.125
 70
    32
  0
VERTEX
  5
1000011B
  8
VISIBLE
 10
1.2
 20
0.5000000000000003
 30
0.125
 70
    32
  0
VERTEX
  5
1000011C
  8
VISIBLE
 10
1.200983796296296
 20
0.6052662037037041
 30
0.125
 70
    32
  0
VERTEX
  5
1000011D
  8
VISIBLE
 10
1.203703703703704
 20
0.7046296296296299
 30
0.125
 70
    32
  0
VERTEX
  5
1000011E
  8
VISIBLE
 10
1.2078125
 20
0.7921875000000004
 30
0.125
 70
    32
  0
VERTEX
  5
1000011F
  8
VISIBLE
 10
1.2115966796875
 20
0.8465576171875003
 30
0.125
 70
    32
  0
VERTEX
  5
10000120
  8
VISIBLE
 10
1.2158203125
 20
0.8884765625000002
 30
0.125
 70
    32
  0
VERTEX
  5
10000121
  8
VISIBLE
 10
1.2203369140625
 20
0.9154541015625002
 30
0.125
 70
    32
  0
VERTEX
  5
10000122
  8
VISIBLE
 10
1.222659301757812
 20
0.9225616455078127
 30
0.125
 70
    32
  0
VERTEX
  5
10000123
  8
VISIBLE
 10
1.223828506469727
 20
0.9243839263916019
 30
0.125
 70
    32
  0
VERTEX
  5
10000124
  8
VISIBLE
 10
1.225
 20
0.9250000000000004
 30
0.125
 70
    32
  0
VERTEX
  5
10000125
  8
VISIBLE
 10
1.226171493530273
 20
0.9243839263916019
 30
0.125
 70
    32
  0
VERTEX
  5
10000126
  8
VISIBLE
 10
1.227340698242188
 20
0.9225616455078127
 30
0.125
 70
    32
  0
VERTEX
  5
10000127
  8
VISIBLE
 10
1.2296630859375
 20
0.9154541015625002
 30
0.125
 70
    32
  0
VERTEX
  5
10000128
  8
VISIBLE
 10
1.2341796875
 20
0.8884765625000002
 30
0.125
 70
    32
  0
VERTEX
  5
10000129
  8
VISIBLE
 10
1.2384033203125
 20
0.8465576171875004
 30
0.125
 70
    32
  0
VERTEX
  5
1000012A
  8
VISIBLE
 10
1.2421875
 20
0.7921875000000004
 30
0.125
 70
    32
  0
VERTEX
  5
1000012B
  8
VISIBLE
 10
1.246296296296296
 20
0.7046296296296299
 30
0.125
 70
    32
  0
VERTEX
  5
1000012C
  8
VISIBLE
 10
1.249016203703704
 20
0.6052662037037041
 30
0.125
 70
    32
  0
VERTEX
  5
1000012D
  8
VISIBLE
 10
1.25
 20
0.5000000000000003
 30
0.125
 70
    32
  0
VERTEX
  5
1000012E
  8
VISIBLE
 10
1.249016203703704
 20
0.3947337962962966
 30
0.125
 70
    32
  0
VERTEX
  5
1000012F
  8
VISIBLE
 10
1.246296296296297
 20
0.2953703703703707
 30
0.125
 70
    32
  0
VERTEX
  5
10000130
  8
VISIBLE
 10
1.242187500000001
 20
0.2078125000000002
 30
0.125
 70
    32
  0
VERTEX
  5
10000131
  8
VISIBLE
 10
1.2384033203125
 20
0.1534423828125002
 30
0.125
 70
    32
  0
VERTEX
  5
10000132
  8
VISIBLE
 10
1.2341796875
 20
0.1115234375000002
 30
0.125
 70
    32
  0
VERTEX
  5
10000133
  8
VISIBLE
 10
1.2296630859375
 20
0.0845458984375002
 30
0.125
 70
    32
  0
VERTEX
  5
10000134
  8
VISIBLE
 10
1.227340698242188
 20
0.0774383544921877
 30
0.125
 70
    32
  0
VERTEX
  5
10000135
  8
VISIBLE
 10
1.226171493530274
 20
0.0756160736083987
 30
0.125
 70
    32
  0
VERTEX
  5
10000136
  8
VISIBLE
 10
1.225000000000001
 20
0.0750000000000002
 30
0.125
 70
    32
  0
SEQEND
  5
100004B4
  8
VISIBLE
  0
POLYLINE
  5
F4A4C
  8
VISIBLE
 10
0.0
 20
0.0
 30
0.0
 66
     1
 70
     8
  0
VERTEX
  5
10000139
  8
VISIBLE
 10
1.125
 20
0.0750000000000002
 30
0.125
 70
    32
  0
VERTEX
  5
1000013A
  8
VISIBLE
 10
1.123828506469727
 20
0.0756160736083986
 30
0.125
 70
    32
  0
VERTEX
  5
1000013B
  8
VISIBLE
 10
1.122659301757813
 20
0.0774383544921877
 30
0.125
 70
    32
  0
VERTEX
  5
1000013C
  8
VISIBLE
 10
1.1203369140625
 20
0.0845458984375002
 30
0.125
 70
    32
  0
VERTEX
  5
1000013D
  8
VISIBLE
 10
1.1158203125
 20
0.1115234375000002
 30
0.125
 70
    32
  0
VERTEX
  5
1000013E
  8
VISIBLE
 10
1.1115966796875
 20
0.1534423828125002
 30
0.125
 70
    32
  0
VERTEX
  5
1000013F
  8
VISIBLE
 10
1.1078125
 20
0.2078125000000002
 30
0.125
 70
    32
  0
VERTEX
  5
10000140
  8
VISIBLE
 10
1.103703703703704
 20
0.2953703703703706
 30
0.125
 70
    32
  0
VERTEX
  5
10000141
  8
VISIBLE
 10
1.100983796296297
 20
0.3947337962962965
 30
0.125
 70
    32
  0
VERTEX
  5
10000142
  8
VISIBLE
 10
1.1
 20
0.5000000000000002
 30
0.125
 70
    32
  0
VERTEX
  5
10000143
  8
VISIBLE
 10
1.100983796296296
 20
0.6052662037037041
 30
0.125
 70
    32
  0
VERTEX
  5
10000144
  8
VISIBLE
 10
1.103703703703704
 20
0.7046296296296299
 30
0.125
 70
    32
  0
VERTEX
  5
10000145
  8
VISIBLE
 10
1.1078125
 20
0.7921875000000003
 30
0.125
 70
    32
  0
VERTEX
  5
10000146
  8
VISIBLE
 10
1.1115966796875
 20
0.8465576171875003
 30
0.125
 70
    32
  0
VERTEX
  5
10000147
  8
VISIBLE
 10
1.1158203125
 20
0.8884765625000001
 30
0.125
 70
    32
  0
VERTEX
  5
10000148
  8
VISIBLE
 10
1.1203369140625
 20
0.9154541015625002
 30
0.125
 70
    32
  0
VERTEX
  5
10000149
  8
VISIBLE
 10
1.122659301757812
 20
0.9225616455078127
 30
0.125
 70
    32
  0
VERTEX
  5
1000014A
  8
VISIBLE
 10
1.123828506469726
 20
0.9243839263916016
 30
0.125
 70
    32
  0
VERTEX
  5
1000014B
  8
VISIBLE
 10
1.125
 20
0.9250000000000002
 30
0.125
 70
    32
  0
VERTEX
  5
1000014C
  8
VISIBLE
 10
1.126171493530273
 20
0.9243839263916018
 30
0.125
 70
    32
  0
VERTEX
  5
1000014D
  8
VISIBLE
 10
1.127340698242187
 20
0.9225616455078126
 30
0.125
 70
    32
  0
VERTEX
  5
1000014E
  8
VISIBLE
 10
1.1296630859375
 20
0.9154541015625002
 30
0.125
 70
    32
  0
VERTEX
  5
1000014F
  8
VISIBLE
 10
1.1341796875
 20
0.8884765625000001
 30
0.125
 70
    32
  0
VERTEX
  5
10000150
  8
VISIBLE
 10
1.1384033203125
 20
0.8465576171875001
 30
0.125
 70
    32
  0
VERTEX
  5
10000151
  8
VISIBLE
 10
1.1421875
 20
0.7921875000000002
 30
0.125
 70
    32
  0
VERTEX
  5
10000152
  8
VISIBLE
 10
1.146296296296296
 20
0.7046296296296298
 30
0.125
 70
    32
  0
VERTEX
  5
10000153
  8
VISIBLE
 10
1.149016203703704
 20
0.605266203703704
 30
0.125
 70
    32
  0
VERTEX
  5
10000154
  8
VISIBLE
 10
1.15
 20
0.5000000000000001
 30
0.125
 70
    32
  0
VERTEX
  5
10000155
  8
VISIBLE
 10
1.149016203703704
 20
0.3947337962962966
 30
0.125
 70
    32
  0
VERTEX
  5
10000156
  8
VISIBLE
 10
1.146296296296297
 20
0.2953703703703707
 30
0.125
 70
    32
  0
VERTEX
  5
10000157
  8
VISIBLE
 10
1.1421875
 20
0.2078125000000001
 30
0.125
 70
    32
  0
VERTEX
  5
10000158
  8
VISIBLE
 10
1.1384033203125
 20
0.1534423828125002
 30
0.125
 70
    32
  0
VERTEX
  5
10000159
  8
VISIBLE
 10
1.1341796875
 20
0.1115234375000002
 30
0.125
 70
    32
  0
VERTEX
  5
1000015A
  8
VISIBLE
 10
1.129663085937501
 20
0.0845458984375002
 30
0.125
 70
    32
  0
VERTEX
  5
1000015B
  8
VISIBLE
 10
1.127340698242188
 20
0.0774383544921877
 30
0.125
 70
    32
  0
VERTEX
  5
1000015C
  8
VISIBLE
 10
1.126171493530274
 20
0.0756160736083986
 30
0.125
 70
    32
  0
VERTEX
  5
1000015D
  8
VISIBLE
 10
1.125
 20
0.0750000000000002
 30
0.125
 70
    32
  0
SEQEND
  5
100004B5
  8
VISIBLE
  0
POLYLINE
  5
F4A4D
  8
VISIBLE
 10
0.0
 20
0.0
 30
0.0
 66
     1
 70
     8
  0
VERTEX
  5
10000160
  8
VISIBLE
 10
1.025
 20
0.0750000000000001
 30
0.125
 70
    32
  0
VERTEX
  5
10000161
  8
VISIBLE
 10
1.023828506469727
 20
0.0756160736083986
 30
0.125
 70
    32
  0
VERTEX
  5
10000162
  8
VISIBLE
 10
1.022659301757813
 20
0.0774383544921877
 30
0.125
 70
    32
  0
VERTEX
  5
10000163
  8
VISIBLE
 10
1.0203369140625
 20
0.0845458984375001
 30
0.125
 70
    32
  0
VERTEX
  5
10000164
  8
VISIBLE
 10
1.0158203125
 20
0.1115234375000002
 30
0.125
 70
    32
  0
VERTEX
  5
10000165
  8
VISIBLE
 10
1.0115966796875
 20
0.1534423828125002
 30
0.125
 70
    32
  0
VERTEX
  5
10000166
  8
VISIBLE
 10
1.0078125
 20
0.2078125000000002
 30
0.125
 70
    32
  0
VERTEX
  5
10000167
  8
VISIBLE
 10
1.003703703703704
 20
0.2953703703703706
 30
0.125
 70
    32
  0
VERTEX
  5
10000168
  8
VISIBLE
 10
1.000983796296297
 20
0.3947337962962965
 30
0.125
 70
    32
  0
VERTEX
  5
10000169
  8
VISIBLE
 10
1.0
 20
0.5000000000000002
 30
0.125
 70
    32
  0
VERTEX
  5
1000016A
  8
VISIBLE
 10
1.000983796296296
 20
0.6052662037037041
 30
0.125
 70
    32
  0
VERTEX
  5
1000016B
  8
VISIBLE
 10
1.003703703703704
 20
0.7046296296296299
 30
0.125
 70
    32
  0
VERTEX
  5
1000016C
  8
VISIBLE
 10
1.0078125
 20
0.7921875000000003
 30
0.125
 70
    32
  0
VERTEX
  5
1000016D
  8
VISIBLE
 10
1.0115966796875
 20
0.8465576171875003
 30
0.125
 70
    32
  0
VERTEX
  5
1000016E
  8
VISIBLE
 10
1.0158203125
 20
0.8884765625000001
 30
0.125
 70
    32
  0
VERTEX
  5
1000016F
  8
VISIBLE
 10
1.0203369140625
 20
0.9154541015625002
 30
0.125
 70
    32
  0
VERTEX
  5
10000170
  8
VISIBLE
 10
1.022659301757812
 20
0.9225616455078127
 30
0.125
 70
    32
  0
VERTEX
  5
10000171
  8
VISIBLE
 10
1.023828506469727
 20
0.9243839263916016
 30
0.125
 70
    32
  0
VERTEX
  5
10000172
  8
VISIBLE
 10
1.025
 20
0.9250000000000002
 30
0.125
 70
    32
  0
VERTEX
  5
10000173
  8
VISIBLE
 10
1.026171493530273
 20
0.9243839263916018
 30
0.125
 70
    32
  0
VERTEX
  5
10000174
  8
VISIBLE
 10
1.027340698242188
 20
0.9225616455078126
 30
0.125
 70
    32
  0
VERTEX
  5
10000175
  8
VISIBLE
 10
1.0296630859375
 20
0.9154541015625002
 30
0.125
 70
    32
  0
VERTEX
  5
10000176
  8
VISIBLE
 10
1.0341796875
 20
0.8884765625000001
 30
0.125
 70
    32
  0
VERTEX
  5
10000177
  8
VISIBLE
 10
1.0384033203125
 20
0.8465576171875001
 30
0.125
 70
    32
  0
VERTEX
  5
10000178
  8
VISIBLE
 10
1.0421875
 20
0.7921875000000002
 30
0.125
 70
    32
  0
VERTEX
  5
10000179
  8
VISIBLE
 10
1.046296296296296
 20
0.7046296296296298
 30
0.125
 70
    32
  0
VERTEX
  5
1000017A
  8
VISIBLE
 10
1.049016203703704
 20
0.605266203703704
 30
0.125
 70
    32
  0
VERTEX
  5
1000017B
  8
VISIBLE
 10
1.05
 20
0.5000000000000001
 30
0.125
 70
    32
  0
VERTEX
  5
1000017C
  8
VISIBLE
 10
1.049016203703704
 20
0.3947337962962966
 30
0.125
 70
    32
  0
VERTEX
  5
1000017D
  8
VISIBLE
 10
1.046296296296297
 20
0.2953703703703707
 30
0.125
 70
    32
  0
VERTEX
  5
1000017E
  8
VISIBLE
 10
1.0421875
 20
0.2078125000000001
 30
0.125
 70
    32
  0
VERTEX
  5
1000017F
  8
VISIBLE
 10
1.0384033203125
 20
0.1534423828125001
 30
0.125
 70
    32
  0
VERTEX
  5
10000180
  8
VISIBLE
 10
1.0341796875
 20
0.1115234375000001
 30
0.125
 70
    32
  0
VERTEX
  5
10000181
  8
VISIBLE
 10
1.0296630859375
 20
0.0845458984375001
 30
0.125
 70
    32
  0
VERTEX
  5
10000182
  8
VISIBLE
 10
1.027340698242188
 20
0.0774383544921876
 30
0.125
 70
    32
  0
VERTEX
  5
10000183
  8
VISIBLE
 10
1.026171493530274
 20
0.0756160736083986
 30
0.125
 70
    32
  0
VERTEX
  5
10000184
  8
VISIBLE
 10
1.025
 20
0.0750000000000001
 30
0.125
 70
    32
  0
SEQEND
  5
100004B6
  8
VISIBLE
  0
POLYLINE
  5
F4A4E
  8
VISIBLE
 10
0.0
 20
0.0
 30
0.0
 66
     1
 70
     8
  0
VERTEX
  5
10000187
  8
VISIBLE
 10
0.9250000000000004
 20
0.0750000000000001
 30
0.125
 70
    32
  0
VERTEX
  5
10000188
  8
VISIBLE
 10
0.9238285064697271
 20
0.0756160736083985
 30
0.125
 70
    32
  0
VERTEX
  5
10000189
  8
VISIBLE
 10
0.9226593017578127
 20
0.0774383544921876
 30
0.125
 70
    32
  0
VERTEX
  5
1000018A
  8
VISIBLE
 10
0.9203369140625005
 20
0.0845458984375001
 30
0.125
 70
    32
  0
VERTEX
  5
1000018B
  8
VISIBLE
 10
0.9158203125000002
 20
0.1115234375000001
 30
0.125
 70
    32
  0
VERTEX
  5
1000018C
  8
VISIBLE
 10
0.9115966796875005
 20
0.1534423828125001
 30
0.125
 70
    32
  0
VERTEX
  5
1000018D
  8
VISIBLE
 10
0.9078125000000004
 20
0.2078125000000001
 30
0.125
 70
    32
  0
VERTEX
  5
1000018E
  8
VISIBLE
 10
0.9037037037037041
 20
0.2953703703703706
 30
0.125
 70
    32
  0
VERTEX
  5
1000018F
  8
VISIBLE
 10
0.9009837962962965
 20
0.3947337962962964
 30
0.125
 70
    32
  0
VERTEX
  5
10000190
  8
VISIBLE
 10
0.9000000000000002
 20
0.5000000000000002
 30
0.125
 70
    32
  0
VERTEX
  5
10000191
  8
VISIBLE
 10
0.9009837962962964
 20
0.605266203703704
 30
0.125
 70
    32
  0
VERTEX
  5
10000192
  8
VISIBLE
 10
0.9037037037037036
 20
0.7046296296296299
 30
0.125
 70
    32
  0
VERTEX
  5
10000193
  8
VISIBLE
 10
0.9078124999999998
 20
0.7921875000000002
 30
0.125
 70
    32
  0
VERTEX
  5
10000194
  8
VISIBLE
 10
0.9115966796875
 20
0.8465576171875001
 30
0.125
 70
    32
  0
VERTEX
  5
10000195
  8
VISIBLE
 10
0.9158203124999998
 20
0.8884765625000001
 30
0.125
 70
    32
  0
VERTEX
  5
10000196
  8
VISIBLE
 10
0.9203369140624998
 20
0.9154541015625002
 30
0.125
 70
    32
  0
VERTEX
  5
10000197
  8
VISIBLE
 10
0.9226593017578122
 20
0.9225616455078125
 30
0.125
 70
    32
  0
VERTEX
  5
10000198
  8
VISIBLE
 10
0.9238285064697266
 20
0.9243839263916016
 30
0.125
 70
    32
  0
VERTEX
  5
10000199
  8
VISIBLE
 10
0.9249999999999998
 20
0.9250000000000002
 30
0.125
 70
    32
  0
VERTEX
  5
1000019A
  8
VISIBLE
 10
0.9261714935302733
 20
0.9243839263916018
 30
0.125
 70
    32
  0
VERTEX
  5
1000019B
  8
VISIBLE
 10
0.9273406982421871
 20
0.9225616455078126
 30
0.125
 70
    32
  0
VERTEX
  5
1000019C
  8
VISIBLE
 10
0.9296630859374998
 20
0.9154541015625002
 30
0.125
 70
    32
  0
VERTEX
  5
1000019D
  8
VISIBLE
 10
0.9341796874999998
 20
0.8884765625000001
 30
0.125
 70
    32
  0
VERTEX
  5
1000019E
  8
VISIBLE
 10
0.9384033203125
 20
0.8465576171875001
 30
0.125
 70
    32
  0
VERTEX
  5
1000019F
  8
VISIBLE
 10
0.9421875000000001
 20
0.7921875000000002
 30
0.125
 70
    32
  0
VERTEX
  5
100001A0
  8
VISIBLE
 10
0.9462962962962963
 20
0.7046296296296298
 30
0.125
 70
    32
  0
VERTEX
  5
100001A1
  8
VISIBLE
 10
0.9490162037037038
 20
0.605266203703704
 30
0.125
 70
    32
  0
VERTEX
  5
100001A2
  8
VISIBLE
 10
0.9500000000000003
 20
0.5000000000000001
 30
0.125
 70
    32
  0
VERTEX
  5
100001A3
  8
VISIBLE
 10
0.9490162037037041
 20
0.3947337962962965
 30
0.125
 70
    32
  0
VERTEX
  5
100001A4
  8
VISIBLE
 10
0.9462962962962964
 20
0.2953703703703706
 30
0.125
 70
    32
  0
VERTEX
  5
100001A5
  8
VISIBLE
 10
0.9421875000000003
 20
0.2078125000000001
 30
0.125
 70
    32
  0
VERTEX
  5
100001A6
  8
VISIBLE
 10
0.9384033203125005
 20
0.1534423828125001
 30
0.125
 70
    32
  0
VERTEX
  5
100001A7
  8
VISIBLE
 10
0.9341796875000004
 20
0.1115234375000001
 30
0.125
 70
    32
  0
VERTEX
  5
100001A8
  8
VISIBLE
 10
0.9296630859375004
 20
0.0845458984375001
 30
0.125
 70
    32
  0
VERTEX
  5
100001A9
  8
VISIBLE
 10
0.9273406982421877
 20
0.0774383544921876
 30
0.125
 70
    32
  0
VERTEX
  5
100001AA
  8
VISIBLE
 10
0.9261714935302738
 20
0.0756160736083985
 30
0.125
 70
    32
  0
VERTEX
  5
100001AB
  8
VISIBLE
 10
0.9250000000000004
 20
0.0750000000000001
 30
0.125
 70
    32
  0
SEQEND
  5
100004B7
  8
VISIBLE
  0
POLYLINE
  5
F4A4F
  8
VISIBLE
 10
0.0
 20
0.0
 30
0.0
 66
     1
 70
     8
  0
VERTEX
  5
100001AE
  8
VISIBLE
 10
0.8250000000000004
 20
0.0750000000000001
 30
0.125
 70
    32
  0
VERTEX
  5
100001AF
  8
VISIBLE
 10
0.823828506469727
 20
0.0756160736083985
 30
0.125
 70
    32
  0
VERTEX
  5
100001B0
  8
VISIBLE
 10
0.8226593017578128
 20
0.0774383544921876
 30
0.125
 70
    32
  0
VERTEX
  5
100001B1
  8
VISIBLE
 10
0.8203369140625003
 20
0.0845458984375001
 30
0.125
 70
    32
  0
VERTEX
  5
100001B2
  8
VISIBLE
 10
0.8158203125000004
 20
0.1115234375000001
 30
0.125
 70
    32
  0
VERTEX
  5
100001B3
  8
VISIBLE
 10
0.8115966796875004
 20
0.1534423828125001
 30
0.125
 70
    32
  0
VERTEX
  5
100001B4
  8
VISIBLE
 10
0.8078125000000003
 20
0.2078125000000001
 30
0.125
 70
    32
  0
VERTEX
  5
100001B5
  8
VISIBLE
 10
0.803703703703704
 20
0.2953703703703706
 30
0.125
 70
    32
  0
VERTEX
  5
100001B6
  8
VISIBLE
 10
0.8009837962962967
 20
0.3947337962962964
 30
0.125
 70
    32
  0
VERTEX
  5
100001B7
  8
VISIBLE
 10
0.8000000000000002
 20
0.5000000000000001
 30
0.125
 70
    32
  0
VERTEX
  5
100001B8
  8
VISIBLE
 10
0.8009837962962963
 20
0.605266203703704
 30
0.125
 70
    32
  0
VERTEX
  5
100001B9
  8
VISIBLE
 10
0.8037037037037036
 20
0.7046296296296298
 30
0.125
 70
    32
  0
VERTEX
  5
100001BA
  8
VISIBLE
 10
0.8078125
 20
0.7921875000000002
 30
0.125
 70
    32
  0
VERTEX
  5
100001BB
  8
VISIBLE
 10
0.8115966796874998
 20
0.8465576171875001
 30
0.125
 70
    32
  0
VERTEX
  5
100001BC
  8
VISIBLE
 10
0.8158203124999999
 20
0.8884765625000001
 30
0.125
 70
    32
  0
VERTEX
  5
100001BD
  8
VISIBLE
 10
0.8203369140624998
 20
0.9154541015625002
 30
0.125
 70
    32
  0
VERTEX
  5
100001BE
  8
VISIBLE
 10
0.8226593017578122
 20
0.9225616455078125
 30
0.125
 70
    32
  0
VERTEX
  5
100001BF
  8
VISIBLE
 10
0.8238285064697264
 20
0.9243839263916016
 30
0.125
 70
    32
  0
VERTEX
  5
100001C0
  8
VISIBLE
 10
0.8249999999999998
 20
0.9250000000000002
 30
0.125
 70
    32
  0
VERTEX
  5
100001C1
  8
VISIBLE
 10
0.8261714935302731
 20
0.9243839263916016
 30
0.125
 70
    32
  0
VERTEX
  5
100001C2
  8
VISIBLE
 10
0.8273406982421871
 20
0.9225616455078125
 30
0.125
 70
    32
  0
VERTEX
  5
100001C3
  8
VISIBLE
 10
0.8296630859374998
 20
0.9154541015625002
 30
0.125
 70
    32
  0
VERTEX
  5
100001C4
  8
VISIBLE
 10
0.8341796874999998
 20
0.8884765625
 30
0.125
 70
    32
  0
VERTEX
  5
100001C5
  8
VISIBLE
 10
0.8384033203124999
 20
0.8465576171875001
 30
0.125
 70
    32
  0
VERTEX
  5
100001C6
  8
VISIBLE
 10
0.8421874999999999
 20
0.7921875000000002
 30
0.125
 70
    32
  0
VERTEX
  5
100001C7
  8
VISIBLE
 10
0.8462962962962963
 20
0.7046296296296297
 30
0.125
 70
    32
  0
VERTEX
  5
100001C8
  8
VISIBLE
 10
0.8490162037037038
 20
0.605266203703704
 30
0.125
 70
    32
  0
VERTEX
  5
100001C9
  8
VISIBLE
 10
0.8500000000000002
 20
0.5000000000000001
 30
0.125
 70
    32
  0
VERTEX
  5
100001CA
  8
VISIBLE
 10
0.8490162037037039
 20
0.3947337962962965
 30
0.125
 70
    32
  0
VERTEX
  5
100001CB
  8
VISIBLE
 10
0.8462962962962964
 20
0.2953703703703706
 30
0.125
 70
    32
  0
VERTEX
  5
100001CC
  8
VISIBLE
 10
0.8421875000000003
 20
0.2078125000000001
 30
0.125
 70
    32
  0
VERTEX
  5
100001CD
  8
VISIBLE
 10
0.8384033203125003
 20
0.1534423828125
 30
0.125
 70
    32
  0
VERTEX
  5
100001CE
  8
VISIBLE
 10
0.8341796875000002
 20
0.1115234375000001
 30
0.125
 70
    32
  0
VERTEX
  5
100001CF
  8
VISIBLE
 10
0.8296630859375004
 20
0.0845458984375001
 30
0.125
 70
    32
  0
VERTEX
  5
100001D0
  8
VISIBLE
 10
0.8273406982421877
 20
0.0774383544921876
 30
0.125
 70
    32
  0
VERTEX
  5
100001D1
  8
VISIBLE
 10
0.8261714935302737
 20
0.0756160736083985
 30
0.125
 70
    32
  0
VERTEX
  5
100001D2
  8
VISIBLE
 10
0.8250000000000004
 20
0.0750000000000001
 30
0.125
 70
    32
  0
SEQEND
  5
100004B8
  8
VISIBLE
  0
LINE
  5
F4A50
  8
VISIBLE
 10
1.7
 20
0.0000000000000004
 30
0.125
 11
1.75
 21
0.0000000000000005
 31
0.125
  0
POLYLINE
  5
F4A51
  8
VISIBLE
 10
0.0
 20
0.0
 30
0.0
 66
     1
 70
     8
  0
VERTEX
  5
100001D7
  8
VISIBLE
 10
1.75
 20
0.0000000000000005
 30
0.125
 70
    32
  0
VERTEX
  5
100001D8
  8
VISIBLE
 10
1.753125
 20
0.0803916015625006
 30
0.125
 70
    32
  0
VERTEX
  5
100001D9
  8
VISIBLE
 10
1.756250000000001
 20
0.1582578125000007
 30
0.125
 70
    32
  0
VERTEX
  5
100001DA
  8
VISIBLE
 10
1.759375
 20
0.2310732421875008
 30
0.125
 70
    32
  0
VERTEX
  5
100001DB
  8
VISIBLE
 10
1.7625
 20
0.2963125000000008
 30
0.125
 70
    32
  0
VERTEX
  5
100001DC
  8
VISIBLE
 10
1.765625
 20
0.3514501953125009
 30
0.125
 70
    32
  0
VERTEX
  5
100001DD
  8
VISIBLE
 10
1.768750000000001
 20
0.3939609375000011
 30
0.125
 70
    32
  0
VERTEX
  5
100001DE
  8
VISIBLE
 10
1.771875000000001
 20
0.421319335937501
 30
0.125
 70
    32
  0
VERTEX
  5
100001DF
  8
VISIBLE
 10
1.7734375
 20
0.4285272216796885
 30
0.125
 70
    32
  0
VERTEX
  5
100001E0
  8
VISIBLE
 10
1.774218750000001
 20
0.4303752288818369
 30
0.125
 70
    32
  0
VERTEX
  5
100001E1
  8
VISIBLE
 10
1.774656250000001
 20
0.4308783313095714
 30
0.125
 70
    32
  0
VERTEX
  5
100001E2
  8
VISIBLE
 10
1.775000000000001
 20
0.431000000000001
 30
0.125
 70
    32
  0
VERTEX
  5
100001E3
  8
VISIBLE
 10
1.775437500000001
 20
0.4308031643203136
 30
0.125
 70
    32
  0
VERTEX
  5
100001E4
  8
VISIBLE
 10
1.775781250000001
 20
0.4303752288818369
 30
0.125
 70
    32
  0
VERTEX
  5
100001E5
  8
VISIBLE
 10
1.776562500000001
 20
0.4285272216796885
 30
0.125
 70
    32
  0
VERTEX
  5
100001E6
  8
VISIBLE
 10
1.778125000000001
 20
0.4213193359375009
 30
0.125
 70
    32
  0
VERTEX
  5
100001E7
  8
VISIBLE
 10
1.781250000000001
 20
0.3939609375000011
 30
0.125
 70
    32
  0
VERTEX
  5
100001E8
  8
VISIBLE
 10
1.784375
 20
0.3514501953125009
 30
0.125
 70
    32
  0
VERTEX
  5
100001E9
  8
VISIBLE
 10
1.787500000000001
 20
0.2963125000000009
 30
0.125
 70
    32
  0
VERTEX
  5
100001EA
  8
VISIBLE
 10
1.790625000000001
 20
0.2310732421875008
 30
0.125
 70
    32
  0
VERTEX
  5
100001EB
  8
VISIBLE
 10
1.79375
 20
0.1582578125000007
 30
0.125
 70
    32
  0
VERTEX
  5
100001EC
  8
VISIBLE
 10
1.796875000000001
 20
0.0803916015625006
 30
0.125
 70
    32
  0
VERTEX
  5
100001ED
  8
VISIBLE
 10
1.8
 20
0.0000000000000005
 30
0.125
 70
    32
  0
SEQEND
  5
100004B9
  8
VISIBLE
  0
LINE
  5
F4A52
  8
VISIBLE
 10
1.8
 20
0.0000000000000005
 30
0.125
 11
2.0
 21
0.0
 31
0.125
  0
LINE
  5
F4A53
  8
VISIBLE
 10
2.0
 20
1.000000000000001
 30
0.125
 11
2.0
 21
0.0
 31
0.125
  0
LINE
  5
F4A54
  8
VISIBLE
 10
1.8
 20
1.0
 30
0.125
 11
2.0
 21
1.000000000000001
 31
0.125
  0
POLYLINE
  5
F4A55
  8
VISIBLE
 10
0.0
 20
0.0
 30
0.0
 66
     1
 70
     8
  0
VERTEX
  5
100001F6
  8
VISIBLE
 10
1.75
 20
1.0
 30
0.125
 70
    32
  0
VERTEX
  5
100001F7
  8
VISIBLE
 10
1.753125
 20
0.9196083984375005
 30
0.125
 70
    32
  0
VERTEX
  5
100001F8
  8
VISIBLE
 10
1.75625
 20
0.8417421875000005
 30
0.125
 70
    32
  0
VERTEX
  5
100001F9
  8
VISIBLE
 10
1.759375
 20
0.7689267578125004
 30
0.125
 70
    32
  0
VERTEX
  5
100001FA
  8
VISIBLE
 10
1.762500000000001
 20
0.7036875000000005
 30
0.125
 70
    32
  0
VERTEX
  5
100001FB
  8
VISIBLE
 10
1.765625
 20
0.6485498046875005
 30
0.125
 70
    32
  0
VERTEX
  5
100001FC
  8
VISIBLE
 10
1.76875
 20
0.6060390625000006
 30
0.125
 70
    32
  0
VERTEX
  5
100001FD
  8
VISIBLE
 10
1.771875000000001
 20
0.5786806640625005
 30
0.125
 70
    32
  0
VERTEX
  5
100001FE
  8
VISIBLE
 10
1.7734375
 20
0.5714727783203131
 30
0.125
 70
    32
  0
VERTEX
  5
100001FF
  8
VISIBLE
 10
1.774218750000001
 20
0.5696247711181646
 30
0.125
 70
    32
  0
VERTEX
  5
10000200
  8
VISIBLE
 10
1.774656250000001
 20
0.5691216686904302
 30
0.125
 70
    32
  0
VERTEX
  5
10000201
  8
VISIBLE
 10
1.775000000000001
 20
0.5690000000000005
 30
0.125
 70
    32
  0
VERTEX
  5
10000202
  8
VISIBLE
 10
1.775437500000001
 20
0.569196835679688
 30
0.125
 70
    32
  0
VERTEX
  5
10000203
  8
VISIBLE
 10
1.775781250000001
 20
0.5696247711181646
 30
0.125
 70
    32
  0
VERTEX
  5
10000204
  8
VISIBLE
 10
1.776562500000001
 20
0.5714727783203131
 30
0.125
 70
    32
  0
VERTEX
  5
10000205
  8
VISIBLE
 10
1.778125000000001
 20
0.5786806640625005
 30
0.125
 70
    32
  0
VERTEX
  5
10000206
  8
VISIBLE
 10
1.78125
 20
0.6060390625000006
 30
0.125
 70
    32
  0
VERTEX
  5
10000207
  8
VISIBLE
 10
1.784375
 20
0.6485498046875006
 30
0.125
 70
    32
  0
VERTEX
  5
10000208
  8
VISIBLE
 10
1.7875
 20
0.7036875000000007
 30
0.125
 70
    32
  0
VERTEX
  5
10000209
  8
VISIBLE
 10
1.790625
 20
0.7689267578125007
 30
0.125
 70
    32
  0
VERTEX
  5
1000020A
  8
VISIBLE
 10
1.79375
 20
0.8417421875000006
 30
0.125
 70
    32
  0
VERTEX
  5
1000020B
  8
VISIBLE
 10
1.796875
 20
0.9196083984375005
 30
0.125
 70
    32
  0
VERTEX
  5
1000020C
  8
VISIBLE
 10
1.8
 20
1.0
 30
0.125
 70
    32
  0
SEQEND
  5
100004BA
  8
VISIBLE
  0
LINE
  5
F4A56
  8
VISIBLE
 10
1.7
 20
1.0
 30
0.125
 11
1.75
 21
1.0
 31
0.125
  0
POLYLINE
  5
F4A57
  8
VISIBLE
 10
0.0
 20
0.0
 30
0.0
 66
     1
 70
     8
  0
VERTEX
  5
10000211
  8
VISIBLE
 10
1.65
 20
1.0
 30
0.125
 70
    32
  0
VERTEX
  5
10000212
  8
VISIBLE
 10
1.653125
 20
0.9196083984375005
 30
0.125
 70
    32
  0
VERTEX
  5
10000213
  8
VISIBLE
 10
1.65625
 20
0.8417421875000005
 30
0.125
 70
    32
  0
VERTEX
  5
10000214
  8
VISIBLE
 10
1.659375
 20
0.7689267578125004
 30
0.125
 70
    32
  0
VERTEX
  5
10000215
  8
VISIBLE
 10
1.6625
 20
0.7036875000000005
 30
0.125
 70
    32
  0
VERTEX
  5
10000216
  8
VISIBLE
 10
1.665625
 20
0.6485498046875005
 30
0.125
 70
    32
  0
VERTEX
  5
10000217
  8
VISIBLE
 10
1.668750000000001
 20
0.6060390625000004
 30
0.125
 70
    32
  0
VERTEX
  5
10000218
  8
VISIBLE
 10
1.671875000000001
 20
0.5786806640625005
 30
0.125
 70
    32
  0
VERTEX
  5
10000219
  8
VISIBLE
 10
1.6734375
 20
0.571472778320313
 30
0.125
 70
    32
  0
VERTEX
  5
1000021A
  8
VISIBLE
 10
1.674218750000001
 20
0.5696247711181646
 30
0.125
 70
    32
  0
VERTEX
  5
1000021B
  8
VISIBLE
 10
1.67465625
 20
0.5691216686904302
 30
0.125
 70
    32
  0
VERTEX
  5
1000021C
  8
VISIBLE
 10
1.675
 20
0.5690000000000005
 30
0.125
 70
    32
  0
VERTEX
  5
1000021D
  8
VISIBLE
 10
1.675437500000001
 20
0.569196835679688
 30
0.125
 70
    32
  0
VERTEX
  5
1000021E
  8
VISIBLE
 10
1.675781250000001
 20
0.5696247711181646
 30
0.125
 70
    32
  0
VERTEX
  5
1000021F
  8
VISIBLE
 10
1.6765625
 20
0.5714727783203131
 30
0.125
 70
    32
  0
VERTEX
  5
10000220
  8
VISIBLE
 10
1.678125000000001
 20
0.5786806640625005
 30
0.125
 70
    32
  0
VERTEX
  5
10000221
  8
VISIBLE
 10
1.68125
 20
0.6060390625000006
 30
0.125
 70
    32
  0
VERTEX
  5
10000222
  8
VISIBLE
 10
1.684375
 20
0.6485498046875006
 30
0.125
 70
    32
  0
VERTEX
  5
10000223
  8
VISIBLE
 10
1.6875
 20
0.7036875000000007
 30
0.125
 70
    32
  0
VERTEX
  5
10000224
  8
VISIBLE
 10
1.690625
 20
0.7689267578125005
 30
0.125
 70
    32
  0
VERTEX
  5
10000225
  8
VISIBLE
 10
1.69375
 20
0.8417421875000006
 30
0.125
 70
    32
  0
VERTEX
  5
10000226
  8
VISIBLE
 10
1.696875
 20
0.9196083984375005
 30
0.125
 70
    32
  0
VERTEX
  5
10000227
  8
VISIBLE
 10
1.7
 20
1.0
 30
0.125
 70
    32
  0
SEQEND
  5
100004BB
  8
VISIBLE
  0
LINE
  5
F4A58
  8
VISIBLE
 10
1.6
 20
1.0
 30
0.125
 11
1.65
 21
1.0
 31
0.125
  0
POLYLINE
  5
F4A59
  8
VISIBLE
 10
0.0
 20
0.0
 30
0.0
 66
     1
 70
     8
  0
VERTEX
  5
1000022C
  8
VISIBLE
 10
1.55
 20
1.0
 30
0.125
 70
    32
  0
VERTEX
  5
1000022D
  8
VISIBLE
 10
1.553125
 20
0.9196083984375005
 30
0.125
 70
    32
  0
VERTEX
  5
1000022E
  8
VISIBLE
 10
1.55625
 20
0.8417421875000005
 30
0.125
 70
    32
  0
VERTEX
  5
1000022F
  8
VISIBLE
 10
1.559375
 20
0.7689267578125004
 30
0.125
 70
    32
  0
VERTEX
  5
10000230
  8
VISIBLE
 10
1.5625
 20
0.7036875000000005
 30
0.125
 70
    32
  0
VERTEX
  5
10000231
  8
VISIBLE
 10
1.565625
 20
0.6485498046875005
 30
0.125
 70
    32
  0
VERTEX
  5
10000232
  8
VISIBLE
 10
1.568750000000001
 20
0.6060390625000004
 30
0.125
 70
    32
  0
VERTEX
  5
10000233
  8
VISIBLE
 10
1.571875000000001
 20
0.5786806640625005
 30
0.125
 70
    32
  0
VERTEX
  5
10000234
  8
VISIBLE
 10
1.5734375
 20
0.571472778320313
 30
0.125
 70
    32
  0
VERTEX
  5
10000235
  8
VISIBLE
 10
1.574218750000001
 20
0.5696247711181646
 30
0.125
 70
    32
  0
VERTEX
  5
10000236
  8
VISIBLE
 10
1.57465625
 20
0.5691216686904302
 30
0.125
 70
    32
  0
VERTEX
  5
10000237
  8
VISIBLE
 10
1.575000000000001
 20
0.5690000000000005
 30
0.125
 70
    32
  0
VERTEX
  5
10000238
  8
VISIBLE
 10
1.5754375
 20
0.569196835679688
 30
0.125
 70
    32
  0
VERTEX
  5
10000239
  8
VISIBLE
 10
1.575781250000001
 20
0.5696247711181646
 30
0.125
 70
    32
  0
VERTEX
  5
1000023A
  8
VISIBLE
 10
1.5765625
 20
0.5714727783203131
 30
0.125
 70
    32
  0
VERTEX
  5
1000023B
  8
VISIBLE
 10
1.578125
 20
0.5786806640625005
 30
0.125
 70
    32
  0
VERTEX
  5
1000023C
  8
VISIBLE
 10
1.58125
 20
0.6060390625000006
 30
0.125
 70
    32
  0
VERTEX
  5
1000023D
  8
VISIBLE
 10
1.584375
 20
0.6485498046875006
 30
0.125
 70
    32
  0
VERTEX
  5
1000023E
  8
VISIBLE
 10
1.5875
 20
0.7036875000000007
 30
0.125
 70
    32
  0
VERTEX
  5
1000023F
  8
VISIBLE
 10
1.590625
 20
0.7689267578125005
 30
0.125
 70
    32
  0
VERTEX
  5
10000240
  8
VISIBLE
 10
1.59375
 20
0.8417421875000006
 30
0.125
 70
    32
  0
VERTEX
  5
10000241
  8
VISIBLE
 10
1.596875
 20
0.9196083984375005
 30
0.125
 70
    32
  0
VERTEX
  5
10000242
  8
VISIBLE
 10
1.6
 20
1.0
 30
0.125
 70
    32
  0
SEQEND
  5
100004BC
  8
VISIBLE
  0
LINE
  5
F4A5A
  8
VISIBLE
 10
1.5
 20
1.0
 30
0.125
 11
1.55
 21
1.0
 31
0.125
  0
POLYLINE
  5
F4A5B
  8
VISIBLE
 10
0.0
 20
0.0
 30
0.0
 66
     1
 70
     8
  0
VERTEX
  5
10000247
  8
VISIBLE
 10
1.45
 20
1.0
 30
0.125
 70
    32
  0
VERTEX
  5
10000248
  8
VISIBLE
 10
1.453125
 20
0.9196083984375004
 30
0.125
 70
    32
  0
VERTEX
  5
10000249
  8
VISIBLE
 10
1.45625
 20
0.8417421875000003
 30
0.125
 70
    32
  0
VERTEX
  5
1000024A
  8
VISIBLE
 10
1.459375
 20
0.7689267578125004
 30
0.125
 70
    32
  0
VERTEX
  5
1000024B
  8
VISIBLE
 10
1.4625
 20
0.7036875000000004
 30
0.125
 70
    32
  0
VERTEX
  5
1000024C
  8
VISIBLE
 10
1.465625
 20
0.6485498046875003
 30
0.125
 70
    32
  0
VERTEX
  5
1000024D
  8
VISIBLE
 10
1.46875
 20
0.6060390625000004
 30
0.125
 70
    32
  0
VERTEX
  5
1000024E
  8
VISIBLE
 10
1.471875
 20
0.5786806640625005
 30
0.125
 70
    32
  0
VERTEX
  5
1000024F
  8
VISIBLE
 10
1.4734375
 20
0.5714727783203128
 30
0.125
 70
    32
  0
VERTEX
  5
10000250
  8
VISIBLE
 10
1.474218750000001
 20
0.5696247711181645
 30
0.125
 70
    32
  0
VERTEX
  5
10000251
  8
VISIBLE
 10
1.47465625
 20
0.56912166869043
 30
0.125
 70
    32
  0
VERTEX
  5
10000252
  8
VISIBLE
 10
1.475000000000001
 20
0.5690000000000004
 30
0.125
 70
    32
  0
VERTEX
  5
10000253
  8
VISIBLE
 10
1.475437500000001
 20
0.5691968356796879
 30
0.125
 70
    32
  0
VERTEX
  5
10000254
  8
VISIBLE
 10
1.475781250000001
 20
0.5696247711181645
 30
0.125
 70
    32
  0
VERTEX
  5
10000255
  8
VISIBLE
 10
1.4765625
 20
0.5714727783203128
 30
0.125
 70
    32
  0
VERTEX
  5
10000256
  8
VISIBLE
 10
1.478125
 20
0.5786806640625005
 30
0.125
 70
    32
  0
VERTEX
  5
10000257
  8
VISIBLE
 10
1.48125
 20
0.6060390625000004
 30
0.125
 70
    32
  0
VERTEX
  5
10000258
  8
VISIBLE
 10
1.484375
 20
0.6485498046875003
 30
0.125
 70
    32
  0
VERTEX
  5
10000259
  8
VISIBLE
 10
1.4875
 20
0.7036875000000005
 30
0.125
 70
    32
  0
VERTEX
  5
1000025A
  8
VISIBLE
 10
1.490625
 20
0.7689267578125004
 30
0.125
 70
    32
  0
VERTEX
  5
1000025B
  8
VISIBLE
 10
1.49375
 20
0.8417421875000005
 30
0.125
 70
    32
  0
VERTEX
  5
1000025C
  8
VISIBLE
 10
1.496875
 20
0.9196083984375005
 30
0.125
 70
    32
  0
VERTEX
  5
1000025D
  8
VISIBLE
 10
1.5
 20
1.0
 30
0.125
 70
    32
  0
SEQEND
  5
100004BD
  8
VISIBLE
  0
LINE
  5
F4A5C
  8
VISIBLE
 10
1.399999999999999
 20
1.0
 30
0.125
 11
1.45
 21
1.0
 31
0.125
  0
POLYLINE
  5
F4A5D
  8
VISIBLE
 10
0.0
 20
0.0
 30
0.0
 66
     1
 70
     8
  0
VERTEX
  5
10000262
  8
VISIBLE
 10
1.35
 20
1.0
 30
0.125
 70
    32
  0
VERTEX
  5
10000263
  8
VISIBLE
 10
1.353125
 20
0.9196083984375004
 30
0.125
 70
    32
  0
VERTEX
  5
10000264
  8
VISIBLE
 10
1.35625
 20
0.8417421875000003
 30
0.125
 70
    32
  0
VERTEX
  5
10000265
  8
VISIBLE
 10
1.359375
 20
0.7689267578125004
 30
0.125
 70
    32
  0
VERTEX
  5
10000266
  8
VISIBLE
 10
1.3625
 20
0.7036875000000004
 30
0.125
 70
    32
  0
VERTEX
  5
10000267
  8
VISIBLE
 10
1.365625
 20
0.6485498046875003
 30
0.125
 70
    32
  0
VERTEX
  5
10000268
  8
VISIBLE
 10
1.36875
 20
0.6060390625000004
 30
0.125
 70
    32
  0
VERTEX
  5
10000269
  8
VISIBLE
 10
1.371875000000001
 20
0.5786806640625003
 30
0.125
 70
    32
  0
VERTEX
  5
1000026A
  8
VISIBLE
 10
1.3734375
 20
0.5714727783203128
 30
0.125
 70
    32
  0
VERTEX
  5
1000026B
  8
VISIBLE
 10
1.37421875
 20
0.5696247711181645
 30
0.125
 70
    32
  0
VERTEX
  5
1000026C
  8
VISIBLE
 10
1.374656250000001
 20
0.56912166869043
 30
0.125
 70
    32
  0
VERTEX
  5
1000026D
  8
VISIBLE
 10
1.375
 20
0.5690000000000004
 30
0.125
 70
    32
  0
VERTEX
  5
1000026E
  8
VISIBLE
 10
1.375437500000001
 20
0.5691968356796879
 30
0.125
 70
    32
  0
VERTEX
  5
1000026F
  8
VISIBLE
 10
1.375781250000001
 20
0.5696247711181645
 30
0.125
 70
    32
  0
VERTEX
  5
10000270
  8
VISIBLE
 10
1.3765625
 20
0.5714727783203128
 30
0.125
 70
    32
  0
VERTEX
  5
10000271
  8
VISIBLE
 10
1.378125
 20
0.5786806640625005
 30
0.125
 70
    32
  0
VERTEX
  5
10000272
  8
VISIBLE
 10
1.381250000000001
 20
0.6060390625000004
 30
0.125
 70
    32
  0
VERTEX
  5
10000273
  8
VISIBLE
 10
1.384375
 20
0.6485498046875003
 30
0.125
 70
    32
  0
VERTEX
  5
10000274
  8
VISIBLE
 10
1.3875
 20
0.7036875000000005
 30
0.125
 70
    32
  0
VERTEX
  5
10000275
  8
VISIBLE
 10
1.390625
 20
0.7689267578125004
 30
0.125
 70
    32
  0
VERTEX
  5
10000276
  8
VISIBLE
 10
1.39375
 20
0.8417421875000005
 30
0.125
 70
    32
  0
VERTEX
  5
10000277
  8
VISIBLE
 10
1.396875
 20
0.9196083984375005
 30
0.125
 70
    32
  0
VERTEX
  5
10000278
  8
VISIBLE
 10
1.399999999999999
 20
1.0
 30
0.125
 70
    32
  0
SEQEND
  5
100004BE
  8
VISIBLE
  0
LINE
  5
F4A5E
  8
VISIBLE
 10
1.3
 20
1.0
 30
0.125
 11
1.35
 21
1.0
 31
0.125
  0
POLYLINE
  5
F4A5F
  8
VISIBLE
 10
0.0
 20
0.0
 30
0.0
 66
     1
 70
     8
  0
VERTEX
  5
1000027D
  8
VISIBLE
 10
1.25
 20
1.0
 30
0.125
 70
    32
  0
VERTEX
  5
1000027E
  8
VISIBLE
 10
1.253125
 20
0.9196083984375004
 30
0.125
 70
    32
  0
VERTEX
  5
1000027F
  8
VISIBLE
 10
1.25625
 20
0.8417421875000003
 30
0.125
 70
    32
  0
VERTEX
  5
10000280
  8
VISIBLE
 10
1.259375
 20
0.7689267578125004
 30
0.125
 70
    32
  0
VERTEX
  5
10000281
  8
VISIBLE
 10
1.2625
 20
0.7036875000000004
 30
0.125
 70
    32
  0
VERTEX
  5
10000282
  8
VISIBLE
 10
1.265625
 20
0.6485498046875003
 30
0.125
 70
    32
  0
VERTEX
  5
10000283
  8
VISIBLE
 10
1.26875
 20
0.6060390625000004
 30
0.125
 70
    32
  0
VERTEX
  5
10000284
  8
VISIBLE
 10
1.271875000000001
 20
0.5786806640625003
 30
0.125
 70
    32
  0
VERTEX
  5
10000285
  8
VISIBLE
 10
1.2734375
 20
0.5714727783203128
 30
0.125
 70
    32
  0
VERTEX
  5
10000286
  8
VISIBLE
 10
1.27421875
 20
0.5696247711181645
 30
0.125
 70
    32
  0
VERTEX
  5
10000287
  8
VISIBLE
 10
1.27465625
 20
0.56912166869043
 30
0.125
 70
    32
  0
VERTEX
  5
10000288
  8
VISIBLE
 10
1.275000000000001
 20
0.5690000000000004
 30
0.125
 70
    32
  0
VERTEX
  5
10000289
  8
VISIBLE
 10
1.2754375
 20
0.5691968356796879
 30
0.125
 70
    32
  0
VERTEX
  5
1000028A
  8
VISIBLE
 10
1.275781250000001
 20
0.5696247711181645
 30
0.125
 70
    32
  0
VERTEX
  5
1000028B
  8
VISIBLE
 10
1.2765625
 20
0.5714727783203128
 30
0.125
 70
    32
  0
VERTEX
  5
1000028C
  8
VISIBLE
 10
1.278125
 20
0.5786806640625005
 30
0.125
 70
    32
  0
VERTEX
  5
1000028D
  8
VISIBLE
 10
1.28125
 20
0.6060390625000004
 30
0.125
 70
    32
  0
VERTEX
  5
1000028E
  8
VISIBLE
 10
1.284375
 20
0.6485498046875003
 30
0.125
 70
    32
  0
VERTEX
  5
1000028F
  8
VISIBLE
 10
1.2875
 20
0.7036875000000005
 30
0.125
 70
    32
  0
VERTEX
  5
10000290
  8
VISIBLE
 10
1.290625
 20
0.7689267578125004
 30
0.125
 70
    32
  0
VERTEX
  5
10000291
  8
VISIBLE
 10
1.29375
 20
0.8417421875000005
 30
0.125
 70
    32
  0
VERTEX
  5
10000292
  8
VISIBLE
 10
1.296875
 20
0.9196083984375005
 30
0.125
 70
    32
  0
VERTEX
  5
10000293
  8
VISIBLE
 10
1.3
 20
1.0
 30
0.125
 70
    32
  0
SEQEND
  5
100004BF
  8
VISIBLE
  0
LINE
  5
F4A60
  8
VISIBLE
 10
1.2
 20
1.0
 30
0.125
 11
1.25
 21
1.0
 31
0.125
  0
POLYLINE
  5
F4A61
  8
VISIBLE
 10
0.0
 20
0.0
 30
0.0
 66
     1
 70
     8
  0
VERTEX
  5
10000298
  8
VISIBLE
 10
1.15
 20
1.0
 30
0.125
 70
    32
  0
VERTEX
  5
10000299
  8
VISIBLE
 10
1.153125
 20
0.9196083984375004
 30
0.125
 70
    32
  0
VERTEX
  5
1000029A
  8
VISIBLE
 10
1.15625
 20
0.8417421875000003
 30
0.125
 70
    32
  0
VERTEX
  5
1000029B
  8
VISIBLE
 10
1.159375
 20
0.7689267578125004
 30
0.125
 70
    32
  0
VERTEX
  5
1000029C
  8
VISIBLE
 10
1.1625
 20
0.7036875000000004
 30
0.125
 70
    32
  0
VERTEX
  5
1000029D
  8
VISIBLE
 10
1.165625
 20
0.6485498046875003
 30
0.125
 70
    32
  0
VERTEX
  5
1000029E
  8
VISIBLE
 10
1.16875
 20
0.6060390625000004
 30
0.125
 70
    32
  0
VERTEX
  5
1000029F
  8
VISIBLE
 10
1.171875
 20
0.5786806640625003
 30
0.125
 70
    32
  0
VERTEX
  5
100002A0
  8
VISIBLE
 10
1.1734375
 20
0.5714727783203128
 30
0.125
 70
    32
  0
VERTEX
  5
100002A1
  8
VISIBLE
 10
1.17421875
 20
0.5696247711181645
 30
0.125
 70
    32
  0
VERTEX
  5
100002A2
  8
VISIBLE
 10
1.17465625
 20
0.56912166869043
 30
0.125
 70
    32
  0
VERTEX
  5
100002A3
  8
VISIBLE
 10
1.175
 20
0.5690000000000003
 30
0.125
 70
    32
  0
VERTEX
  5
100002A4
  8
VISIBLE
 10
1.1754375
 20
0.5691968356796878
 30
0.125
 70
    32
  0
VERTEX
  5
100002A5
  8
VISIBLE
 10
1.17578125
 20
0.5696247711181645
 30
0.125
 70
    32
  0
VERTEX
  5
100002A6
  8
VISIBLE
 10
1.1765625
 20
0.5714727783203128
 30
0.125
 70
    32
  0
VERTEX
  5
100002A7
  8
VISIBLE
 10
1.178125
 20
0.5786806640625003
 30
0.125
 70
    32
  0
VERTEX
  5
100002A8
  8
VISIBLE
 10
1.18125
 20
0.6060390625000004
 30
0.125
 70
    32
  0
VERTEX
  5
100002A9
  8
VISIBLE
 10
1.184375
 20
0.6485498046875003
 30
0.125
 70
    32
  0
VERTEX
  5
100002AA
  8
VISIBLE
 10
1.1875
 20
0.7036875000000005
 30
0.125
 70
    32
  0
VERTEX
  5
100002AB
  8
VISIBLE
 10
1.190625
 20
0.7689267578125004
 30
0.125
 70
    32
  0
VERTEX
  5
100002AC
  8
VISIBLE
 10
1.19375
 20
0.8417421875000005
 30
0.125
 70
    32
  0
VERTEX
  5
100002AD
  8
VISIBLE
 10
1.196874999999999
 20
0.9196083984375005
 30
0.125
 70
    32
  0
VERTEX
  5
100002AE
  8
VISIBLE
 10
1.2
 20
1.0
 30
0.125
 70
    32
  0
SEQEND
  5
100004C0
  8
VISIBLE
  0
LINE
  5
F4A62
  8
VISIBLE
 10
1.099999999999999
 20
1.0
 30
0.125
 11
1.15
 21
1.0
 31
0.125
  0
POLYLINE
  5
F4A63
  8
VISIBLE
 10
0.0
 20
0.0
 30
0.0
 66
     1
 70
     8
  0
VERTEX
  5
100002B3
  8
VISIBLE
 10
1.05
 20
1.0
 30
0.125
 70
    32
  0
VERTEX
  5
100002B4
  8
VISIBLE
 10
1.053125
 20
0.9196083984375003
 30
0.125
 70
    32
  0
VERTEX
  5
100002B5
  8
VISIBLE
 10
1.05625
 20
0.8417421875000003
 30
0.125
 70
    32
  0
VERTEX
  5
100002B6
  8
VISIBLE
 10
1.059375
 20
0.7689267578125002
 30
0.125
 70
    32
  0
VERTEX
  5
100002B7
  8
VISIBLE
 10
1.0625
 20
0.7036875000000002
 30
0.125
 70
    32
  0
VERTEX
  5
100002B8
  8
VISIBLE
 10
1.065625
 20
0.6485498046875003
 30
0.125
 70
    32
  0
VERTEX
  5
100002B9
  8
VISIBLE
 10
1.06875
 20
0.6060390625000003
 30
0.125
 70
    32
  0
VERTEX
  5
100002BA
  8
VISIBLE
 10
1.071875
 20
0.5786806640625002
 30
0.125
 70
    32
  0
VERTEX
  5
100002BB
  8
VISIBLE
 10
1.0734375
 20
0.5714727783203127
 30
0.125
 70
    32
  0
VERTEX
  5
100002BC
  8
VISIBLE
 10
1.07421875
 20
0.5696247711181643
 30
0.125
 70
    32
  0
VERTEX
  5
100002BD
  8
VISIBLE
 10
1.07465625
 20
0.5691216686904299
 30
0.125
 70
    32
  0
VERTEX
  5
100002BE
  8
VISIBLE
 10
1.075
 20
0.5690000000000003
 30
0.125
 70
    32
  0
VERTEX
  5
100002BF
  8
VISIBLE
 10
1.0754375
 20
0.5691968356796877
 30
0.125
 70
    32
  0
VERTEX
  5
100002C0
  8
VISIBLE
 10
1.07578125
 20
0.5696247711181643
 30
0.125
 70
    32
  0
VERTEX
  5
100002C1
  8
VISIBLE
 10
1.0765625
 20
0.5714727783203127
 30
0.125
 70
    32
  0
VERTEX
  5
100002C2
  8
VISIBLE
 10
1.078125
 20
0.5786806640625003
 30
0.125
 70
    32
  0
VERTEX
  5
100002C3
  8
VISIBLE
 10
1.08125
 20
0.6060390625000003
 30
0.125
 70
    32
  0
VERTEX
  5
100002C4
  8
VISIBLE
 10
1.084375
 20
0.6485498046875003
 30
0.125
 70
    32
  0
VERTEX
  5
100002C5
  8
VISIBLE
 10
1.0875
 20
0.7036875000000004
 30
0.125
 70
    32
  0
VERTEX
  5
100002C6
  8
VISIBLE
 10
1.090625
 20
0.7689267578125003
 30
0.125
 70
    32
  0
VERTEX
  5
100002C7
  8
VISIBLE
 10
1.09375
 20
0.8417421875000003
 30
0.125
 70
    32
  0
VERTEX
  5
100002C8
  8
VISIBLE
 10
1.096874999999999
 20
0.9196083984375004
 30
0.125
 70
    32
  0
VERTEX
  5
100002C9
  8
VISIBLE
 10
1.099999999999999
 20
1.0
 30
0.125
 70
    32
  0
SEQEND
  5
100004C1
  8
VISIBLE
  0
LINE
  5
F4A64
  8
VISIBLE
 10
0.9999999999999994
 20
1.0
 30
0.125
 11
1.05
 21
1.0
 31
0.125
  0
POLYLINE
  5
F4A65
  8
VISIBLE
 10
0.0
 20
0.0
 30
0.0
 66
     1
 70
     8
  0
VERTEX
  5
100002CE
  8
VISIBLE
 10
0.95
 20
1.0
 30
0.125
 70
    32
  0
VERTEX
  5
100002CF
  8
VISIBLE
 10
0.953125
 20
0.9196083984375003
 30
0.125
 70
    32
  0
VERTEX
  5
100002D0
  8
VISIBLE
 10
0.9562499999999999
 20
0.8417421875000003
 30
0.125
 70
    32
  0
VERTEX
  5
100002D1
  8
VISIBLE
 10
0.9593750000000001
 20
0.7689267578125002
 30
0.125
 70
    32
  0
VERTEX
  5
100002D2
  8
VISIBLE
 10
0.9625000000000001
 20
0.7036875000000002
 30
0.125
 70
    32
  0
VERTEX
  5
100002D3
  8
VISIBLE
 10
0.9656250000000003
 20
0.6485498046875003
 30
0.125
 70
    32
  0
VERTEX
  5
100002D4
  8
VISIBLE
 10
0.9687500000000001
 20
0.6060390625000003
 30
0.125
 70
    32
  0
VERTEX
  5
100002D5
  8
VISIBLE
 10
0.9718750000000003
 20
0.5786806640625002
 30
0.125
 70
    32
  0
VERTEX
  5
100002D6
  8
VISIBLE
 10
0.9734375000000003
 20
0.5714727783203127
 30
0.125
 70
    32
  0
VERTEX
  5
100002D7
  8
VISIBLE
 10
0.9742187500000002
 20
0.5696247711181643
 30
0.125
 70
    32
  0
VERTEX
  5
100002D8
  8
VISIBLE
 10
0.9746562500000002
 20
0.5691216686904299
 30
0.125
 70
    32
  0
VERTEX
  5
100002D9
  8
VISIBLE
 10
0.9750000000000002
 20
0.5690000000000003
 30
0.125
 70
    32
  0
VERTEX
  5
100002DA
  8
VISIBLE
 10
0.9754375000000003
 20
0.5691968356796877
 30
0.125
 70
    32
  0
VERTEX
  5
100002DB
  8
VISIBLE
 10
0.9757812500000002
 20
0.5696247711181643
 30
0.125
 70
    32
  0
VERTEX
  5
100002DC
  8
VISIBLE
 10
0.9765625000000002
 20
0.5714727783203127
 30
0.125
 70
    32
  0
VERTEX
  5
100002DD
  8
VISIBLE
 10
0.9781250000000002
 20
0.5786806640625003
 30
0.125
 70
    32
  0
VERTEX
  5
100002DE
  8
VISIBLE
 10
0.98125
 20
0.6060390625000003
 30
0.125
 70
    32
  0
VERTEX
  5
100002DF
  8
VISIBLE
 10
0.9843749999999999
 20
0.6485498046875003
 30
0.125
 70
    32
  0
VERTEX
  5
100002E0
  8
VISIBLE
 10
0.9874999999999999
 20
0.7036875000000004
 30
0.125
 70
    32
  0
VERTEX
  5
100002E1
  8
VISIBLE
 10
0.9906249999999998
 20
0.7689267578125003
 30
0.125
 70
    32
  0
VERTEX
  5
100002E2
  8
VISIBLE
 10
0.9937499999999996
 20
0.8417421875000003
 30
0.125
 70
    32
  0
VERTEX
  5
100002E3
  8
VISIBLE
 10
0.9968749999999995
 20
0.9196083984375004
 30
0.125
 70
    32
  0
VERTEX
  5
100002E4
  8
VISIBLE
 10
0.9999999999999994
 20
1.0
 30
0.125
 70
    32
  0
SEQEND
  5
100004C2
  8
VISIBLE
  0
LINE
  5
F4A66
  8
VISIBLE
 10
0.8999999999999995
 20
1.0
 30
0.125
 11
0.95
 21
1.0
 31
0.125
  0
POLYLINE
  5
F4A67
  8
VISIBLE
 10
0.0
 20
0.0
 30
0.0
 66
     1
 70
     8
  0
VERTEX
  5
100002E9
  8
VISIBLE
 10
0.85
 20
1.0
 30
0.125
 70
    32
  0
VERTEX
  5
100002EA
  8
VISIBLE
 10
0.8531249999999999
 20
0.9196083984375003
 30
0.125
 70
    32
  0
VERTEX
  5
100002EB
  8
VISIBLE
 10
0.85625
 20
0.8417421875000003
 30
0.125
 70
    32
  0
VERTEX
  5
100002EC
  8
VISIBLE
 10
0.8593749999999999
 20
0.7689267578125002
 30
0.125
 70
    32
  0
VERTEX
  5
100002ED
  8
VISIBLE
 10
0.8625000000000002
 20
0.7036875000000002
 30
0.125
 70
    32
  0
VERTEX
  5
100002EE
  8
VISIBLE
 10
0.8656250000000001
 20
0.6485498046875003
 30
0.125
 70
    32
  0
VERTEX
  5
100002EF
  8
VISIBLE
 10
0.8687500000000001
 20
0.6060390625000002
 30
0.125
 70
    32
  0
VERTEX
  5
100002F0
  8
VISIBLE
 10
0.8718750000000003
 20
0.5786806640625002
 30
0.125
 70
    32
  0
VERTEX
  5
100002F1
  8
VISIBLE
 10
0.8734375000000002
 20
0.5714727783203127
 30
0.125
 70
    32
  0
VERTEX
  5
100002F2
  8
VISIBLE
 10
0.8742187500000002
 20
0.5696247711181643
 30
0.125
 70
    32
  0
VERTEX
  5
100002F3
  8
VISIBLE
 10
0.8746562500000004
 20
0.5691216686904299
 30
0.125
 70
    32
  0
VERTEX
  5
100002F4
  8
VISIBLE
 10
0.8750000000000002
 20
0.5690000000000002
 30
0.125
 70
    32
  0
VERTEX
  5
100002F5
  8
VISIBLE
 10
0.8754375000000002
 20
0.5691968356796877
 30
0.125
 70
    32
  0
VERTEX
  5
100002F6
  8
VISIBLE
 10
0.8757812500000003
 20
0.5696247711181643
 30
0.125
 70
    32
  0
VERTEX
  5
100002F7
  8
VISIBLE
 10
0.8765625000000002
 20
0.5714727783203127
 30
0.125
 70
    32
  0
VERTEX
  5
100002F8
  8
VISIBLE
 10
0.8781250000000003
 20
0.5786806640625002
 30
0.125
 70
    32
  0
VERTEX
  5
100002F9
  8
VISIBLE
 10
0.8812500000000001
 20
0.6060390625000003
 30
0.125
 70
    32
  0
VERTEX
  5
100002FA
  8
VISIBLE
 10
0.884375
 20
0.6485498046875003
 30
0.125
 70
    32
  0
VERTEX
  5
100002FB
  8
VISIBLE
 10
0.8874999999999997
 20
0.7036875000000002
 30
0.125
 70
    32
  0
VERTEX
  5
100002FC
  8
VISIBLE
 10
0.8906249999999996
 20
0.7689267578125003
 30
0.125
 70
    32
  0
VERTEX
  5
100002FD
  8
VISIBLE
 10
0.8937499999999996
 20
0.8417421875000003
 30
0.125
 70
    32
  0
VERTEX
  5
100002FE
  8
VISIBLE
 10
0.8968749999999994
 20
0.9196083984375004
 30
0.125
 70
    32
  0
VERTEX
  5
100002FF
  8
VISIBLE
 10
0.8999999999999995
 20
1.0
 30
0.125
 70
    32
  0
SEQEND
  5
100004C3
  8
VISIBLE
  0
LINE
  5
F4A68
  8
VISIBLE
 10
0.7999999999999994
 20
1.0
 30
0.125
 11
0.85
 21
1.0
 31
0.125
  0
POLYLINE
  5
F4A69
  8
VISIBLE
 10
0.0
 20
0.0
 30
0.0
 66
     1
 70
     8
  0
VERTEX
  5
10000304
  8
VISIBLE
 10
0.7499999999999999
 20
1.0
 30
0.125
 70
    32
  0
VERTEX
  5
10000305
  8
VISIBLE
 10
0.7531249999999999
 20
0.9196083984375001
 30
0.125
 70
    32
  0
VERTEX
  5
10000306
  8
VISIBLE
 10
0.7562499999999999
 20
0.8417421875000001
 30
0.125
 70
    32
  0
VERTEX
  5
10000307
  8
VISIBLE
 10
0.759375
 20
0.7689267578125
 30
0.125
 70
    32
  0
VERTEX
  5
10000308
  8
VISIBLE
 10
0.7625000000000002
 20
0.7036875000000001
 30
0.125
 70
    32
  0
VERTEX
  5
10000309
  8
VISIBLE
 10
0.7656250000000001
 20
0.6485498046875001
 30
0.125
 70
    32
  0
VERTEX
  5
1000030A
  8
VISIBLE
 10
0.76875
 20
0.6060390625000001
 30
0.125
 70
    32
  0
VERTEX
  5
1000030B
  8
VISIBLE
 10
0.7718750000000003
 20
0.5786806640625002
 30
0.125
 70
    32
  0
VERTEX
  5
1000030C
  8
VISIBLE
 10
0.7734375000000002
 20
0.5714727783203127
 30
0.125
 70
    32
  0
VERTEX
  5
1000030D
  8
VISIBLE
 10
0.7742187500000002
 20
0.5696247711181641
 30
0.125
 70
    32
  0
VERTEX
  5
1000030E
  8
VISIBLE
 10
0.7746562500000002
 20
0.5691216686904298
 30
0.125
 70
    32
  0
VERTEX
  5
1000030F
  8
VISIBLE
 10
0.7750000000000002
 20
0.5690000000000002
 30
0.125
 70
    32
  0
VERTEX
  5
10000310
  8
VISIBLE
 10
0.7754375000000002
 20
0.5691968356796877
 30
0.125
 70
    32
  0
VERTEX
  5
10000311
  8
VISIBLE
 10
0.7757812500000003
 20
0.5696247711181641
 30
0.125
 70
    32
  0
VERTEX
  5
10000312
  8
VISIBLE
 10
0.7765625000000002
 20
0.5714727783203127
 30
0.125
 70
    32
  0
VERTEX
  5
10000313
  8
VISIBLE
 10
0.7781250000000001
 20
0.5786806640625002
 30
0.125
 70
    32
  0
VERTEX
  5
10000314
  8
VISIBLE
 10
0.78125
 20
0.6060390625000001
 30
0.125
 70
    32
  0
VERTEX
  5
10000315
  8
VISIBLE
 10
0.7843749999999999
 20
0.6485498046875003
 30
0.125
 70
    32
  0
VERTEX
  5
10000316
  8
VISIBLE
 10
0.7874999999999998
 20
0.7036875000000001
 30
0.125
 70
    32
  0
VERTEX
  5
10000317
  8
VISIBLE
 10
0.7906249999999997
 20
0.7689267578125002
 30
0.125
 70
    32
  0
VERTEX
  5
10000318
  8
VISIBLE
 10
0.7937499999999994
 20
0.8417421875000001
 30
0.125
 70
    32
  0
VERTEX
  5
10000319
  8
VISIBLE
 10
0.7968749999999994
 20
0.9196083984375001
 30
0.125
 70
    32
  0
VERTEX
  5
1000031A
  8
VISIBLE
 10
0.7999999999999994
 20
1.0
 30
0.125
 70
    32
  0
SEQEND
  5
100004C4
  8
VISIBLE
  0
LINE
  5
F4A6A
  8
VISIBLE
 10
0.6999999999999994
 20
1.0
 30
0.125
 11
0.7499999999999999
 21
1.0
 31
0.125
  0
POLYLINE
  5
F4A6B
  8
VISIBLE
 10
0.0
 20
0.0
 30
0.0
 66
     1
 70
     8
  0
VERTEX
  5
1000031F
  8
VISIBLE
 10
0.6499999999999999
 20
1.0
 30
0.125
 70
    32
  0
VERTEX
  5
10000320
  8
VISIBLE
 10
0.6531249999999998
 20
0.9196083984375001
 30
0.125
 70
    32
  0
VERTEX
  5
10000321
  8
VISIBLE
 10
0.6562499999999999
 20
0.8417421875000001
 30
0.125
 70
    32
  0
VERTEX
  5
10000322
  8
VISIBLE
 10
0.6593749999999999
 20
0.7689267578125
 30
0.125
 70
    32
  0
VERTEX
  5
10000323
  8
VISIBLE
 10
0.6625000000000001
 20
0.7036875000000001
 30
0.125
 70
    32
  0
VERTEX
  5
10000324
  8
VISIBLE
 10
0.6656250000000001
 20
0.6485498046875001
 30
0.125
 70
    32
  0
VERTEX
  5
10000325
  8
VISIBLE
 10
0.6687500000000001
 20
0.6060390625000001
 30
0.125
 70
    32
  0
VERTEX
  5
10000326
  8
VISIBLE
 10
0.6718750000000002
 20
0.5786806640625002
 30
0.125
 70
    32
  0
VERTEX
  5
10000327
  8
VISIBLE
 10
0.6734375000000001
 20
0.5714727783203126
 30
0.125
 70
    32
  0
VERTEX
  5
10000328
  8
VISIBLE
 10
0.6742187500000001
 20
0.5696247711181641
 30
0.125
 70
    32
  0
VERTEX
  5
10000329
  8
VISIBLE
 10
0.6746562500000003
 20
0.5691216686904298
 30
0.125
 70
    32
  0
VERTEX
  5
1000032A
  8
VISIBLE
 10
0.6750000000000002
 20
0.5690000000000002
 30
0.125
 70
    32
  0
VERTEX
  5
1000032B
  8
VISIBLE
 10
0.6754375000000001
 20
0.5691968356796876
 30
0.125
 70
    32
  0
VERTEX
  5
1000032C
  8
VISIBLE
 10
0.6757812500000002
 20
0.5696247711181641
 30
0.125
 70
    32
  0
VERTEX
  5
1000032D
  8
VISIBLE
 10
0.6765625000000002
 20
0.5714727783203126
 30
0.125
 70
    32
  0
VERTEX
  5
1000032E
  8
VISIBLE
 10
0.6781250000000002
 20
0.5786806640625001
 30
0.125
 70
    32
  0
VERTEX
  5
1000032F
  8
VISIBLE
 10
0.68125
 20
0.6060390625000001
 30
0.125
 70
    32
  0
VERTEX
  5
10000330
  8
VISIBLE
 10
0.684375
 20
0.6485498046875002
 30
0.125
 70
    32
  0
VERTEX
  5
10000331
  8
VISIBLE
 10
0.6874999999999997
 20
0.7036875000000001
 30
0.125
 70
    32
  0
VERTEX
  5
10000332
  8
VISIBLE
 10
0.6906249999999997
 20
0.7689267578125002
 30
0.125
 70
    32
  0
VERTEX
  5
10000333
  8
VISIBLE
 10
0.6937499999999994
 20
0.8417421875000001
 30
0.125
 70
    32
  0
VERTEX
  5
10000334
  8
VISIBLE
 10
0.6968749999999994
 20
0.9196083984375001
 30
0.125
 70
    32
  0
VERTEX
  5
10000335
  8
VISIBLE
 10
0.6999999999999994
 20
1.0
 30
0.125
 70
    32
  0
SEQEND
  5
100004C5
  8
VISIBLE
  0
LINE
  5
F4A6C
  8
VISIBLE
 10
0.0
 20
1.0
 30
0.125
 11
0.6499999999999999
 21
1.0
 31
0.125
  0
LINE
  5
F4A6D
  8
VISIBLE
 10
0.0
 20
1.0
 30
0.125
 11
0.0
 21
0.7500000000000002
 31
0.125
  0
LINE
  5
F4A6E
  8
VISIBLE
 10
0.1250000000000001
 20
0.7500000000000002
 30
0.125
 11
0.0
 21
0.7500000000000002
 31
0.125
  0
LINE
  5
F4A6F
  8
VISIBLE
 10
0.1250000000000002
 20
0.5690000000000002
 30
0.125
 11
0.1250000000000001
 21
0.7500000000000002
 31
0.125
  0
LINE
  5
F4A70
  8
VISIBLE
 10
0.1250000000000002
 20
0.5690000000000002
 30
0.125
 11
0.2822994553432689
 21
0.5690000000000002
 31
0.125
  0
LINE
  5
F4A71
  8
VISIBLE
 10
0.2822994553432689
 20
0.6562500000000004
 30
0.125
 11
0.2822994553432689
 21
0.5690000000000002
 31
0.125
  0
LINE
  5
F4A72
  8
VISIBLE
 10
0.3916744553432688
 20
0.6562500000000004
 30
0.125
 11
0.2822994553432689
 21
0.6562500000000004
 31
0.125
  0
LINE
  5
F4A73
  8
VISIBLE
 10
0.391674455343269
 20
0.5690000000000002
 30
0.125
 11
0.3916744553432688
 21
0.6562500000000004
 31
0.125
  0
LINE
  5
F4A74
  8
VISIBLE
 10
0.391674455343269
 20
0.5690000000000002
 30
0.125
 11
0.475
 21
0.5690000000000002
 31
0.125
  0
LINE
  5
F4A75
  8
VISIBLE
 10
0.475
 20
0.5690000000000002
 30
0.125
 11
0.4749999999999998
 21
0.4310000000000005
 31
0.125
  0
LINE
  5
F4A76
  8
VISIBLE
 10
0.391674455343269
 20
0.4310000000000005
 30
0.125
 11
0.4749999999999998
 21
0.4310000000000005
 31
0.125
  0
LINE
  5
F4A77
  8
VISIBLE
 10
0.391674455343269
 20
0.4310000000000005
 30
0.125
 11
0.3916744553432692
 21
0.3437500000000004
 31
0.125
  0
LINE
  5
F4A78
  8
VISIBLE
 10
0.2822994553432689
 20
0.3437500000000004
 30
0.125
 11
0.3916744553432692
 21
0.3437500000000004
 31
0.125
  0
LINE
  5
F4A79
  8
VISIBLE
 10
0.2822994553432689
 20
0.4310000000000005
 30
0.125
 11
0.2822994553432689
 21
0.3437500000000004
 31
0.125
  0
LINE
  5
F4A7A
  8
VISIBLE
 10
0.1250000000000002
 20
0.4310000000000005
 30
0.125
 11
0.2822994553432689
 21
0.4310000000000005
 31
0.125
  0
LINE
  5
F4A7B
  8
VISIBLE
 10
0.1250000000000002
 20
0.4310000000000005
 30
0.125
 11
0.1250000000000003
 21
0.2500000000000001
 31
0.125
  0
LINE
  5
F4A7C
  8
VISIBLE
 10
0.1250000000000003
 20
0.2500000000000001
 30
0.125
 11
0.0000000000000003
 21
0.2500000000000001
 31
0.125
  0
LINE
  5
F4A7D
  8
VISIBLE
 10
0.0000000000000003
 20
0.2500000000000001
 30
0.125
 11
0.0
 21
0.0
 31
0.125
  0
LINE
  5
F4A7E
  8
VISIBLE
 10
0.0
 20
0.0
 30
0.125
 11
0.6500000000000001
 21
0.0
 31
0.125
  0
POLYLINE
  5
F4A7F
  8
VISIBLE
 10
0.0
 20
0.0
 30
0.0
 66
     1
 70
     8
  0
VERTEX
  5
1000035E
  8
VISIBLE
 10
0.6500000000000001
 20
0.0
 30
0.125
 70
    32
  0
VERTEX
  5
1000035F
  8
VISIBLE
 10
0.6531250000000002
 20
0.0803916015625001
 30
0.125
 70
    32
  0
VERTEX
  5
10000360
  8
VISIBLE
 10
0.6562500000000001
 20
0.1582578125000002
 30
0.125
 70
    32
  0
VERTEX
  5
10000361
  8
VISIBLE
 10
0.6593750000000002
 20
0.2310732421875003
 30
0.125
 70
    32
  0
VERTEX
  5
10000362
  8
VISIBLE
 10
0.6625000000000001
 20
0.2963125000000004
 30
0.125
 70
    32
  0
VERTEX
  5
10000363
  8
VISIBLE
 10
0.6656250000000001
 20
0.3514501953125005
 30
0.125
 70
    32
  0
VERTEX
  5
10000364
  8
VISIBLE
 10
0.6687500000000001
 20
0.3939609375000005
 30
0.125
 70
    32
  0
VERTEX
  5
10000365
  8
VISIBLE
 10
0.6718750000000001
 20
0.4213193359375006
 30
0.125
 70
    32
  0
VERTEX
  5
10000366
  8
VISIBLE
 10
0.6734375000000001
 20
0.4285272216796882
 30
0.125
 70
    32
  0
VERTEX
  5
10000367
  8
VISIBLE
 10
0.6742187500000001
 20
0.4303752288818365
 30
0.125
 70
    32
  0
VERTEX
  5
10000368
  8
VISIBLE
 10
0.6746562500000003
 20
0.4308783313095709
 30
0.125
 70
    32
  0
VERTEX
  5
10000369
  8
VISIBLE
 10
0.6750000000000002
 20
0.4310000000000005
 30
0.125
 70
    32
  0
VERTEX
  5
1000036A
  8
VISIBLE
 10
0.6754375000000001
 20
0.4308031643203131
 30
0.125
 70
    32
  0
VERTEX
  5
1000036B
  8
VISIBLE
 10
0.6757812500000002
 20
0.4303752288818365
 30
0.125
 70
    32
  0
VERTEX
  5
1000036C
  8
VISIBLE
 10
0.6765625000000002
 20
0.4285272216796882
 30
0.125
 70
    32
  0
VERTEX
  5
1000036D
  8
VISIBLE
 10
0.6781250000000002
 20
0.4213193359375006
 30
0.125
 70
    32
  0
VERTEX
  5
1000036E
  8
VISIBLE
 10
0.6812500000000002
 20
0.3939609375000006
 30
0.125
 70
    32
  0
VERTEX
  5
1000036F
  8
VISIBLE
 10
0.6843750000000003
 20
0.3514501953125005
 30
0.125
 70
    32
  0
VERTEX
  5
10000370
  8
VISIBLE
 10
0.6875000000000002
 20
0.2963125000000004
 30
0.125
 70
    32
  0
VERTEX
  5
10000371
  8
VISIBLE
 10
0.6906250000000003
 20
0.2310732421875003
 30
0.125
 70
    32
  0
VERTEX
  5
10000372
  8
VISIBLE
 10
0.6937500000000002
 20
0.1582578125000002
 30
0.125
 70
    32
  0
VERTEX
  5
10000373
  8
VISIBLE
 10
0.6968750000000002
 20
0.0803916015625001
 30
0.125
 70
    32
  0
VERTEX
  5
10000374
  8
VISIBLE
 10
0.7000000000000002
 20
0.0
 30
0.125
 70
    32
  0
SEQEND
  5
100004C6
  8
VISIBLE
  0
LINE
  5
F4A80
  8
VISIBLE
 10
0.7000000000000002
 20
0.0
 30
0.125
 11
0.7500000000000002
 21
0.0
 31
0.125
  0
POLYLINE
  5
F4A81
  8
VISIBLE
 10
0.0
 20
0.0
 30
0.0
 66
     1
 70
     8
  0
VERTEX
  5
10000379
  8
VISIBLE
 10
0.7500000000000002
 20
0.0
 30
0.125
 70
    32
  0
VERTEX
  5
1000037A
  8
VISIBLE
 10
0.7531250000000002
 20
0.0803916015625001
 30
0.125
 70
    32
  0
VERTEX
  5
1000037B
  8
VISIBLE
 10
0.7562500000000002
 20
0.1582578125000002
 30
0.125
 70
    32
  0
VERTEX
  5
1000037C
  8
VISIBLE
 10
0.7593750000000001
 20
0.2310732421875003
 30
0.125
 70
    32
  0
VERTEX
  5
1000037D
  8
VISIBLE
 10
0.7625000000000002
 20
0.2963125000000004
 30
0.125
 70
    32
  0
VERTEX
  5
1000037E
  8
VISIBLE
 10
0.7656250000000001
 20
0.3514501953125005
 30
0.125
 70
    32
  0
VERTEX
  5
1000037F
  8
VISIBLE
 10
0.76875
 20
0.3939609375000006
 30
0.125
 70
    32
  0
VERTEX
  5
10000380
  8
VISIBLE
 10
0.7718750000000002
 20
0.4213193359375006
 30
0.125
 70
    32
  0
VERTEX
  5
10000381
  8
VISIBLE
 10
0.7734375000000002
 20
0.4285272216796882
 30
0.125
 70
    32
  0
VERTEX
  5
10000382
  8
VISIBLE
 10
0.7742187500000002
 20
0.4303752288818365
 30
0.125
 70
    32
  0
VERTEX
  5
10000383
  8
VISIBLE
 10
0.7746562500000002
 20
0.4308783313095709
 30
0.125
 70
    32
  0
VERTEX
  5
10000384
  8
VISIBLE
 10
0.7750000000000002
 20
0.4310000000000006
 30
0.125
 70
    32
  0
VERTEX
  5
10000385
  8
VISIBLE
 10
0.7754375000000002
 20
0.4308031643203131
 30
0.125
 70
    32
  0
VERTEX
  5
10000386
  8
VISIBLE
 10
0.7757812500000003
 20
0.4303752288818365
 30
0.125
 70
    32
  0
VERTEX
  5
10000387
  8
VISIBLE
 10
0.7765625000000002
 20
0.4285272216796882
 30
0.125
 70
    32
  0
VERTEX
  5
10000388
  8
VISIBLE
 10
0.7781250000000003
 20
0.4213193359375006
 30
0.125
 70
    32
  0
VERTEX
  5
10000389
  8
VISIBLE
 10
0.7812500000000003
 20
0.3939609375000006
 30
0.125
 70
    32
  0
VERTEX
  5
1000038A
  8
VISIBLE
 10
0.7843750000000003
 20
0.3514501953125005
 30
0.125
 70
    32
  0
VERTEX
  5
1000038B
  8
VISIBLE
 10
0.7875000000000003
 20
0.2963125000000004
 30
0.125
 70
    32
  0
VERTEX
  5
1000038C
  8
VISIBLE
 10
0.7906250000000002
 20
0.2310732421875003
 30
0.125
 70
    32
  0
VERTEX
  5
1000038D
  8
VISIBLE
 10
0.7937500000000003
 20
0.1582578125000003
 30
0.125
 70
    32
  0
VERTEX
  5
1000038E
  8
VISIBLE
 10
0.7968750000000002
 20
0.0803916015625001
 30
0.125
 70
    32
  0
VERTEX
  5
1000038F
  8
VISIBLE
 10
0.8000000000000002
 20
0.0
 30
0.125
 70
    32
  0
SEQEND
  5
100004C7
  8
VISIBLE
  0
LINE
  5
F4A82
  8
VISIBLE
 10
0.8000000000000002
 20
0.0
 30
0.125
 11
0.8500000000000002
 21
0.0000000000000001
 31
0.125
  0
POLYLINE
  5
F4A83
  8
VISIBLE
 10
0.0
 20
0.0
 30
0.0
 66
     1
 70
     8
  0
VERTEX
  5
10000394
  8
VISIBLE
 10
0.8500000000000002
 20
0.0000000000000001
 30
0.125
 70
    32
  0
VERTEX
  5
10000395
  8
VISIBLE
 10
0.8531250000000002
 20
0.0803916015625002
 30
0.125
 70
    32
  0
VERTEX
  5
10000396
  8
VISIBLE
 10
0.8562500000000002
 20
0.1582578125000003
 30
0.125
 70
    32
  0
VERTEX
  5
10000397
  8
VISIBLE
 10
0.8593750000000002
 20
0.2310732421875004
 30
0.125
 70
    32
  0
VERTEX
  5
10000398
  8
VISIBLE
 10
0.8625000000000002
 20
0.2963125000000005
 30
0.125
 70
    32
  0
VERTEX
  5
10000399
  8
VISIBLE
 10
0.8656250000000001
 20
0.3514501953125006
 30
0.125
 70
    32
  0
VERTEX
  5
1000039A
  8
VISIBLE
 10
0.8687500000000001
 20
0.3939609375000007
 30
0.125
 70
    32
  0
VERTEX
  5
1000039B
  8
VISIBLE
 10
0.8718750000000003
 20
0.4213193359375007
 30
0.125
 70
    32
  0
VERTEX
  5
1000039C
  8
VISIBLE
 10
0.8734375000000002
 20
0.4285272216796883
 30
0.125
 70
    32
  0
VERTEX
  5
1000039D
  8
VISIBLE
 10
0.8742187500000002
 20
0.4303752288818367
 30
0.125
 70
    32
  0
VERTEX
  5
1000039E
  8
VISIBLE
 10
0.8746562500000004
 20
0.430878331309571
 30
0.125
 70
    32
  0
VERTEX
  5
1000039F
  8
VISIBLE
 10
0.8750000000000002
 20
0.4310000000000007
 30
0.125
 70
    32
  0
VERTEX
  5
100003A0
  8
VISIBLE
 10
0.8754375000000002
 20
0.4308031643203132
 30
0.125
 70
    32
  0
VERTEX
  5
100003A1
  8
VISIBLE
 10
0.8757812500000003
 20
0.4303752288818367
 30
0.125
 70
    32
  0
VERTEX
  5
100003A2
  8
VISIBLE
 10
0.8765625000000002
 20
0.4285272216796882
 30
0.125
 70
    32
  0
VERTEX
  5
100003A3
  8
VISIBLE
 10
0.8781250000000003
 20
0.4213193359375006
 30
0.125
 70
    32
  0
VERTEX
  5
100003A4
  8
VISIBLE
 10
0.8812500000000003
 20
0.3939609375000007
 30
0.125
 70
    32
  0
VERTEX
  5
100003A5
  8
VISIBLE
 10
0.8843750000000004
 20
0.3514501953125006
 30
0.125
 70
    32
  0
VERTEX
  5
100003A6
  8
VISIBLE
 10
0.8875000000000003
 20
0.2963125000000005
 30
0.125
 70
    32
  0
VERTEX
  5
100003A7
  8
VISIBLE
 10
0.8906250000000003
 20
0.2310732421875004
 30
0.125
 70
    32
  0
VERTEX
  5
100003A8
  8
VISIBLE
 10
0.8937500000000003
 20
0.1582578125000003
 30
0.125
 70
    32
  0
VERTEX
  5
100003A9
  8
VISIBLE
 10
0.8968750000000002
 20
0.0803916015625002
 30
0.125
 70
    32
  0
VERTEX
  5
100003AA
  8
VISIBLE
 10
0.9000000000000002
 20
0.0000000000000001
 30
0.125
 70
    32
  0
SEQEND
  5
100004C8
  8
VISIBLE
  0
LINE
  5
F4A84
  8
VISIBLE
 10
0.9000000000000002
 20
0.0000000000000001
 30
0.125
 11
0.9500000000000003
 21
0.0000000000000001
 31
0.125
  0
POLYLINE
  5
F4A85
  8
VISIBLE
 10
0.0
 20
0.0
 30
0.0
 66
     1
 70
     8
  0
VERTEX
  5
100003AF
  8
VISIBLE
 10
0.9500000000000003
 20
0.0000000000000001
 30
0.125
 70
    32
  0
VERTEX
  5
100003B0
  8
VISIBLE
 10
0.9531250000000002
 20
0.0803916015625002
 30
0.125
 70
    32
  0
VERTEX
  5
100003B1
  8
VISIBLE
 10
0.9562500000000003
 20
0.1582578125000003
 30
0.125
 70
    32
  0
VERTEX
  5
100003B2
  8
VISIBLE
 10
0.9593750000000002
 20
0.2310732421875004
 30
0.125
 70
    32
  0
VERTEX
  5
100003B3
  8
VISIBLE
 10
0.9625000000000001
 20
0.2963125000000005
 30
0.125
 70
    32
  0
VERTEX
  5
100003B4
  8
VISIBLE
 10
0.9656250000000003
 20
0.3514501953125006
 30
0.125
 70
    32
  0
VERTEX
  5
100003B5
  8
VISIBLE
 10
0.9687500000000001
 20
0.3939609375000007
 30
0.125
 70
    32
  0
VERTEX
  5
100003B6
  8
VISIBLE
 10
0.9718750000000003
 20
0.4213193359375007
 30
0.125
 70
    32
  0
VERTEX
  5
100003B7
  8
VISIBLE
 10
0.9734375000000003
 20
0.4285272216796883
 30
0.125
 70
    32
  0
VERTEX
  5
100003B8
  8
VISIBLE
 10
0.9742187500000002
 20
0.4303752288818367
 30
0.125
 70
    32
  0
VERTEX
  5
100003B9
  8
VISIBLE
 10
0.9746562500000002
 20
0.4308783313095711
 30
0.125
 70
    32
  0
VERTEX
  5
100003BA
  8
VISIBLE
 10
0.9750000000000002
 20
0.4310000000000007
 30
0.125
 70
    32
  0
VERTEX
  5
100003BB
  8
VISIBLE
 10
0.9754375000000002
 20
0.4308031643203132
 30
0.125
 70
    32
  0
VERTEX
  5
100003BC
  8
VISIBLE
 10
0.9757812500000002
 20
0.4303752288818367
 30
0.125
 70
    32
  0
VERTEX
  5
100003BD
  8
VISIBLE
 10
0.9765625000000003
 20
0.4285272216796883
 30
0.125
 70
    32
  0
VERTEX
  5
100003BE
  8
VISIBLE
 10
0.9781250000000004
 20
0.4213193359375007
 30
0.125
 70
    32
  0
VERTEX
  5
100003BF
  8
VISIBLE
 10
0.9812500000000002
 20
0.3939609375000007
 30
0.125
 70
    32
  0
VERTEX
  5
100003C0
  8
VISIBLE
 10
0.9843750000000003
 20
0.3514501953125006
 30
0.125
 70
    32
  0
VERTEX
  5
100003C1
  8
VISIBLE
 10
0.9875000000000004
 20
0.2963125000000006
 30
0.125
 70
    32
  0
VERTEX
  5
100003C2
  8
VISIBLE
 10
0.9906250000000003
 20
0.2310732421875004
 30
0.125
 70
    32
  0
VERTEX
  5
100003C3
  8
VISIBLE
 10
0.9937500000000002
 20
0.1582578125000003
 30
0.125
 70
    32
  0
VERTEX
  5
100003C4
  8
VISIBLE
 10
0.9968750000000002
 20
0.0803916015625002
 30
0.125
 70
    32
  0
VERTEX
  5
100003C5
  8
VISIBLE
 10
1.0
 20
0.0000000000000001
 30
0.125
 70
    32
  0
SEQEND
  5
100004C9
  8
VISIBLE
  0
LINE
  5
F4A86
  8
VISIBLE
 10
1.0
 20
0.0000000000000001
 30
0.125
 11
1.05
 21
0.0000000000000002
 31
0.125
  0
POLYLINE
  5
F4A87
  8
VISIBLE
 10
0.0
 20
0.0
 30
0.0
 66
     1
 70
     8
  0
VERTEX
  5
100003CA
  8
VISIBLE
 10
1.05
 20
0.0000000000000002
 30
0.125
 70
    32
  0
VERTEX
  5
100003CB
  8
VISIBLE
 10
1.053125
 20
0.0803916015625003
 30
0.125
 70
    32
  0
VERTEX
  5
100003CC
  8
VISIBLE
 10
1.05625
 20
0.1582578125000004
 30
0.125
 70
    32
  0
VERTEX
  5
100003CD
  8
VISIBLE
 10
1.059375
 20
0.2310732421875004
 30
0.125
 70
    32
  0
VERTEX
  5
100003CE
  8
VISIBLE
 10
1.0625
 20
0.2963125000000006
 30
0.125
 70
    32
  0
VERTEX
  5
100003CF
  8
VISIBLE
 10
1.065625
 20
0.3514501953125006
 30
0.125
 70
    32
  0
VERTEX
  5
100003D0
  8
VISIBLE
 10
1.06875
 20
0.3939609375000007
 30
0.125
 70
    32
  0
VERTEX
  5
100003D1
  8
VISIBLE
 10
1.071875
 20
0.4213193359375007
 30
0.125
 70
    32
  0
VERTEX
  5
100003D2
  8
VISIBLE
 10
1.0734375
 20
0.4285272216796883
 30
0.125
 70
    32
  0
VERTEX
  5
100003D3
  8
VISIBLE
 10
1.07421875
 20
0.4303752288818367
 30
0.125
 70
    32
  0
VERTEX
  5
100003D4
  8
VISIBLE
 10
1.07465625
 20
0.4308783313095711
 30
0.125
 70
    32
  0
VERTEX
  5
100003D5
  8
VISIBLE
 10
1.075
 20
0.4310000000000007
 30
0.125
 70
    32
  0
VERTEX
  5
100003D6
  8
VISIBLE
 10
1.0754375
 20
0.4308031643203133
 30
0.125
 70
    32
  0
VERTEX
  5
100003D7
  8
VISIBLE
 10
1.07578125
 20
0.4303752288818367
 30
0.125
 70
    32
  0
VERTEX
  5
100003D8
  8
VISIBLE
 10
1.0765625
 20
0.4285272216796883
 30
0.125
 70
    32
  0
VERTEX
  5
100003D9
  8
VISIBLE
 10
1.078125
 20
0.4213193359375007
 30
0.125
 70
    32
  0
VERTEX
  5
100003DA
  8
VISIBLE
 10
1.08125
 20
0.3939609375000007
 30
0.125
 70
    32
  0
VERTEX
  5
100003DB
  8
VISIBLE
 10
1.084375
 20
0.3514501953125006
 30
0.125
 70
    32
  0
VERTEX
  5
100003DC
  8
VISIBLE
 10
1.0875
 20
0.2963125000000006
 30
0.125
 70
    32
  0
VERTEX
  5
100003DD
  8
VISIBLE
 10
1.090625
 20
0.2310732421875005
 30
0.125
 70
    32
  0
VERTEX
  5
100003DE
  8
VISIBLE
 10
1.09375
 20
0.1582578125000004
 30
0.125
 70
    32
  0
VERTEX
  5
100003DF
  8
VISIBLE
 10
1.096875
 20
0.0803916015625003
 30
0.125
 70
    32
  0
VERTEX
  5
100003E0
  8
VISIBLE
 10
1.1
 20
0.0000000000000002
 30
0.125
 70
    32
  0
SEQEND
  5
100004CA
  8
VISIBLE
  0
LINE
  5
F4A88
  8
VISIBLE
 10
1.1
 20
0.0000000000000002
 30
0.125
 11
1.15
 21
0.0000000000000002
 31
0.125
  0
POLYLINE
  5
F4A89
  8
VISIBLE
 10
0.0
 20
0.0
 30
0.0
 66
     1
 70
     8
  0
VERTEX
  5
100003E5
  8
VISIBLE
 10
1.15
 20
0.0000000000000002
 30
0.125
 70
    32
  0
VERTEX
  5
100003E6
  8
VISIBLE
 10
1.153125
 20
0.0803916015625003
 30
0.125
 70
    32
  0
VERTEX
  5
100003E7
  8
VISIBLE
 10
1.15625
 20
0.1582578125000004
 30
0.125
 70
    32
  0
VERTEX
  5
100003E8
  8
VISIBLE
 10
1.159375
 20
0.2310732421875005
 30
0.125
 70
    32
  0
VERTEX
  5
100003E9
  8
VISIBLE
 10
1.1625
 20
0.2963125000000006
 30
0.125
 70
    32
  0
VERTEX
  5
100003EA
  8
VISIBLE
 10
1.165625
 20
0.3514501953125008
 30
0.125
 70
    32
  0
VERTEX
  5
100003EB
  8
VISIBLE
 10
1.16875
 20
0.3939609375000007
 30
0.125
 70
    32
  0
VERTEX
  5
100003EC
  8
VISIBLE
 10
1.171875
 20
0.4213193359375008
 30
0.125
 70
    32
  0
VERTEX
  5
100003ED
  8
VISIBLE
 10
1.1734375
 20
0.4285272216796884
 30
0.125
 70
    32
  0
VERTEX
  5
100003EE
  8
VISIBLE
 10
1.17421875
 20
0.4303752288818368
 30
0.125
 70
    32
  0
VERTEX
  5
100003EF
  8
VISIBLE
 10
1.17465625
 20
0.4308783313095711
 30
0.125
 70
    32
  0
VERTEX
  5
100003F0
  8
VISIBLE
 10
1.175
 20
0.4310000000000008
 30
0.125
 70
    32
  0
VERTEX
  5
100003F1
  8
VISIBLE
 10
1.1754375
 20
0.4308031643203133
 30
0.125
 70
    32
  0
VERTEX
  5
100003F2
  8
VISIBLE
 10
1.17578125
 20
0.4303752288818368
 30
0.125
 70
    32
  0
VERTEX
  5
100003F3
  8
VISIBLE
 10
1.1765625
 20
0.4285272216796883
 30
0.125
 70
    32
  0
VERTEX
  5
100003F4
  8
VISIBLE
 10
1.178125000000001
 20
0.4213193359375008
 30
0.125
 70
    32
  0
VERTEX
  5
100003F5
  8
VISIBLE
 10
1.18125
 20
0.3939609375000007
 30
0.125
 70
    32
  0
VERTEX
  5
100003F6
  8
VISIBLE
 10
1.184375
 20
0.3514501953125008
 30
0.125
 70
    32
  0
VERTEX
  5
100003F7
  8
VISIBLE
 10
1.1875
 20
0.2963125000000006
 30
0.125
 70
    32
  0
VERTEX
  5
100003F8
  8
VISIBLE
 10
1.190625
 20
0.2310732421875006
 30
0.125
 70
    32
  0
VERTEX
  5
100003F9
  8
VISIBLE
 10
1.19375
 20
0.1582578125000004
 30
0.125
 70
    32
  0
VERTEX
  5
100003FA
  8
VISIBLE
 10
1.196875
 20
0.0803916015625003
 30
0.125
 70
    32
  0
VERTEX
  5
100003FB
  8
VISIBLE
 10
1.2
 20
0.0000000000000002
 30
0.125
 70
    32
  0
SEQEND
  5
100004CB
  8
VISIBLE
  0
LINE
  5
F4A8A
  8
VISIBLE
 10
1.2
 20
0.0000000000000002
 30
0.125
 11
1.25
 21
0.0000000000000003
 31
0.125
  0
POLYLINE
  5
F4A8B
  8
VISIBLE
 10
0.0
 20
0.0
 30
0.0
 66
     1
 70
     8
  0
VERTEX
  5
10000400
  8
VISIBLE
 10
1.25
 20
0.0000000000000003
 30
0.125
 70
    32
  0
VERTEX
  5
10000401
  8
VISIBLE
 10
1.253125
 20
0.0803916015625003
 30
0.125
 70
    32
  0
VERTEX
  5
10000402
  8
VISIBLE
 10
1.25625
 20
0.1582578125000005
 30
0.125
 70
    32
  0
VERTEX
  5
10000403
  8
VISIBLE
 10
1.259375
 20
0.2310732421875006
 30
0.125
 70
    32
  0
VERTEX
  5
10000404
  8
VISIBLE
 10
1.262500000000001
 20
0.2963125000000006
 30
0.125
 70
    32
  0
VERTEX
  5
10000405
  8
VISIBLE
 10
1.265625
 20
0.3514501953125008
 30
0.125
 70
    32
  0
VERTEX
  5
10000406
  8
VISIBLE
 10
1.26875
 20
0.3939609375000008
 30
0.125
 70
    32
  0
VERTEX
  5
10000407
  8
VISIBLE
 10
1.271875000000001
 20
0.4213193359375008
 30
0.125
 70
    32
  0
VERTEX
  5
10000408
  8
VISIBLE
 10
1.2734375
 20
0.4285272216796884
 30
0.125
 70
    32
  0
VERTEX
  5
10000409
  8
VISIBLE
 10
1.27421875
 20
0.4303752288818368
 30
0.125
 70
    32
  0
VERTEX
  5
1000040A
  8
VISIBLE
 10
1.27465625
 20
0.4308783313095711
 30
0.125
 70
    32
  0
VERTEX
  5
1000040B
  8
VISIBLE
 10
1.275000000000001
 20
0.4310000000000008
 30
0.125
 70
    32
  0
VERTEX
  5
1000040C
  8
VISIBLE
 10
1.2754375
 20
0.4308031643203133
 30
0.125
 70
    32
  0
VERTEX
  5
1000040D
  8
VISIBLE
 10
1.27578125
 20
0.4303752288818368
 30
0.125
 70
    32
  0
VERTEX
  5
1000040E
  8
VISIBLE
 10
1.2765625
 20
0.4285272216796884
 30
0.125
 70
    32
  0
VERTEX
  5
1000040F
  8
VISIBLE
 10
1.278125
 20
0.4213193359375008
 30
0.125
 70
    32
  0
VERTEX
  5
10000410
  8
VISIBLE
 10
1.28125
 20
0.3939609375000007
 30
0.125
 70
    32
  0
VERTEX
  5
10000411
  8
VISIBLE
 10
1.284375
 20
0.3514501953125008
 30
0.125
 70
    32
  0
VERTEX
  5
10000412
  8
VISIBLE
 10
1.2875
 20
0.2963125000000006
 30
0.125
 70
    32
  0
VERTEX
  5
10000413
  8
VISIBLE
 10
1.290625
 20
0.2310732421875006
 30
0.125
 70
    32
  0
VERTEX
  5
10000414
  8
VISIBLE
 10
1.29375
 20
0.1582578125000005
 30
0.125
 70
    32
  0
VERTEX
  5
10000415
  8
VISIBLE
 10
1.296875
 20
0.0803916015625004
 30
0.125
 70
    32
  0
VERTEX
  5
10000416
  8
VISIBLE
 10
1.3
 20
0.0000000000000003
 30
0.125
 70
    32
  0
SEQEND
  5
100004CC
  8
VISIBLE
  0
LINE
  5
F4A8C
  8
VISIBLE
 10
1.3
 20
0.0000000000000003
 30
0.125
 11
1.35
 21
0.0000000000000003
 31
0.125
  0
POLYLINE
  5
F4A8D
  8
VISIBLE
 10
0.0
 20
0.0
 30
0.0
 66
     1
 70
     8
  0
VERTEX
  5
1000041B
  8
VISIBLE
 10
1.35
 20
0.0000000000000003
 30
0.125
 70
    32
  0
VERTEX
  5
1000041C
  8
VISIBLE
 10
1.353125
 20
0.0803916015625004
 30
0.125
 70
    32
  0
VERTEX
  5
1000041D
  8
VISIBLE
 10
1.35625
 20
0.1582578125000005
 30
0.125
 70
    32
  0
VERTEX
  5
1000041E
  8
VISIBLE
 10
1.359375
 20
0.2310732421875006
 30
0.125
 70
    32
  0
VERTEX
  5
1000041F
  8
VISIBLE
 10
1.3625
 20
0.2963125000000007
 30
0.125
 70
    32
  0
VERTEX
  5
10000420
  8
VISIBLE
 10
1.365625
 20
0.3514501953125008
 30
0.125
 70
    32
  0
VERTEX
  5
10000421
  8
VISIBLE
 10
1.368750000000001
 20
0.3939609375000008
 30
0.125
 70
    32
  0
VERTEX
  5
10000422
  8
VISIBLE
 10
1.371875000000001
 20
0.4213193359375009
 30
0.125
 70
    32
  0
VERTEX
  5
10000423
  8
VISIBLE
 10
1.3734375
 20
0.4285272216796884
 30
0.125
 70
    32
  0
VERTEX
  5
10000424
  8
VISIBLE
 10
1.37421875
 20
0.4303752288818368
 30
0.125
 70
    32
  0
VERTEX
  5
10000425
  8
VISIBLE
 10
1.374656250000001
 20
0.4308783313095712
 30
0.125
 70
    32
  0
VERTEX
  5
10000426
  8
VISIBLE
 10
1.375
 20
0.4310000000000009
 30
0.125
 70
    32
  0
VERTEX
  5
10000427
  8
VISIBLE
 10
1.375437500000001
 20
0.4308031643203134
 30
0.125
 70
    32
  0
VERTEX
  5
10000428
  8
VISIBLE
 10
1.37578125
 20
0.4303752288818368
 30
0.125
 70
    32
  0
VERTEX
  5
10000429
  8
VISIBLE
 10
1.3765625
 20
0.4285272216796884
 30
0.125
 70
    32
  0
VERTEX
  5
1000042A
  8
VISIBLE
 10
1.378125
 20
0.4213193359375008
 30
0.125
 70
    32
  0
VERTEX
  5
1000042B
  8
VISIBLE
 10
1.381250000000001
 20
0.3939609375000008
 30
0.125
 70
    32
  0
VERTEX
  5
1000042C
  8
VISIBLE
 10
1.384375
 20
0.3514501953125008
 30
0.125
 70
    32
  0
VERTEX
  5
1000042D
  8
VISIBLE
 10
1.3875
 20
0.2963125000000006
 30
0.125
 70
    32
  0
VERTEX
  5
1000042E
  8
VISIBLE
 10
1.390625
 20
0.2310732421875006
 30
0.125
 70
    32
  0
VERTEX
  5
1000042F
  8
VISIBLE
 10
1.39375
 20
0.1582578125000005
 30
0.125
 70
    32
  0
VERTEX
  5
10000430
  8
VISIBLE
 10
1.396875
 20
0.0803916015625004
 30
0.125
 70
    32
  0
VERTEX
  5
10000431
  8
VISIBLE
 10
1.4
 20
0.0000000000000003
 30
0.125
 70
    32
  0
SEQEND
  5
100004CD
  8
VISIBLE
  0
LINE
  5
F4A8E
  8
VISIBLE
 10
1.4
 20
0.0000000000000003
 30
0.125
 11
1.45
 21
0.0000000000000003
 31
0.125
  0
POLYLINE
  5
F4A8F
  8
VISIBLE
 10
0.0
 20
0.0
 30
0.0
 66
     1
 70
     8
  0
VERTEX
  5
10000436
  8
VISIBLE
 10
1.45
 20
0.0000000000000003
 30
0.125
 70
    32
  0
VERTEX
  5
10000437
  8
VISIBLE
 10
1.453125
 20
0.0803916015625004
 30
0.125
 70
    32
  0
VERTEX
  5
10000438
  8
VISIBLE
 10
1.456250000000001
 20
0.1582578125000005
 30
0.125
 70
    32
  0
VERTEX
  5
10000439
  8
VISIBLE
 10
1.459375
 20
0.2310732421875006
 30
0.125
 70
    32
  0
VERTEX
  5
1000043A
  8
VISIBLE
 10
1.462500000000001
 20
0.2963125000000007
 30
0.125
 70
    32
  0
VERTEX
  5
1000043B
  8
VISIBLE
 10
1.465625
 20
0.3514501953125008
 30
0.125
 70
    32
  0
VERTEX
  5
1000043C
  8
VISIBLE
 10
1.46875
 20
0.3939609375000008
 30
0.125
 70
    32
  0
VERTEX
  5
1000043D
  8
VISIBLE
 10
1.471875
 20
0.4213193359375009
 30
0.125
 70
    32
  0
VERTEX
  5
1000043E
  8
VISIBLE
 10
1.4734375
 20
0.4285272216796884
 30
0.125
 70
    32
  0
VERTEX
  5
1000043F
  8
VISIBLE
 10
1.47421875
 20
0.4303752288818368
 30
0.125
 70
    32
  0
VERTEX
  5
10000440
  8
VISIBLE
 10
1.47465625
 20
0.4308783313095712
 30
0.125
 70
    32
  0
VERTEX
  5
10000441
  8
VISIBLE
 10
1.475000000000001
 20
0.4310000000000009
 30
0.125
 70
    32
  0
VERTEX
  5
10000442
  8
VISIBLE
 10
1.475437500000001
 20
0.4308031643203134
 30
0.125
 70
    32
  0
VERTEX
  5
10000443
  8
VISIBLE
 10
1.47578125
 20
0.4303752288818368
 30
0.125
 70
    32
  0
VERTEX
  5
10000444
  8
VISIBLE
 10
1.476562500000001
 20
0.4285272216796884
 30
0.125
 70
    32
  0
VERTEX
  5
10000445
  8
VISIBLE
 10
1.478125
 20
0.4213193359375009
 30
0.125
 70
    32
  0
VERTEX
  5
10000446
  8
VISIBLE
 10
1.48125
 20
0.3939609375000008
 30
0.125
 70
    32
  0
VERTEX
  5
10000447
  8
VISIBLE
 10
1.484375
 20
0.3514501953125008
 30
0.125
 70
    32
  0
VERTEX
  5
10000448
  8
VISIBLE
 10
1.4875
 20
0.2963125000000007
 30
0.125
 70
    32
  0
VERTEX
  5
10000449
  8
VISIBLE
 10
1.490625000000001
 20
0.2310732421875006
 30
0.125
 70
    32
  0
VERTEX
  5
1000044A
  8
VISIBLE
 10
1.49375
 20
0.1582578125000005
 30
0.125
 70
    32
  0
VERTEX
  5
1000044B
  8
VISIBLE
 10
1.496875
 20
0.0803916015625004
 30
0.125
 70
    32
  0
VERTEX
  5
1000044C
  8
VISIBLE
 10
1.5
 20
0.0000000000000003
 30
0.125
 70
    32
  0
SEQEND
  5
100004CE
  8
VISIBLE
  0
LINE
  5
F4A90
  8
VISIBLE
 10
1.5
 20
0.0000000000000003
 30
0.125
 11
1.55
 21
0.0000000000000004
 31
0.125
  0
POLYLINE
  5
F4A91
  8
VISIBLE
 10
0.0
 20
0.0
 30
0.0
 66
     1
 70
     8
  0
VERTEX
  5
10000451
  8
VISIBLE
 10
1.55
 20
0.0000000000000004
 30
0.125
 70
    32
  0
VERTEX
  5
10000452
  8
VISIBLE
 10
1.553125
 20
0.0803916015625005
 30
0.125
 70
    32
  0
VERTEX
  5
10000453
  8
VISIBLE
 10
1.55625
 20
0.1582578125000006
 30
0.125
 70
    32
  0
VERTEX
  5
10000454
  8
VISIBLE
 10
1.559375
 20
0.2310732421875007
 30
0.125
 70
    32
  0
VERTEX
  5
10000455
  8
VISIBLE
 10
1.5625
 20
0.2963125000000008
 30
0.125
 70
    32
  0
VERTEX
  5
10000456
  8
VISIBLE
 10
1.565625
 20
0.3514501953125009
 30
0.125
 70
    32
  0
VERTEX
  5
10000457
  8
VISIBLE
 10
1.568750000000001
 20
0.3939609375000008
 30
0.125
 70
    32
  0
VERTEX
  5
10000458
  8
VISIBLE
 10
1.571875
 20
0.4213193359375009
 30
0.125
 70
    32
  0
VERTEX
  5
10000459
  8
VISIBLE
 10
1.5734375
 20
0.4285272216796885
 30
0.125
 70
    32
  0
VERTEX
  5
1000045A
  8
VISIBLE
 10
1.574218750000001
 20
0.4303752288818369
 30
0.125
 70
    32
  0
VERTEX
  5
1000045B
  8
VISIBLE
 10
1.57465625
 20
0.4308783313095713
 30
0.125
 70
    32
  0
VERTEX
  5
1000045C
  8
VISIBLE
 10
1.575000000000001
 20
0.4310000000000009
 30
0.125
 70
    32
  0
VERTEX
  5
1000045D
  8
VISIBLE
 10
1.5754375
 20
0.4308031643203135
 30
0.125
 70
    32
  0
VERTEX
  5
1000045E
  8
VISIBLE
 10
1.575781250000001
 20
0.4303752288818369
 30
0.125
 70
    32
  0
VERTEX
  5
1000045F
  8
VISIBLE
 10
1.576562500000001
 20
0.4285272216796885
 30
0.125
 70
    32
  0
VERTEX
  5
10000460
  8
VISIBLE
 10
1.578125
 20
0.4213193359375009
 30
0.125
 70
    32
  0
VERTEX
  5
10000461
  8
VISIBLE
 10
1.58125
 20
0.3939609375000009
 30
0.125
 70
    32
  0
VERTEX
  5
10000462
  8
VISIBLE
 10
1.584375000000001
 20
0.3514501953125009
 30
0.125
 70
    32
  0
VERTEX
  5
10000463
  8
VISIBLE
 10
1.587500000000001
 20
0.2963125000000008
 30
0.125
 70
    32
  0
VERTEX
  5
10000464
  8
VISIBLE
 10
1.590625
 20
0.2310732421875007
 30
0.125
 70
    32
  0
VERTEX
  5
10000465
  8
VISIBLE
 10
1.59375
 20
0.1582578125000006
 30
0.125
 70
    32
  0
VERTEX
  5
10000466
  8
VISIBLE
 10
1.596875
 20
0.0803916015625005
 30
0.125
 70
    32
  0
VERTEX
  5
10000467
  8
VISIBLE
 10
1.6
 20
0.0000000000000004
 30
0.125
 70
    32
  0
SEQEND
  5
100004CF
  8
VISIBLE
  0
LINE
  5
F4A92
  8
VISIBLE
 10
1.6
 20
0.0000000000000004
 30
0.125
 11
1.65
 21
0.0000000000000004
 31
0.125
  0
POLYLINE
  5
F4A93
  8
VISIBLE
 10
0.0
 20
0.0
 30
0.0
 66
     1
 70
     8
  0
VERTEX
  5
1000046C
  8
VISIBLE
 10
1.65
 20
0.0000000000000004
 30
0.125
 70
    32
  0
VERTEX
  5
1000046D
  8
VISIBLE
 10
1.653125
 20
0.0803916015625005
 30
0.125
 70
    32
  0
VERTEX
  5
1000046E
  8
VISIBLE
 10
1.65625
 20
0.1582578125000006
 30
0.125
 70
    32
  0
VERTEX
  5
1000046F
  8
VISIBLE
 10
1.659375
 20
0.2310732421875007
 30
0.125
 70
    32
  0
VERTEX
  5
10000470
  8
VISIBLE
 10
1.662500000000001
 20
0.2963125000000008
 30
0.125
 70
    32
  0
VERTEX
  5
10000471
  8
VISIBLE
 10
1.665625
 20
0.3514501953125009
 30
0.125
 70
    32
  0
VERTEX
  5
10000472
  8
VISIBLE
 10
1.668750000000001
 20
0.3939609375000009
 30
0.125
 70
    32
  0
VERTEX
  5
10000473
  8
VISIBLE
 10
1.671875000000001
 20
0.4213193359375009
 30
0.125
 70
    32
  0
VERTEX
  5
10000474
  8
VISIBLE
 10
1.6734375
 20
0.4285272216796885
 30
0.125
 70
    32
  0
VERTEX
  5
10000475
  8
VISIBLE
 10
1.674218750000001
 20
0.4303752288818369
 30
0.125
 70
    32
  0
VERTEX
  5
10000476
  8
VISIBLE
 10
1.67465625
 20
0.4308783313095714
 30
0.125
 70
    32
  0
VERTEX
  5
10000477
  8
VISIBLE
 10
1.675
 20
0.4310000000000009
 30
0.125
 70
    32
  0
VERTEX
  5
10000478
  8
VISIBLE
 10
1.675437500000001
 20
0.4308031643203136
 30
0.125
 70
    32
  0
VERTEX
  5
10000479
  8
VISIBLE
 10
1.67578125
 20
0.4303752288818369
 30
0.125
 70
    32
  0
VERTEX
  5
1000047A
  8
VISIBLE
 10
1.676562500000001
 20
0.4285272216796885
 30
0.125
 70
    32
  0
VERTEX
  5
1000047B
  8
VISIBLE
 10
1.678125000000001
 20
0.4213193359375009
 30
0.125
 70
    32
  0
VERTEX
  5
1000047C
  8
VISIBLE
 10
1.681250000000001
 20
0.3939609375000009
 30
0.125
 70
    32
  0
VERTEX
  5
1000047D
  8
VISIBLE
 10
1.684375000000001
 20
0.3514501953125009
 30
0.125
 70
    32
  0
VERTEX
  5
1000047E
  8
VISIBLE
 10
1.6875
 20
0.2963125000000008
 30
0.125
 70
    32
  0
VERTEX
  5
1000047F
  8
VISIBLE
 10
1.690625
 20
0.2310732421875007
 30
0.125
 70
    32
  0
VERTEX
  5
10000480
  8
VISIBLE
 10
1.693750000000001
 20
0.1582578125000006
 30
0.125
 70
    32
  0
VERTEX
  5
10000481
  8
VISIBLE
 10
1.696875
 20
0.0803916015625005
 30
0.125
 70
    32
  0
VERTEX
  5
10000482
  8
VISIBLE
 10
1.7
 20
0.0000000000000004
 30
0.125
 70
    32
  0
SEQEND
  5
100004D0
  8
VISIBLE
  0
POLYLINE
  5
F4A94
  8
VISIBLE
 10
0.0
 20
0.0
 30
0.0
 66
     1
 70
     8
  0
VERTEX
  5
10000485
  8
VISIBLE
 10
0.7250000000000003
 20
0.075
 30
0.125
 70
    32
  0
VERTEX
  5
10000486
  8
VISIBLE
 10
0.723828506469727
 20
0.0756160736083985
 30
0.125
 70
    32
  0
VERTEX
  5
10000487
  8
VISIBLE
 10
0.7226593017578127
 20
0.0774383544921875
 30
0.125
 70
    32
  0
VERTEX
  5
10000488
  8
VISIBLE
 10
0.7203369140625003
 20
0.0845458984375
 30
0.125
 70
    32
  0
VERTEX
  5
10000489
  8
VISIBLE
 10
0.7158203125000003
 20
0.1115234375000001
 30
0.125
 70
    32
  0
VERTEX
  5
1000048A
  8
VISIBLE
 10
0.7115966796875004
 20
0.1534423828125001
 30
0.125
 70
    32
  0
VERTEX
  5
1000048B
  8
VISIBLE
 10
0.7078125000000003
 20
0.2078125000000001
 30
0.125
 70
    32
  0
VERTEX
  5
1000048C
  8
VISIBLE
 10
0.7037037037037039
 20
0.2953703703703704
 30
0.125
 70
    32
  0
VERTEX
  5
1000048D
  8
VISIBLE
 10
0.7009837962962965
 20
0.3947337962962964
 30
0.125
 70
    32
  0
VERTEX
  5
1000048E
  8
VISIBLE
 10
0.7000000000000002
 20
0.5000000000000001
 30
0.125
 70
    32
  0
VERTEX
  5
1000048F
  8
VISIBLE
 10
0.7009837962962963
 20
0.605266203703704
 30
0.125
 70
    32
  0
VERTEX
  5
10000490
  8
VISIBLE
 10
0.7037037037037036
 20
0.7046296296296298
 30
0.125
 70
    32
  0
VERTEX
  5
10000491
  8
VISIBLE
 10
0.7078124999999998
 20
0.7921875000000002
 30
0.125
 70
    32
  0
VERTEX
  5
10000492
  8
VISIBLE
 10
0.7115966796874998
 20
0.8465576171875001
 30
0.125
 70
    32
  0
VERTEX
  5
10000493
  8
VISIBLE
 10
0.7158203124999998
 20
0.8884765625
 30
0.125
 70
    32
  0
VERTEX
  5
10000494
  8
VISIBLE
 10
0.7203369140624998
 20
0.9154541015625002
 30
0.125
 70
    32
  0
VERTEX
  5
10000495
  8
VISIBLE
 10
0.722659301757812
 20
0.9225616455078125
 30
0.125
 70
    32
  0
VERTEX
  5
10000496
  8
VISIBLE
 10
0.7238285064697262
 20
0.9243839263916016
 30
0.125
 70
    32
  0
VERTEX
  5
10000497
  8
VISIBLE
 10
0.7249999999999998
 20
0.9250000000000002
 30
0.125
 70
    32
  0
VERTEX
  5
10000498
  8
VISIBLE
 10
0.726171493530273
 20
0.9243839263916016
 30
0.125
 70
    32
  0
VERTEX
  5
10000499
  8
VISIBLE
 10
0.7273406982421872
 20
0.9225616455078125
 30
0.125
 70
    32
  0
VERTEX
  5
1000049A
  8
VISIBLE
 10
0.7296630859374996
 20
0.9154541015625
 30
0.125
 70
    32
  0
VERTEX
  5
1000049B
  8
VISIBLE
 10
0.7341796874999997
 20
0.8884765625
 30
0.125
 70
    32
  0
VERTEX
  5
1000049C
  8
VISIBLE
 10
0.7384033203124999
 20
0.8465576171875001
 30
0.125
 70
    32
  0
VERTEX
  5
1000049D
  8
VISIBLE
 10
0.7421875
 20
0.7921874999999999
 30
0.125
 70
    32
  0
VERTEX
  5
1000049E
  8
VISIBLE
 10
0.7462962962962962
 20
0.7046296296296297
 30
0.125
 70
    32
  0
VERTEX
  5
1000049F
  8
VISIBLE
 10
0.7490162037037039
 20
0.6052662037037039
 30
0.125
 70
    32
  0
VERTEX
  5
100004A0
  8
VISIBLE
 10
0.7500000000000002
 20
0.5000000000000001
 30
0.125
 70
    32
  0
VERTEX
  5
100004A1
  8
VISIBLE
 10
0.7490162037037037
 20
0.3947337962962964
 30
0.125
 70
    32
  0
VERTEX
  5
100004A2
  8
VISIBLE
 10
0.7462962962962966
 20
0.2953703703703705
 30
0.125
 70
    32
  0
VERTEX
  5
100004A3
  8
VISIBLE
 10
0.7421875000000002
 20
0.2078125
 30
0.125
 70
    32
  0
VERTEX
  5
100004A4
  8
VISIBLE
 10
0.7384033203125003
 20
0.1534423828125
 30
0.125
 70
    32
  0
VERTEX
  5
100004A5
  8
VISIBLE
 10
0.7341796875000003
 20
0.1115234375
 30
0.125
 70
    32
  0
VERTEX
  5
100004A6
  8
VISIBLE
 10
0.7296630859375003
 20
0.0845458984375
 30
0.125
 70
    32
  0
VERTEX
  5
100004A7
  8
VISIBLE
 10
0.7273406982421876
 20
0.0774383544921875
 30
0.125
 70
    32
  0
VERTEX
  5
100004A8
  8
VISIBLE
 10
0.7261714935302735
 20
0.0756160736083985
 30
0.125
 70
    32
  0
VERTEX
  5
100004A9
  8
VISIBLE
 10
0.7250000000000003
 20
0.075
 30
0.125
 70
    32
  0
SEQEND
  5
100004D1
  8
VISIBLE
  0
ENDSEC
  0
EOF
